<?xml version="1.0" encoding="UTF-8"?>
<svg width="21px" height="23px" viewBox="0 0 21 23" version="1.1" xmlns="http://www.w3.org/2000/svg" xmlns:xlink="http://www.w3.org/1999/xlink">
    <!-- Generator: Sketch 55.2 (78181) - https://sketchapp.com -->
    <title>jira</title>
    <desc>Created with Sketch.</desc>
    <g id="Producto" stroke="none" stroke-width="1" fill="none" fill-rule="evenodd">
        <g id="01_A_Product" transform="translate(-1090.000000, -152.000000)" fill="#1973B8" fill-rule="nonzero">
            <g id="jira" transform="translate(1090.000000, 152.000000)">
                <path d="M20.7800189,6.10678392 C20.6794504,6.0396626 20.5637018,6.01525485 20.428978,6.01525485 C20.3625649,6.01525485 20.2961518,6.02593324 20.2278411,6.0396626 C18.9944543,6.41645729 17.755375,6.71087581 16.5997864,6.91376525 C16.3663917,6.95342785 16.1823324,7.10139986 16.0988416,7.2646267 C15.2639336,9.09063173 13.1425083,10.8373116 10.9186171,12.6648421 C10.8351263,12.7334889 10.7023,12.8265434 10.5011631,12.8265434 C10.3019237,12.8265434 10.1671999,12.7456927 10.0837091,12.6663676 C7.85981781,10.8357861 5.73839251,9.10436109 4.89968949,7.26310122 C4.81619869,7.10139986 4.63403695,6.95342785 4.3987447,6.91223977 C3.26402884,6.69867193 2.00787183,6.40272793 0.774485032,6.02745872 C0.70427686,6 0.637863725,6 0.57145059,6 C0.453804464,6 0.320978194,6.02593324 0.220409732,6.09152907 C0.0686082798,6.1876346 -0.0148825189,6.35086145 0.0021951445,6.49730797 C0.188151923,8.01516511 0.937671593,9.50708902 2.29249955,11.0661342 C3.56383671,12.5305994 5.21847254,13.8882807 6.82377289,15.2047739 C9.76492603,17.6241924 12.5542777,19.9078428 12.8066476,22.5545585 C12.8256228,22.798636 13.0760952,22.9862706 13.3759031,22.9862706 L16.8369762,22.9862706 C16.9849826,22.9862706 17.1348865,22.9328787 17.2544302,22.8398241 C17.3531011,22.7452441 17.4214118,22.6232053 17.4062316,22.5042175 C17.286688,20.7285535 16.4669601,18.9559404 14.8635573,17.0734925 C14.5276966,16.6844939 14.1766557,16.2954953 13.7933571,15.9187006 C13.6415556,15.7692032 13.7098663,15.583094 13.8256149,15.4763101 L14.1766557,15.1910445 C15.7819561,13.8760768 17.4365919,12.5168701 18.7079291,11.0524049 C20.0608595,9.49641062 20.8141742,8.0166906 20.9982335,6.48357861 C21.0134136,6.36153984 20.9299228,6.20136396 20.7800189,6.10678392 L20.7800189,6.10678392 Z M6.77064239,17.2763819 C6.68715159,17.2077351 6.57140298,17.1390883 6.37216358,17.1390883 C6.11979366,17.1390883 5.95470958,17.2885858 5.90157907,17.3557071 C4.44808017,19.143575 3.69476547,20.8231335 3.59609452,22.5164214 C3.59609452,22.6384602 3.64542999,22.7727028 3.74789597,22.852028 C3.84656692,22.946608 3.99457333,23 4.16534997,23 L7.62452555,23 C7.92812846,23 8.17480582,22.8123654 8.193781,22.5698134 C8.27537428,21.7506281 8.57707967,20.9436468 9.16151526,20.0832735 C9.36265218,19.788855 9.21274825,19.5035894 9.09510212,19.3846016 C8.51066653,18.7805097 7.82376496,18.1489591 6.77064239,17.2748564 L6.77064239,17.2763819 Z" id="Shape"></path>
                <path d="M12.4764097,7.0014742 C12.7449175,7.0014742 13,7.17100737 13,7.41719902 C13,7.48206388 12.9808209,7.53513514 12.9501343,7.58525799 C12.7967012,7.88304668 12.136939,8.96068796 10.9037208,9.88501229 C10.7694668,9.98820639 10.5968546,10 10.4971231,10 C10.4012275,10 10.2286153,9.98525799 10.0943613,9.88206388 C8.86114308,8.96068796 8.2013809,7.88304668 8.04794783,7.58230958 C8.03260453,7.54545455 8,7.49385749 8,7.41572482 C8,7.17985258 8.25316456,7 8.52167242,7 C8.77483698,7 9.41733794,7.05159705 10.5163023,7.05159705 C11.6152666,7.05159705 12.2558496,7 12.4764097,7 L12.4764097,7.0014742 Z" id="Path"></path>
                <path d="M3.75395859,1.24928367 C2.78928136,1.24928367 2,1.86819484 2,2.62464183 C2,3.38395415 2.78928136,4 3.75395859,4 C4.71863581,4 5.50791717,3.38395415 5.50791717,2.62464183 C5.48964677,1.86819484 4.71863581,1.24928367 3.75395859,1.24928367 Z M15.2460414,1.24928367 C14.2813642,1.24928367 13.4920828,1.86819484 13.4920828,2.62464183 C13.4920828,3.38395415 14.2813642,4 15.2460414,4 C16.2143727,4 17,3.38395415 17,2.62464183 C17,1.86819484 16.2143727,1.24928367 15.2460414,1.24928367 Z M9.5,0 C8.5316687,0 7.74604141,0.616045845 7.74604141,1.37535817 C7.74604141,2.13467049 8.5316687,2.75071633 9.5,2.75071633 C10.4683313,2.75071633 11.2539586,2.13467049 11.2539586,1.37535817 C11.2539586,0.606017192 10.4683313,0 9.5,0 Z" id="Shape"></path>
            </g>
        </g>
    </g>
</svg>