<svg id="Contenido" xmlns="http://www.w3.org/2000/svg" viewBox="0 0 90 40"><defs><style>.cls-1{fill:#fff;}.cls-2{fill:#78c2ff;}</style></defs><title>Mesa de trabajo 19 copia 2</title><path class="cls-1" d="M22.29,28.23h-.68A.84.84,0,0,1,21,28L9.36,14.58V27.39a.84.84,0,1,1-1.68,0V13.1a.84.84,0,0,1,.84-.84h.67a.83.83,0,0,1,.63.29L21.45,25.92V13.1a.84.84,0,0,1,1.68,0V27.39A.84.84,0,0,1,22.29,28.23Z"/><path class="cls-1" d="M45,28.23H30.69a.84.84,0,0,1-.84-.84V13.1a.85.85,0,0,1,.84-.84H45a.85.85,0,0,1,.84.84V27.39A.84.84,0,0,1,45,28.23ZM31.54,26.55H44.15V13.94H31.54Z"/><path class="cls-1" d="M59.08,28a.86.86,0,0,1-.75-.45L50.9,13.49a.83.83,0,0,1,.35-1.13.84.84,0,0,1,1.14.35l6.69,12.68,6.68-12.68a.84.84,0,0,1,1.14-.35.83.83,0,0,1,.35,1.13l-7.43,14.1A.86.86,0,0,1,59.08,28Z"/><path class="cls-1" d="M83.09,25.9a.85.85,0,0,1-.74-.45L75.66,12.76,69,25.45a.84.84,0,0,1-1.49-.79l7.43-14.09a.82.82,0,0,1,.74-.45.84.84,0,0,1,.75.45l7.43,14.09a.85.85,0,0,1-.35,1.14A.82.82,0,0,1,83.09,25.9Z"/><path class="cls-2" d="M10.89,37.39a40.57,40.57,0,0,1-7.33.35C1.32,37.56.93,37,.86,36.8s-.18-1.46,5.26-4.48a.41.41,0,0,0,.19-.5h0a.42.42,0,0,0-.59-.22c-.59.33-1.14.65-1.64.95C1,34.44-.29,35.87.05,37c.26.87,1.39,1.38,3.45,1.54.49,0,1,.05,1.63.05A49.52,49.52,0,0,0,11,38.22,193,193,0,0,0,34.57,33.5a.41.41,0,0,0,.31-.49h0a.41.41,0,0,0-.51-.31A195.9,195.9,0,0,1,10.89,37.39Z"/><path class="cls-2" d="M79.92,11a.4.4,0,0,1-.38-.24.42.42,0,0,1,.2-.56C89,5.76,89,4,88.94,3.69s-.47-.76-2.75-.93a40.23,40.23,0,0,0-7.43.37,199.79,199.79,0,0,0-24.54,5,.42.42,0,0,1-.51-.3.41.41,0,0,1,.3-.51,198.08,198.08,0,0,1,24.65-5,41.84,41.84,0,0,1,7.59-.37c2.09.15,3.23.66,3.49,1.54.51,1.7-2.65,4.15-9.64,7.47A.39.39,0,0,1,79.92,11Z"/><circle class="cls-1" cx="63.49" cy="5.41" r="2.27"/></svg>