<svg id="Capa_1" data-name="Capa 1" xmlns="http://www.w3.org/2000/svg" xmlns:xlink="http://www.w3.org/1999/xlink" viewBox="0 0 24 24"><defs><style>.cls-1{fill:#fff;}.cls-2{clip-path:url(#clip-path);}.cls-3{clip-path:url(#clip-path-2);}</style><clipPath id="clip-path"><path class="cls-1" d="M11.94,16.38l1.2,1.15,2.28-2.32L15,14.8l-1.82,1.87L12.38,16Zm5.22-2.18c.2.3.78.46.86.8s-.35.75-.35,1.09.43.8.35,1.1-.7.49-.86.8,0,.87-.27,1.13-.86.08-1.18.27-.47.76-.82.83-.78-.34-1.14-.34-.82.46-1.13.38-.51-.68-.82-.83-.9,0-1.18-.27-.08-.83-.27-1.13-.79-.46-.86-.8.35-.76.35-1.1-.43-.79-.35-1.1.66-.53.86-.83,0-.87.27-1.14.86-.07,1.18-.26.43-.76.78-.87.78.34,1.13.34.83-.42,1.18-.34.51.68.82.83.9,0,1.18.27S17,13.9,17.16,14.2Z"/></clipPath><clipPath id="clip-path-2"><rect class="cls-1" x="8.53" y="10.97" width="9.98" height="9.98"/></clipPath></defs><title>inform calidad_w</title><path class="cls-1" d="M22.33,7.66a1,1,0,0,0-.17-.58A.9.9,0,0,0,22,6.89L16.26,1.14a1,1,0,0,0-.72-.3H6.22a1,1,0,0,0-1,1V22.63a1,1,0,0,0,1,1H21.29a1,1,0,0,0,1-1V7.87A.75.75,0,0,0,22.33,7.66Zm-6-3.58,2.55,2.55H16.31ZM7.25,21.6V2.89h7V7.66a1,1,0,0,0,1,1h5V21.6Z"/><path class="cls-1" d="M11.94,16.38l1.2,1.15,2.28-2.32L15,14.8l-1.82,1.87L12.38,16Zm5.22-2.18c.2.3.78.46.86.8s-.35.75-.35,1.09.43.8.35,1.1-.7.49-.86.8,0,.87-.27,1.13-.86.08-1.18.27-.47.76-.82.83-.78-.34-1.14-.34-.82.46-1.13.38-.51-.68-.82-.83-.9,0-1.18-.27-.08-.83-.27-1.13-.79-.46-.86-.8.35-.76.35-1.1-.43-.79-.35-1.1.66-.53.86-.83,0-.87.27-1.14.86-.07,1.18-.26.43-.76.78-.87.78.34,1.13.34.83-.42,1.18-.34.51.68.82.83.9,0,1.18.27S17,13.9,17.16,14.2Z"/><g class="cls-2"><rect class="cls-1" x="8.53" y="10.97" width="9.98" height="9.98"/><g class="cls-3"><rect class="cls-1" x="7.1" y="9.54" width="13.31" height="13.1"/></g></g></svg>