<svg id="Capa_1" data-name="Capa 1" xmlns="http://www.w3.org/2000/svg" viewBox="0 0 24 24"><defs><style>.cls-1{fill:#fff;}</style></defs><title>deamon_w</title><path class="cls-1" d="M22.61,8a11.38,11.38,0,0,0-12.92-7,1.2,1.2,0,0,0-.77.53,1.17,1.17,0,0,0-.17.91,1.19,1.19,0,0,0,.52.77,1.21,1.21,0,0,0,.91.17,9,9,0,0,1,8.46,14.85l.1-.67a1.21,1.21,0,0,0-2.4-.35l-.52,3.51a1.2,1.2,0,0,0,.22.9,1.25,1.25,0,0,0,.8.48l3.52.52h.17a1.21,1.21,0,0,0,.18-2.41l-.54-.08A11.38,11.38,0,0,0,22.61,8Z"/><path class="cls-1" d="M14.74,21.18a1.27,1.27,0,0,0-.91-.17A9,9,0,0,1,5.72,5.8l-.13.9a1.2,1.2,0,0,0,.22.9A1.22,1.22,0,0,0,8,7.06l.52-3.51a1.28,1.28,0,0,0-.23-.91,1.17,1.17,0,0,0-.8-.47L4,1.65a1.22,1.22,0,0,0-1.38,1,1.25,1.25,0,0,0,.23.9,1.22,1.22,0,0,0,.8.48L4,4.1a11.4,11.4,0,0,0,8,19.53,11.54,11.54,0,0,0,2.34-.24,1.22,1.22,0,0,0,.77-.52,1.2,1.2,0,0,0,.17-.92A1.21,1.21,0,0,0,14.74,21.18Z"/><path class="cls-1" d="M17.19,10.91l-1.43-.21c0-.15-.11-.3-.17-.44l.84-1.15a.37.37,0,0,0,0-.49L15.26,7.49a.37.37,0,0,0-.49,0l-1.1.81a4.34,4.34,0,0,0-.48-.2L13,6.72a.37.37,0,0,0-.37-.32H11a.38.38,0,0,0-.37.32l-.18,1.34a3.26,3.26,0,0,0-.5.2L8.87,7.45a.37.37,0,0,0-.49,0L7.24,8.62a.38.38,0,0,0,0,.49l.85,1.15a3.38,3.38,0,0,0-.18.44l-1.42.21a.36.36,0,0,0-.32.37V12.9a.38.38,0,0,0,.32.38l1.45.21a3.92,3.92,0,0,0,.16.36l-.89,1.22a.39.39,0,0,0,0,.49L8.35,16.7a.38.38,0,0,0,.49,0l1.26-.92a2.09,2.09,0,0,0,.3.11l.23,1.54a.38.38,0,0,0,.37.32h1.63a.37.37,0,0,0,.37-.32l.24-1.55.3-.13,1.22,1a.39.39,0,0,0,.5,0l1.13-1.14a.37.37,0,0,0,0-.49l-.89-1.22c.06-.12.11-.24.16-.36l1.49-.21a.39.39,0,0,0,.32-.38V11.28A.37.37,0,0,0,17.19,10.91ZM14.9,15.23l-1.07-.81a.37.37,0,0,0-.39,0l-.16.08a5,5,0,0,1-.78.32l-.19.06a.38.38,0,0,0-.27.31l-.19,1.33h0l-.19-1.33a.38.38,0,0,0-.27-.31l-.19-.06a2.61,2.61,0,0,1-.76-.3l-.08-.05a.38.38,0,0,0-.44,0l-1.07.81,0,0,.79-1.07a.38.38,0,0,0,0-.43l-.11-.16a2.7,2.7,0,0,1-.36-.84l-.06-.16a.37.37,0,0,0-.3-.25l-1.28-.2,1.23-.2A.36.36,0,0,0,9,11.6l0-.18a2.59,2.59,0,0,1,.34-.9l.09-.16a.37.37,0,0,0,0-.39L8.7,9l0,0,.94.7a.36.36,0,0,0,.43,0l.14-.1a3,3,0,0,1,.9-.38l.19,0a.39.39,0,0,0,.32-.32l.14-1.14L12,8.86a.36.36,0,0,0,.32.32l.16,0a2.57,2.57,0,0,1,.9.38l.16.11a.39.39,0,0,0,.44,0L14.9,9l0,0-.73,1a.37.37,0,0,0,.06.51l.11.09a3.1,3.1,0,0,1,.3.81l0,.19a.36.36,0,0,0,.32.32l1.22.17L15,12.29a.38.38,0,0,0-.3.25l-.06.19a2.5,2.5,0,0,1-.36.81l-.11.16a.38.38,0,0,0,0,.43l.78,1.07Z"/><circle class="cls-1" cx="11.97" cy="12.01" r="1.29"/></svg>