<?xml version="1.0" encoding="UTF-8"?>
<svg width="22px" height="22px" viewBox="0 0 22 22" version="1.1" xmlns="http://www.w3.org/2000/svg" xmlns:xlink="http://www.w3.org/1999/xlink">
    <!-- Generator: Sketch 55.2 (78181) - https://sketchapp.com -->
    <title>Symbols/Checkmark/Filled</title>
    <desc>Created with Sketch.</desc>
    <defs>
        <path d="M12,23 C5.92486775,23 1,18.0751322 1,12 C1,5.92486775 5.92486775,1 12,1 C18.0751322,1 23,5.92486775 23,12 C23,18.0751322 18.0751322,23 12,23 Z M9.70833333,14.2916667 L6.95833333,11.5416667 L5.58333333,12.9166667 L9.70833333,17.0416667 L18.4166667,8.33333333 L17.0416667,6.95833333 L9.70833333,14.2916667 Z" id="path-1"></path>
    </defs>
    <g id="Producto" stroke="none" stroke-width="1" fill="none" fill-rule="evenodd">
        <g id="02_E3_Configuración-" transform="translate(-880.000000, -1426.000000)">
            <g id="Symbols/Checkmark/Filled" transform="translate(879.000000, 1425.000000)">
                <rect id="Rectangle" fill="#FFFFFF" fill-rule="evenodd" x="5" y="4.5" width="14" height="14"></rect>
                <polygon id="Bounding-Box" points="0 0 24 0 24 24 0 24"></polygon>
                <mask id="mask-2" fill="white">
                    <use xlink:href="#path-1"></use>
                </mask>
                <use id="Mask" fill="#FFFFFF" fill-rule="evenodd" xlink:href="#path-1"></use>
                <g id="Primary/Medium-Blue/Medium-Blue" mask="url(#mask-2)" fill="#48AE64" fill-rule="evenodd">
                    <rect id="Rectangle" x="0" y="0" width="24" height="24"></rect>
                </g>
            </g>
        </g>
    </g>
</svg>