<?xml version="1.0" encoding="UTF-8"?>
<svg width="20px" height="19px" viewBox="0 0 20 19" version="1.1" xmlns="http://www.w3.org/2000/svg" xmlns:xlink="http://www.w3.org/1999/xlink">
    <!-- Generator: Sketch 55.2 (78181) - https://sketchapp.com -->
    <title>Actions/Copy</title>
    <desc>Created with Sketch.</desc>
    <defs>
        <path d="M6,5 L6,0 L20,0 L20,14 L14,14 L14,19 L0,19 L0,5 L6,5 Z M8,5 L14,5 L14,12 L18,12 L18,2 L8,2 L8,5 Z M2,7 L2,17 L12,17 L12,7 L2,7 Z" id="path-1"></path>
    </defs>
    <g id="Producto" stroke="none" stroke-width="1" fill="none" fill-rule="evenodd">
        <g id="06_D_Historico-de-despliegues" transform="translate(-1173.000000, -246.000000)">
            <g id="Navigation/Filter-Copy" transform="translate(1171.000000, 243.000000)">
                <rect id="Rectangle" stroke="#1464A5" stroke-width="2" x="3" y="9" width="12" height="12"></rect>
                <polyline id="Rectangle-Copy" stroke="#1464A5" stroke-width="2" points="9 10 9 4 21 4 21 16 15.1871877 16"></polyline>
                <g id="🎨-Color-Fill" stroke-width="1" fill-rule="evenodd" transform="translate(2.000000, 3.000000)">
                    <mask id="mask-2" fill="white">
                        <use xlink:href="#path-1"></use>
                    </mask>
                    <use id="Mask" fill="#D8D8D8" xlink:href="#path-1"></use>
                    <g id="Primary/Medium-Blue/Medium-Blue" mask="url(#mask-2)" fill="#1973B8">
                        <g transform="translate(-2.000000, -3.000000)" id="Rectangle">
                            <rect x="0" y="0" width="24" height="24"></rect>
                        </g>
                    </g>
                </g>
            </g>
        </g>
    </g>
</svg>