<svg id="Contenido" xmlns="http://www.w3.org/2000/svg" viewBox="0 0 90 40"><defs><style>.cls-1{fill:#024381;}.cls-2{fill:#78c2ff;}.cls-3{fill:#006dc6;}</style></defs><title>Mesa de trabajo 19</title><path class="cls-1" d="M22.54,27.93h-.67a.84.84,0,0,1-.63-.28L9.69,14.36V27.1a.83.83,0,0,1-.83.83A.84.84,0,0,1,8,27.1V12.9a.85.85,0,0,1,.84-.84h.67a.85.85,0,0,1,.63.29L21.7,25.63V12.9a.85.85,0,0,1,.84-.84.84.84,0,0,1,.83.84V27.1A.83.83,0,0,1,22.54,27.93Z"/><path class="cls-1" d="M45.09,27.93H30.89a.83.83,0,0,1-.83-.83V12.9a.84.84,0,0,1,.83-.84h14.2a.84.84,0,0,1,.83.84V27.1A.83.83,0,0,1,45.09,27.93ZM31.73,26.26H44.25V13.73H31.73Z"/><path class="cls-1" d="M59.09,27.74a.82.82,0,0,1-.74-.45L51,13.29a.83.83,0,1,1,1.47-.78l6.65,12.6,6.64-12.6a.84.84,0,0,1,1.48.78l-7.38,14A.84.84,0,0,1,59.09,27.74Z"/><path class="cls-1" d="M83,25.61a.84.84,0,0,1-.74-.44l-6.65-12.6-6.64,12.6a.84.84,0,0,1-1.48-.78l7.39-14a.82.82,0,0,1,.73-.44.83.83,0,0,1,.74.44l7.39,14a.84.84,0,0,1-.35,1.12A.81.81,0,0,1,83,25.61Z"/><path class="cls-2" d="M11.21,37a39.74,39.74,0,0,1-7.27.34c-2.23-.17-2.62-.7-2.69-.92S1.08,35,6.48,32a.4.4,0,0,0,.19-.5h0a.4.4,0,0,0-.58-.22c-.58.32-1.13.64-1.63.94C1.38,34.1.11,35.52.45,36.68c.26.87,1.38,1.37,3.42,1.53.49,0,1,0,1.62,0a51,51,0,0,0,5.82-.4,194.41,194.41,0,0,0,23.44-4.69.42.42,0,0,0,.3-.49h0a.41.41,0,0,0-.51-.31A192.25,192.25,0,0,1,11.21,37Z"/><path class="cls-2" d="M79.79,10.79a.42.42,0,0,1-.18-.8c9.22-4.38,9.23-6.13,9.14-6.44s-.46-.76-2.73-.93A40.59,40.59,0,0,0,78.64,3,198.38,198.38,0,0,0,54.26,8a.41.41,0,0,1-.51-.3.42.42,0,0,1,.3-.51,200.12,200.12,0,0,1,24.49-5,41.39,41.39,0,0,1,7.55-.37c2.07.16,3.2.65,3.46,1.53C90.05,5,86.92,7.44,80,10.75A.58.58,0,0,1,79.79,10.79Z"/><circle class="cls-3" cx="63.47" cy="5.26" r="2.26"/></svg>