<?xml version="1.0" encoding="UTF-8" standalone="no"?>
<svg
   xmlns:dc="http://purl.org/dc/elements/1.1/"
   xmlns:cc="http://creativecommons.org/ns#"
   xmlns:rdf="http://www.w3.org/1999/02/22-rdf-syntax-ns#"
   xmlns:svg="http://www.w3.org/2000/svg"
   xmlns="http://www.w3.org/2000/svg"
   xmlns:sodipodi="http://sodipodi.sourceforge.net/DTD/sodipodi-0.dtd"
   xmlns:inkscape="http://www.inkscape.org/namespaces/inkscape"
   width="21px"
   height="24px"
   viewBox="0 0 21 24"
   version="1.1"
   id="svg1002"
   sodipodi:docname="externa.svg"
   inkscape:version="1.0beta2 (2b71d25, 2019-12-03)">
  <metadata
     id="metadata1008">
    <rdf:RDF>
      <cc:Work
         rdf:about="">
        <dc:format>image/svg+xml</dc:format>
        <dc:type
           rdf:resource="http://purl.org/dc/dcmitype/StillImage" />
        <dc:title>Group 6</dc:title>
      </cc:Work>
    </rdf:RDF>
  </metadata>
  <defs
     id="defs1006" />
  <sodipodi:namedview
     pagecolor="#ffffff"
     bordercolor="#666666"
     inkscape:document-rotation="0"
     borderopacity="1"
     objecttolerance="10"
     gridtolerance="10"
     guidetolerance="10"
     inkscape:pageopacity="0"
     inkscape:pageshadow="2"
     inkscape:window-width="1440"
     inkscape:window-height="832"
     id="namedview1004"
     showgrid="false"
     inkscape:zoom="11.644662"
     inkscape:cx="13.375182"
     inkscape:cy="17.048735"
     inkscape:window-x="0"
     inkscape:window-y="23"
     inkscape:window-maximized="0"
     inkscape:current-layer="Drafts" />
  <!-- Generator: Sketch 55.2 (78181) - https://sketchapp.com -->
  <title
     id="title979">Group 6</title>
  <desc
     id="desc981">Created with Sketch.</desc>
  <g
     id="Drafts"
     stroke="none"
     stroke-width="1"
     fill="none"
     fill-rule="evenodd">
    <g
       id="Artboard-Copy"
       transform="translate(-220.000000, -734.000000)"
       fill="#1973B8"
       fill-rule="nonzero">
      <g
         id="Group-6"
         transform="translate(220.000000, 734.000000)">
        <g
           id="Group-5"
           transform="translate(0.000000, 15.272727)">
          <path
             d="M0.597158058,3.7496424 C0.294082302,3.5563545 0.0831338436,3.22712863 0.0197733317,2.84852186 C-0.0435871802,2.46991509 0.0469796859,2.07980829 0.267662914,1.78076479 C0.645419083,1.34757213 1.22726075,1.21514393 1.73062135,1.44779285 L5.53958522,3.11265258 C5.63051912,3.15893692 5.72932722,3.1836036 5.82954095,3.18503779 L9.41444812,3.18503779 C9.61826028,3.18503779 9.78348268,3.00355321 9.78348268,2.77968064 C9.78354904,2.67345503 9.74425354,2.57177462 9.67463946,2.49803963 C9.60502537,2.42430464 9.51108891,2.38486622 9.41444812,2.38880052 L7.60881473,2.38880052 C7.07341219,2.40784371 6.59735112,2.01715796 6.46217163,1.44779285 C6.3895671,1.09347173 6.46861773,0.722138341 6.67673077,0.439920096 C6.88484382,0.15770185 7.1991189,-0.0043464586 7.5297359,8.87260365e-05 L13.7110648,8.87260365e-05 L15.9911712,1.25959131 L15.9911712,7.26756341 C16.0029429,7.28995947 16.0029429,7.31755255 15.9911712,7.33994861 L9.22993084,8.70079049 C8.87347546,8.76965264 8.50629692,8.70328378 8.18872618,8.51258895 L0.597158058,3.7496424 Z"
             id="Path" />
          <path
             d="M17,1.90744467 L17,6.81982805 C17,7.2707882 17.4022829,7.63636364 17.898524,7.63636364 L20.1158494,7.63636364 C20.3528418,7.63636364 20.5799232,7.54994704 20.7461343,7.39642625 C20.9123453,7.24290545 21.0037662,7.03516652 20.999881,6.81982805 L20.999881,1.90744467 C21.0037662,1.69210621 20.9123453,1.48436727 20.7461343,1.33084648 C20.5799232,1.17732568 20.3528418,1.09090909 20.1158494,1.09090909 L17.898524,1.09090909 C17.6602206,1.09090909 17.4316775,1.17693671 17.2631716,1.33006683 C17.0946656,1.48319696 17,1.69088597 17,1.90744467 L17,1.90744467 Z M18.9274789,2.36839218 C19.3808296,2.36073989 19.7591509,2.68123166 19.7825259,3.09273825 L19.7825259,3.09273825 C19.7904591,3.51451303 19.420667,3.86228464 18.9565425,3.86953571 C18.4924181,3.87678677 18.10969,3.54077185 18.1016649,3.11899852 C18.0936398,2.69722518 18.4633561,2.34938697 18.9274789,2.34205232 L18.9274789,2.36839218 Z"
             id="Shape" />
        </g>
        <g
           id="API_b"
           transform="translate(5.000000, 0.000000)" />
      </g>
    </g>
    <path
       inkscape:connector-curvature="0"
       style="fill:#1973b8;stroke-width:0.570408"
       class="cls-1"
       d="M 15.379469,7.9126371 A 6.7720902,6.9184796 0 0 0 8.9008365,0.99415731 H 8.2857051 a 6.7720902,6.9184796 0 0 0 0,13.79660169 H 8.9008365 A 6.7720902,6.9184796 0 0 0 15.379469,7.9126371 Z M 2.8511028,8.4026958 H 4.6569936 A 11.286817,11.530799 0 0 0 5.0294586,10.951003 7.6750356,7.8409434 0 0 0 3.9854279,11.423766 5.7111294,5.8345844 0 0 1 2.8511028,8.4026958 Z M 3.9797845,4.366916 A 6.7043694,6.8492948 0 0 0 5.0181718,4.8339135 11.732647,11.986266 0 0 0 4.6569936,7.3937512 H 2.8511028 A 5.6434085,5.7653996 0 0 1 3.9797845,4.3726815 Z M 14.335438,7.3937512 H 12.557765 A 11.286817,11.530799 0 0 0 12.196586,4.8973328 8.1152215,8.2906446 0 0 0 13.257547,4.453397 5.7167729,5.8403498 0 0 1 14.335438,7.3937512 Z M 9.0870691,2.0607562 C 9.8150682,2.2683106 10.46406,3.0639358 10.915533,4.2054848 A 10.587034,10.81589 0 0 1 9.0870691,4.4361008 Z M 8.0994725,4.453397 A 10.852274,11.086863 0 0 1 6.2822952,4.1997194 C 6.7337679,3.0466396 7.3771164,2.2913721 8.0994725,2.0838178 Z m 0,1.008945 V 7.3937512 H 5.6389466 a 10.271004,10.493028 0 0 1 0.3329612,-2.260037 11.111872,11.352072 0 0 0 2.1275647,0.3055661 z m 0,2.9634155 V 10.374463 A 11.704429,11.957438 0 0 0 5.9662643,10.680029 10.587034,10.81589 0 0 1 5.6389466,8.4257575 Z m 0,2.9634155 v 2.346518 C 7.3771164,13.528136 6.7337679,12.749808 6.2822952,11.619789 a 10.299221,10.521854 0 0 1 1.8171773,-0.247912 z m 0.9875966,0 a 10.524957,10.75247 0 0 1 1.8284639,0.224851 c -0.451473,1.153079 -1.1004648,1.94294 -1.8284639,2.150494 z m 0,-1.01471 V 8.4026958 H 11.547595 A 10.321794,10.544916 0 0 1 11.22592,10.622374 11.851158,12.10734 0 0 0 9.0870691,10.345636 Z m 0,-2.9518847 V 5.4450458 A 11.851158,12.10734 0 0 0 11.22592,5.1683066 10.378228,10.60257 0 0 1 11.547595,7.3937512 Z M 11.874912,3.9633381 a 6.9639661,7.1145032 0 0 0 -0.632061,-1.297215 5.5700442,5.6904494 0 0 1 1.343131,0.9858833 c -0.225736,0.1037773 -0.462759,0.2248507 -0.71107,0.2882701 z M 5.3342025,3.8768571 C 5.0971795,3.7846107 4.8657997,3.6923643 4.6569936,3.5885871 a 5.6039047,5.7250418 0 0 1 1.286697,-0.922464 6.4165555,6.5552593 0 0 0 -0.6094881,1.210734 z m 0,8.0196709 a 6.7720902,6.9184796 0 0 0 0.6094881,1.222265 5.6039047,5.7250418 0 0 1 -1.286697,-0.922463 6.7720902,6.9184796 0 0 1 0.6772089,-0.288271 z m 6.5407095,-0.05765 a 7.5847411,7.7486971 0 0 1 0.716713,0.288269 5.8973619,6.0248426 0 0 1 -1.348774,0.991649 6.5012067,6.6417403 0 0 0 0.632061,-1.268387 z m 0.304744,-0.951291 a 11.286817,11.530799 0 0 0 0.378109,-2.4848872 h 1.794604 a 5.7562767,5.8807076 0 0 1 -1.094822,2.9691812 7.4380124,7.5987967 0 0 0 -1.077891,-0.472763 z"
       id="path1234" />
  </g>
</svg>
