<svg id="Capa_1" data-name="Capa 1" xmlns="http://www.w3.org/2000/svg" viewBox="0 0 24 24"><defs><style>.cls-1{fill:#fff;}</style></defs><title>tcp_w</title><path class="cls-1" d="M15.31,16.85A3.56,3.56,0,0,0,12,19L9.14,17.39V13.71l3.18-1.89a3.57,3.57,0,1,0,0-2.44l-3.2-2s0-.1,0-.14V3A1.72,1.72,0,0,0,7.43,1.3H3.21A1.72,1.72,0,0,0,1.5,3V7.23A1.72,1.72,0,0,0,3.21,8.94H7.43a1.71,1.71,0,0,0,.92-.27l3.06,1.93L8.54,12.31a1.7,1.7,0,0,0-1.11-.42H3.21A1.72,1.72,0,0,0,1.5,13.6v4.22a1.72,1.72,0,0,0,1.71,1.71H7.43a1.69,1.69,0,0,0,1.31-.63l3,1.7a3.57,3.57,0,1,0,3.56-3.75ZM7.63,7.23a.2.2,0,0,1-.2.2H3.21a.2.2,0,0,1-.2-.2V3a.2.2,0,0,1,.2-.2H7.43a.2.2,0,0,1,.2.2Zm8.05,1.32a2.07,2.07,0,1,1-2.06,2.06A2.07,2.07,0,0,1,15.68,8.55Zm-8,9.27a.2.2,0,0,1-.2.2H3.21a.2.2,0,0,1-.2-.2V13.6a.2.2,0,0,1,.2-.2H7.43a.2.2,0,0,1,.2.2Zm7.68,4.67a2.07,2.07,0,1,1,2.07-2.07A2.07,2.07,0,0,1,15.31,22.49Z"/><path class="cls-1" d="M13.29,1.36H12V.64h3.56v.72H14.15v4h-.86Z"/><path class="cls-1" d="M19.45,5.2a3.16,3.16,0,0,1-1.23.21,2.22,2.22,0,0,1-2.4-2.36A2.37,2.37,0,0,1,18.34.56a2.65,2.65,0,0,1,1.14.21l-.19.69a2.2,2.2,0,0,0-.91-.19A1.57,1.57,0,0,0,16.73,3a1.54,1.54,0,0,0,1.64,1.7,2.49,2.49,0,0,0,.93-.17Z"/><path class="cls-1" d="M20.38.7A7.13,7.13,0,0,1,21.7.6,2,2,0,0,1,23.08,1a1.32,1.32,0,0,1,.46,1,1.43,1.43,0,0,1-.4,1.06,2,2,0,0,1-1.48.51,2.72,2.72,0,0,1-.43,0V5.34h-.85Zm.85,2.19a1.69,1.69,0,0,0,.43,0c.64,0,1-.32,1-.87s-.36-.8-1-.8a2.67,2.67,0,0,0-.5,0Z"/></svg>