<svg id="Capa_1" data-name="Capa 1" xmlns="http://www.w3.org/2000/svg" viewBox="0 0 24 24"><defs><style>.cls-1{fill:#1973b8;}</style></defs><title>batches_b</title><path class="cls-1" d="M22.78,13.35l-.63-.42.57-.33A1.9,1.9,0,0,0,23.63,11a1.88,1.88,0,0,0-.88-1.66l-1-.62L22.88,8a1.09,1.09,0,0,0,0-1.86L13.81.43a2.78,2.78,0,0,0-2.94,0L1.49,6.15A1.09,1.09,0,0,0,1.51,8l1.07.62L1.5,9.29a2,2,0,0,0,0,3.32l.56.33-.62.4a2.1,2.1,0,0,0,0,3.43l4.1,2.51c0-.17,0-.33,0-.5a6.82,6.82,0,0,1,.19-1.57l-3.28-2a.4.4,0,0,1,0-.3L3.92,14l2.57,1.46A7.16,7.16,0,0,1,7.65,14L2.48,11a.19.19,0,0,1,0-.15L4.41,9.7l5.15,3a6.64,6.64,0,0,1,5.45,0l5-3,1.79,1.11a.39.39,0,0,1,0,.14l-5,2.92A6.89,6.89,0,0,1,18,15.38L20.37,14l1.37.9a.55.55,0,0,1,0,.31L18.7,17.11a6.65,6.65,0,0,1,.22,1.67c0,.14,0,.27,0,.4l3.85-2.43a2.1,2.1,0,0,0,0-3.4Z"/><path class="cls-1" d="M16.85,22a5.11,5.11,0,0,0-5.07-8.16.86.86,0,0,0-.54.37.85.85,0,0,0,.25,1.18.86.86,0,0,0,.64.13,3.41,3.41,0,0,1,3.68,5,.86.86,0,0,0-1.52.4l-.22,1.46a.85.85,0,0,0,.16.64.92.92,0,0,0,.56.34l1.48.22h.12a.85.85,0,0,0,.84-.73.84.84,0,0,0-.16-.63A.88.88,0,0,0,16.85,22Z"/><path class="cls-1" d="M13.23,22.34h0a.83.83,0,0,0-.65-.12A3.41,3.41,0,0,1,9,17.1a.21.21,0,0,1,0,.06.88.88,0,0,0,1.2.18.91.91,0,0,0,.34-.57l.21-1.46a.81.81,0,0,0-.16-.64.87.87,0,0,0-.56-.34l-1.46-.21a.85.85,0,0,0-.64.15.91.91,0,0,0-.34.57.88.88,0,0,0,.16.63,1.29,1.29,0,0,0,.16.17,5.12,5.12,0,0,0,4,8.36,5.27,5.27,0,0,0,1-.11.84.84,0,0,0,.54-.37.86.86,0,0,0,.13-.64A.84.84,0,0,0,13.23,22.34Z"/></svg>