<svg id="Capa_1" data-name="Capa 1" xmlns="http://www.w3.org/2000/svg" viewBox="0 0 24 24"><defs><style>.cls-1{fill:#ffffff;}</style></defs><title>API_b</title><path class="cls-1" d="M20.62,0H3.33A3.24,3.24,0,0,0,0,3.15V16.3a3.24,3.24,0,0,0,3.33,3.14h1.3v3.37a1.16,1.16,0,0,0,.67,1,1,1,0,0,0,.52.11,1.3,1.3,0,0,0,.7-.21l5.68-4.3h8.42A3.25,3.25,0,0,0,24,16.3V3.15A3.25,3.25,0,0,0,20.62,0Zm1,16.27a.9.9,0,0,1-.94.85H11.77a1.38,1.38,0,0,0-.7.2L7,20.4V18.26a1.18,1.18,0,0,0-1.19-1.14H3.33a.9.9,0,0,1-1-.85V3.2a.9.9,0,0,1,1-.85H20.67a.91.91,0,0,1,.95.85Z"/><path class="cls-1" d="M6.91,12.65l-.1,0v-.07a5.37,5.37,0,0,1,0-.64A5.82,5.82,0,0,0,6.7,10.8a1.91,1.91,0,0,0-.36-.87,1,1,0,0,0-.12-.16,1.49,1.49,0,0,0,.15-.2,2.17,2.17,0,0,0,.34-.87,9.44,9.44,0,0,0,.08-1.08c0-.4,0-.6,0-.72h.07a1,1,0,0,0,.65-.37,1.16,1.16,0,0,0,.23-.73A1.07,1.07,0,0,0,6.55,4.7a2,2,0,0,0-1.44.54,1.93,1.93,0,0,0-.57,1.41q0,1,0,1.32a1.62,1.62,0,0,1,0,.4.35.35,0,0,1-.07.15A2.65,2.65,0,0,1,4,8.8a1.1,1.1,0,0,0-.52,1,1,1,0,0,0,.22.7,1.92,1.92,0,0,0,.44.35,1.09,1.09,0,0,1,.25.2.63.63,0,0,1,.09.25,3.75,3.75,0,0,1,0,.46c0,.29,0,.67,0,1.15a2,2,0,0,0,.26,1,1.81,1.81,0,0,0,.73.72,2.13,2.13,0,0,0,1,.24,1.08,1.08,0,0,0,1.22-1.1A1.15,1.15,0,0,0,7.54,13,1,1,0,0,0,6.91,12.65Z"/><path class="cls-1" d="M8.41,11.17a1,1,0,0,0-.3.72,1,1,0,0,0,.33.77,1.05,1.05,0,0,0,.71.26,1,1,0,0,0,.71-.27,1,1,0,0,0,0-1.49A1,1,0,0,0,8.41,11.17Z"/><path class="cls-1" d="M11.46,11.17a1,1,0,0,0-.3.72,1,1,0,0,0,.33.77,1.05,1.05,0,0,0,.71.26,1,1,0,0,0,.71-.27,1,1,0,0,0,0-1.49A1,1,0,0,0,11.46,11.17Z"/><path class="cls-1" d="M16,11.16a1,1,0,0,0-1.46,0,1,1,0,0,0-.3.72,1,1,0,0,0,.33.77,1.05,1.05,0,0,0,.71.26,1,1,0,0,0,.71-.27,1,1,0,0,0,.31-.76A1,1,0,0,0,16,11.16Z"/><path class="cls-1" d="M19.86,8.7a1.11,1.11,0,0,1-.23-.19.44.44,0,0,1-.1-.23s0-.29-.06-1.63a1.93,1.93,0,0,0-.27-1,1.76,1.76,0,0,0-.73-.7,2.13,2.13,0,0,0-1-.24,1.06,1.06,0,0,0-1.21,1.09,1.15,1.15,0,0,0,.24.74,1,1,0,0,0,.64.36h.07s0,0,0,.06,0,.37,0,.65a7.3,7.3,0,0,0,.05.87,3.39,3.39,0,0,0,.18.73,2,2,0,0,0,.35.56,1.25,1.25,0,0,0-.15.19,2.1,2.1,0,0,0-.34.84,7.41,7.41,0,0,0-.09,1.12c0,.28,0,.49,0,.63s0,.06,0,.08h-.07a1,1,0,0,0-.78.6,1.21,1.21,0,0,0-.1.5,1,1,0,0,0,.36.83,1.29,1.29,0,0,0,.85.27,2,2,0,0,0,1.44-.54,1.94,1.94,0,0,0,.58-1.42c0-.46,0-.84,0-1.15a4.06,4.06,0,0,1,.05-.57.27.27,0,0,1,.08-.14,2.16,2.16,0,0,1,.38-.28,1.1,1.1,0,0,0,.52-1,1.08,1.08,0,0,0-.23-.71A1.49,1.49,0,0,0,19.86,8.7Z"/></svg>