<?xml version="1.0" encoding="UTF-8"?>
<svg width="26px" height="26px" viewBox="0 0 26 26" version="1.1" xmlns="http://www.w3.org/2000/svg" xmlns:xlink="http://www.w3.org/1999/xlink">
    <!-- Generator: Sketch 55.2 (78181) - https://sketchapp.com -->
    <title>Icon/arrow down Copy 5</title>
    <desc>Created with Sketch.</desc>
    <defs>
        <path d="M12.24,1.76 L6,8 L-4.53859172e-13,2 L1.5,0.5 L6,5 L10.68,0.32 L12.24,1.76 Z" id="path-1"></path>
        <path d="M12.24,1.76 L6,8 L-4.53859172e-13,2 L1.5,0.5 L6,5 L10.68,0.32 L12.24,1.76 Z" id="path-3"></path>
        <path d="M12.24,1.76 L6,8 L-4.53859172e-13,2 L1.5,0.5 L6,5 L10.68,0.32 L12.24,1.76 Z" id="path-5"></path>
        <path d="M12.24,1.76 L6,8 L-4.53859172e-13,2 L1.5,0.5 L6,5 L10.68,0.32 L12.24,1.76 Z" id="path-7"></path>
    </defs>
    <g id="Icon/arrow-down-Copy-5" stroke="none" stroke-width="1" fill="none" fill-rule="evenodd">
        <g id="Group" transform="translate(13.000000, 13.500000) scale(-1, 1) translate(-13.000000, -13.500000) translate(5.500000, 6.500000)">
            <g id="Icon/arrow-down-Copy-2" transform="translate(4.500000, 7.000000) rotate(-270.000000) translate(-4.500000, -7.000000) translate(-2.000000, 3.000000)">
                <mask id="mask-2" fill="white">
                    <use xlink:href="#path-1"></use>
                </mask>
                <use id="Mask" fill="#FFFFFF" xlink:href="#path-1"></use>
                <g id="Mixin/Fill/Primary/Medium-Blue" mask="url(#mask-2)" fill="#1973B8">
                    <g transform="translate(-7.000000, -9.000000)" id="Rectangle">
                        <rect x="0" y="0" width="26" height="26"></rect>
                    </g>
                </g>
            </g>
            <g id="Icon/arrow-down-Copy-2" transform="translate(10.500000, 7.000000) rotate(-270.000000) translate(-10.500000, -7.000000) translate(4.000000, 3.000000)">
                <mask id="mask-4" fill="white">
                    <use xlink:href="#path-3"></use>
                </mask>
                <use id="Mask" fill="#FFFFFF" xlink:href="#path-3"></use>
                <g id="Mixin/Fill/Primary/Medium-Blue" mask="url(#mask-4)" fill="#1973B8">
                    <g transform="translate(-7.000000, -9.000000)" id="Rectangle">
                        <rect x="0" y="0" width="26" height="26"></rect>
                    </g>
                </g>
            </g>
        </g>
        <g id="Group-Copy" transform="translate(13.000000, 13.500000) scale(-1, 1) translate(-13.000000, -13.500000) translate(5.500000, 6.500000)">
            <g id="Icon/arrow-down-Copy-2" transform="translate(4.500000, 7.000000) rotate(-270.000000) translate(-4.500000, -7.000000) translate(-2.000000, 3.000000)">
                <mask id="mask-6" fill="white">
                    <use xlink:href="#path-5"></use>
                </mask>
                <use id="Mask" fill="#FFFFFF" xlink:href="#path-5"></use>
                <g id="Mixin/Fill/Primary/Medium-Blue" mask="url(#mask-6)" fill="#BDBDBD">
                    <g transform="translate(-7.000000, -9.000000)" id="Rectangle">
                        <rect x="0" y="0" width="26" height="26"></rect>
                    </g>
                </g>
            </g>
            <g id="Icon/arrow-down-Copy-2" transform="translate(10.500000, 7.000000) rotate(-270.000000) translate(-10.500000, -7.000000) translate(4.000000, 3.000000)">
                <mask id="mask-8" fill="white">
                    <use xlink:href="#path-7"></use>
                </mask>
                <use id="Mask" fill="#FFFFFF" xlink:href="#path-7"></use>
                <g id="Mixin/Fill/Primary/Medium-Blue" mask="url(#mask-8)" fill="#BDBDBD">
                    <g transform="translate(-7.000000, -9.000000)" id="Rectangle">
                        <rect x="0" y="0" width="26" height="26"></rect>
                    </g>
                </g>
            </g>
        </g>
    </g>
</svg>