<svg id="Capa_1" data-name="Capa 1" xmlns="http://www.w3.org/2000/svg" viewBox="0 0 24 24"><defs><style>.cls-1{fill:#fff;}</style></defs><title>big_data_w</title><path class="cls-1" d="M8.14,9.87v4.29c0,1.28,2.08,1.74,3.87,1.74s3.88-.46,3.88-1.74V9.87c0-1.29-2.09-1.75-3.88-1.75S8.14,8.58,8.14,9.87Zm1.45,3.54a8,8,0,0,0,2.42.33,8.88,8.88,0,0,0,2.42-.31V14a5.24,5.24,0,0,1-2.42.44A5.84,5.84,0,0,1,9.59,14Zm4.84-2.12v.57a5.38,5.38,0,0,1-2.42.43,5.84,5.84,0,0,1-2.42-.41v-.6A9.45,9.45,0,0,0,14.43,11.29ZM9.93,9.86A6.51,6.51,0,0,1,12,9.58a6.67,6.67,0,0,1,2.08.28,6.59,6.59,0,0,1-2.08.27A6.85,6.85,0,0,1,9.93,9.86Z"/><path class="cls-1" d="M11.27,4.37V6.29a.74.74,0,1,0,1.48,0V4.37a2.21,2.21,0,1,0-1.48,0Zm0-2.07A.73.73,0,1,1,12,3,.73.73,0,0,1,11.28,2.3Z"/><path class="cls-1" d="M5.15,7.35a2.19,2.19,0,0,0,.94-.21L7.45,8.5a.72.72,0,0,0,1,0,.73.73,0,0,0,0-1L7.13,6.1a2.18,2.18,0,0,0,.21-.93,2.21,2.21,0,1,0-4.42,0A2.24,2.24,0,0,0,5.15,7.35ZM4.42,5.14a.73.73,0,1,1,.73.73A.73.73,0,0,1,4.42,5.14Z"/><path class="cls-1" d="M4.38,12.74H6.31a.74.74,0,0,0,0-1.48H4.38a2.2,2.2,0,1,0-2.07,3A2.17,2.17,0,0,0,4.38,12.74ZM3.07,12a.73.73,0,1,1-.73-.73A.73.73,0,0,1,3.07,12Z"/><path class="cls-1" d="M8,15.3a.67.67,0,0,0-.48.23L6.11,16.89a2.15,2.15,0,0,0-.93-.22,2.21,2.21,0,1,0,2.21,2.21A2.14,2.14,0,0,0,7.18,18l1.36-1.36a.73.73,0,0,0,0-1A.92.92,0,0,0,8,15.3ZM5.88,18.86a.72.72,0,0,1-.73.73.73.73,0,1,1,.73-.73Z"/><path class="cls-1" d="M12.75,19.63V17.71a.74.74,0,0,0-1.48,0v1.92a2.2,2.2,0,1,0,3,2.07A2.17,2.17,0,0,0,12.75,19.63Zm0,2.07A.73.73,0,1,1,12,21,.73.73,0,0,1,12.74,21.7Z"/><path class="cls-1" d="M18.87,16.65a2.11,2.11,0,0,0-.93.21L16.57,15.5a.74.74,0,0,0-1,1L16.9,17.9a2.18,2.18,0,0,0-.21.93,2.21,2.21,0,1,0,4.41,0A2.27,2.27,0,0,0,18.87,16.65Zm.73,2.21a.73.73,0,1,1-.73-.73A.73.73,0,0,1,19.6,18.86Z"/><path class="cls-1" d="M21.69,9.79a2.21,2.21,0,0,0-2.07,1.47H17.69a.74.74,0,0,0,0,1.48h1.93a2.2,2.2,0,1,0,2.07-3ZM22.42,12a.72.72,0,0,1-.73.73.73.73,0,1,1,.73-.73Z"/><path class="cls-1" d="M16,8.7a.74.74,0,0,0,.52-.22l1.36-1.37a2.2,2.2,0,1,0-1.27-2,2.14,2.14,0,0,0,.21.93L15.49,7.41a.77.77,0,0,0-.23.52.73.73,0,0,0,.22.52A.76.76,0,0,0,16,8.7Zm2.84-2.83a.73.73,0,0,1-.73-.73.72.72,0,0,1,.73-.73.73.73,0,1,1,0,1.46Z"/></svg>