<svg id="Capa_1" data-name="Capa 1" xmlns="http://www.w3.org/2000/svg" viewBox="0 0 24 24"><defs><style>.cls-1{fill:#1973b8;}</style></defs><title>recursos_b</title><path class="cls-1" d="M11.09,18.9H6.37A2.77,2.77,0,0,0,4.7,17.24v-2a.91.91,0,1,0-1.82,0v2a2.73,2.73,0,1,0,3.49,3.49h4.72a.92.92,0,0,0,0-1.83Zm-7.3,1.83a.92.92,0,1,1,.91-.91A.91.91,0,0,1,3.79,20.73Z"/><path class="cls-1" d="M19.3,6.88v5.64a.91.91,0,1,0,1.82,0V6.88A2.73,2.73,0,1,0,17.63,3.4H12.91a.91.91,0,0,0,0,1.82h4.72A2.72,2.72,0,0,0,19.3,6.88Zm.91-3.48a.91.91,0,1,1-.91.91A.91.91,0,0,1,20.21,3.4Z"/><path class="cls-1" d="M6.85,11.19H3.25A3.12,3.12,0,0,1,.13,8.07V3.77A3.12,3.12,0,0,1,3.25.65h3.6A3.12,3.12,0,0,1,10,3.77v4.3A3.12,3.12,0,0,1,6.85,11.19ZM3.25,2.48A1.29,1.29,0,0,0,2,3.77v4.3A1.29,1.29,0,0,0,3.25,9.36h3.6A1.29,1.29,0,0,0,8.14,8.07V3.77A1.29,1.29,0,0,0,6.85,2.48Z"/><path class="cls-1" d="M20.77,23.72H17.13a3.1,3.1,0,0,1-3.1-3.1V18.16a3.1,3.1,0,0,1,3.1-3.1h3.64a3.1,3.1,0,0,1,3.1,3.1v2.46A3.1,3.1,0,0,1,20.77,23.72Zm-3.64-6.83a1.27,1.27,0,0,0-1.27,1.27v2.46a1.27,1.27,0,0,0,1.27,1.27h3.64A1.27,1.27,0,0,0,22,20.62V18.16a1.27,1.27,0,0,0-1.27-1.27Z"/></svg>