<?xml version="1.0" encoding="UTF-8"?>
<svg width="24px" height="23px" viewBox="0 0 24 23" version="1.1" xmlns="http://www.w3.org/2000/svg" xmlns:xlink="http://www.w3.org/1999/xlink">
    <!-- Generator: Sketch 55.2 (78181) - https://sketchapp.com -->
    <title>Icons/Alerts/Warning</title>
    <desc>Created with Sketch.</desc>
    <defs>
        <path d="M13.6126981,1.46083756 L24.8702597,22.8883376 C25.2086038,23.5023376 24.862669,23.9999376 24.0960086,23.9999376 L1.90404823,23.9999376 C1.13816924,23.9999376 0.791006488,23.5031376 1.12990878,22.8883376 L12.3874703,1.46083756 C12.7257029,0.846837562 13.2739075,0.845937562 13.6126981,1.46083756 Z M14.000017,15.9999876 L14.000017,9.99998756 L12.000017,7.99998756 L12.000017,15.9999876 L14.000017,15.9999876 Z M13.000017,17.9999876 C12.1715899,17.9999876 11.500017,18.6715604 11.500017,19.4999876 C11.500017,20.3284147 12.1715899,20.9999876 13.000017,20.9999876 C13.8284441,20.9999876 14.500017,20.3284147 14.500017,19.4999876 C14.500017,18.6715604 13.8284441,17.9999876 13.000017,17.9999876 Z" id="path-1"></path>
    </defs>
    <g id="Producto" stroke="none" stroke-width="1" fill="none" fill-rule="evenodd">
        <g id="02_A2_Error" transform="translate(-628.000000, -150.000000)">
            <g id="Group-4" transform="translate(627.000000, 149.000000)">
                <g id="Group-2">
                    <g id="Icons/Alerts/Warning">
                        <polygon id="Bounding-Box" points="0 0 26 0 26 26 0 26"></polygon>
                        <mask id="mask-2" fill="white">
                            <use xlink:href="#path-1"></use>
                        </mask>
                        <use id="Mask" fill="#FFFFFF" fill-rule="evenodd" xlink:href="#path-1"></use>
                        <g id="Mixin/Fill/Primary/Medium-Blue" mask="url(#mask-2)" fill="#F35E61" fill-rule="evenodd">
                            <rect id="Rectangle" x="0" y="0" width="26" height="26"></rect>
                        </g>
                    </g>
                </g>
            </g>
        </g>
    </g>
</svg>