<?xml version="1.0" encoding="UTF-8"?>
<svg width="45px" height="43px" viewBox="0 0 45 43" version="1.1" xmlns="http://www.w3.org/2000/svg" xmlns:xlink="http://www.w3.org/1999/xlink">
    <!-- Generator: Sketch 55.2 (78181) - https://sketchapp.com -->
    <title>Alerta_47x47</title>
    <desc>Created with Sketch.</desc>
    <defs>
        <path d="M24.6075697,2.64074482 L44.9577771,41.3750717 C45.5693992,42.4849948 44.9440555,43.3845025 43.5581694,43.3845025 L3.44193333,43.3845025 C2.05745978,43.3845025 1.42989634,42.486441 2.0425274,41.3750717 L22.3927349,2.64074482 C23.0041552,1.53082175 23.9951404,1.52919482 24.6075697,2.64074482 Z M25.3077231,28.9230544 L25.3077231,18.0769006 L21.6923384,14.461516 L21.6923384,28.9230544 L25.3077231,28.9230544 Z M23.5000308,32.5384391 C22.0024894,32.5384391 20.7884923,33.7524362 20.7884923,35.2499775 C20.7884923,36.7475189 22.0024894,37.961516 23.5000308,37.961516 C24.9975721,37.961516 26.2115692,36.7475189 26.2115692,35.2499775 C26.2115692,33.7524362 24.9975721,32.5384391 23.5000308,32.5384391 Z" id="path-1"></path>
    </defs>
    <g id="Producto" stroke="none" stroke-width="1" fill="none" fill-rule="evenodd">
        <g id="02_E_Configuración-ADVERTENCIA" transform="translate(-407.000000, -303.000000)">
            <g id="Group-7" transform="translate(406.000000, 299.000000)">
                <g id="Icons/Alerts/Warning" transform="translate(0.000000, 3.000000)">
                    <polygon id="Bounding-Box" points="0 0 47 0 47 47 0 47"></polygon>
                    <mask id="mask-2" fill="white">
                        <use xlink:href="#path-1"></use>
                    </mask>
                    <use id="Mask" fill="#FFFFFF" fill-rule="evenodd" xlink:href="#path-1"></use>
                    <g id="Mixin/Fill/Primary/Medium-Blue" mask="url(#mask-2)" fill="#DA3851" fill-rule="evenodd">
                        <rect id="Rectangle" x="0" y="0" width="47" height="47"></rect>
                    </g>
                </g>
            </g>
        </g>
    </g>
</svg>