<?xml version="1.0" encoding="UTF-8"?>
<svg width="21px" height="24px" viewBox="0 0 21 24" version="1.1" xmlns="http://www.w3.org/2000/svg" xmlns:xlink="http://www.w3.org/1999/xlink">
    <!-- Generator: Sketch 55.2 (78181) - https://sketchapp.com -->
    <title>Group 7</title>
    <desc>Created with Sketch.</desc>
    <defs>
        <path d="M10.6296296,6.35416667 L10.6678365,6.35416667 C11.2194752,6.35416667 11.6666667,6.80838276 11.6666667,7.35379324 L11.6666667,13.3753734 C11.6666667,13.9274519 11.2165006,14.375 10.6678365,14.375 L3.33216349,14.375 C2.78052483,14.375 2.33333333,13.9207839 2.33333333,13.3753734 L2.33333333,7.35379324 C2.33333333,6.80171473 2.7834994,6.35416667 3.33216349,6.35416667 L3.37037037,6.35416667 L3.37037037,4.25373727 C3.37037037,2.24964101 4.99948984,0.625 7,0.625 C9.00458909,0.625 10.6296296,2.2469711 10.6296296,4.25373727 L10.6296296,6.35416667 Z M9.59259259,6.35416667 L9.59259259,4.37311252 C9.59259259,2.93376203 8.43184935,1.77083333 7,1.77083333 C5.55816806,1.77083333 4.40740741,2.93591341 4.40740741,4.37311252 L4.40740741,6.35416667 L9.59259259,6.35416667 Z M4.92592593,9.79166667 L4.92592593,10.9375 L8.03703704,10.9375 L9.07407407,9.79166667 L4.92592593,9.79166667 Z" id="path-1"></path>
    </defs>
    <g id="Drafts" stroke="none" stroke-width="1" fill="none" fill-rule="evenodd">
        <g id="Artboard-Copy" transform="translate(-220.000000, -761.000000)">
            <g id="Group-7" transform="translate(220.000000, 761.000000)">
                <g id="Group-6-Copy" transform="translate(0.000000, 15.652174)" fill="#1973B8" fill-rule="nonzero">
                    <g id="Group-5">
                        <path d="M0.597158058,3.58661447 C0.294082302,3.40173039 0.0831338436,3.08681869 0.0197733317,2.72467309 C-0.0435871802,2.36252748 0.0469796859,1.98938184 0.267662914,1.70334024 C0.645419083,1.28898203 1.22726075,1.16231158 1.73062135,1.38484533 L5.53958522,2.97731986 C5.63051912,3.02159184 5.72932722,3.04518605 5.82954095,3.04655789 L9.41444812,3.04655789 C9.61826028,3.04655789 9.78348268,2.87296394 9.78348268,2.65882496 C9.78354904,2.55721785 9.74425354,2.45995833 9.67463946,2.38942921 C9.60502537,2.31890009 9.51108891,2.28117638 9.41444812,2.28493963 L7.60881473,2.28493963 C7.07341219,2.30315485 6.59735112,1.92945544 6.46217163,1.38484533 C6.3895671,1.04592948 6.46861773,0.690741022 6.67673077,0.420793135 C6.88484382,0.150845248 7.1991189,-0.00415748213 7.5297359,8.48683827e-05 L13.7110648,8.48683827e-05 L15.9911712,1.20482647 L15.9911712,6.95158239 C16.0029429,6.97300471 16.0029429,6.99939809 15.9911712,7.02082041 L9.22993084,8.32249525 C8.87347546,8.3883634 8.50629692,8.32488014 8.18872618,8.14247639 L0.597158058,3.58661447 Z" id="Path"></path>
                        <path d="M17,1.8245123 L17,6.52331379 C17,6.95466697 17.4022829,7.30434783 17.898524,7.30434783 L20.1158494,7.30434783 C20.3528418,7.30434783 20.5799232,7.22168848 20.7461343,7.0748425 C20.9123453,6.92799652 21.0037662,6.72928972 20.999881,6.52331379 L20.999881,1.8245123 C21.0037662,1.61853637 20.9123453,1.41982957 20.7461343,1.27298359 C20.5799232,1.12613761 20.3528418,1.04347826 20.1158494,1.04347826 L17.898524,1.04347826 C17.6602206,1.04347826 17.4316775,1.12576555 17.2631716,1.27223784 C17.0946656,1.41871013 17,1.61736919 17,1.8245123 L17,1.8245123 Z M18.9274789,2.2654186 C19.3808296,2.25809903 19.7591509,2.56465637 19.7825259,2.95827137 L19.7825259,2.95827137 C19.7904591,3.36170811 19.420667,3.69435923 18.9565425,3.70129503 C18.4924181,3.70823083 18.10969,3.38682525 18.1016649,2.98338988 C18.0936398,2.57995452 18.4633561,2.24723971 18.9274789,2.24022396 L18.9274789,2.2654186 Z" id="Shape"></path>
                    </g>
                </g>
                <g id="Security/Lock" transform="translate(3.000000, 0.000000)">
                    <polygon id="Bounding-Box" points="0.538461538 0.576923077 13.4615385 0.576923077 13.4615385 14.4230769 0.538461538 14.4230769"></polygon>
                    <mask id="mask-2" fill="white">
                        <use xlink:href="#path-1"></use>
                    </mask>
                    <use id="Mask" fill="#FFFFFF" fill-rule="evenodd" xlink:href="#path-1"></use>
                    <g id="Primary/Medium-Blue/Medium-Blue" mask="url(#mask-2)" fill="#1973B8" fill-rule="evenodd">
                        <rect id="Rectangle" x="0" y="0" width="14" height="15"></rect>
                    </g>
                </g>
            </g>
        </g>
    </g>
</svg>