<?xml version="1.0" encoding="UTF-8"?>
<svg width="50px" height="43px" viewBox="0 0 50 43" version="1.1" xmlns="http://www.w3.org/2000/svg" xmlns:xlink="http://www.w3.org/1999/xlink">
    <!-- Generator: Sketch 55.2 (78181) - https://sketchapp.com -->
    <title>Group 22</title>
    <desc>Created with Sketch.</desc>
    <defs>
        <polygon id="path-1" points="0 -0.000107594937 49.4569022 -0.000107594937 49.4569022 39.810019 0 39.810019"></polygon>
        <polygon id="path-3" points="0 0.329509494 49.4569022 0.329509494 49.4569022 40.1396361 0 40.1396361"></polygon>
        <path d="M3.26195652,0.3332 C1.46847826,0.3332 0,1.80428889 0,3.59877778 L0,3.59877778 L0,37.3543333 C0,39.1515444 1.46847826,40.6226333 3.26195652,40.6226333 L3.26195652,40.6226333 L46.1967391,40.6226333 C47.9891304,40.6226333 49.4570652,39.1515444 49.4570652,37.3543333 L49.4570652,37.3543333 L49.4570652,3.59877778 C49.4570652,1.80428889 47.9891304,0.3332 46.1967391,0.3332 L46.1967391,0.3332" id="path-5"></path>
    </defs>
    <g id="Producto" stroke="none" stroke-width="1" fill="none" fill-rule="evenodd">
        <g id="00_A_home-(1)" transform="translate(-860.000000, -511.000000)">
            <g id="Group-27-Copy" transform="translate(591.000000, 419.000000)">
                <g id="Group-14" transform="translate(269.000000, 92.000000)">
                    <g id="Group-22" transform="translate(0.000000, 0.000000)">
                        <g id="Group-7">
                            <g id="Group-3" transform="translate(0.000000, 2.689873)">
                                <mask id="mask-2" fill="white">
                                    <use xlink:href="#path-1"></use>
                                </mask>
                                <g id="Clip-2"></g>
                                <path d="M46.1971196,39.810019 L3.26179348,39.810019 C1.46831522,39.810019 -0.000163043478,38.3585633 -0.000163043478,36.5827089 L-0.000163043478,3.22881646 C-0.000163043478,1.45296203 1.46831522,-0.000107594937 3.26179348,-0.000107594937 L46.1971196,-0.000107594937 C47.9889674,-0.000107594937 49.4569022,1.45296203 49.4569022,3.22881646 L49.4569022,36.5827089 C49.4569022,38.3585633 47.9889674,39.810019 46.1971196,39.810019" id="Fill-1" fill="#FF7E8F" mask="url(#mask-2)"></path>
                            </g>
                            <g id="Group-6">
                                <mask id="mask-4" fill="white">
                                    <use xlink:href="#path-3"></use>
                                </mask>
                                <g id="Clip-5"></g>
                                <path d="M46.1971196,40.1396361 L3.26179348,40.1396361 C1.46831522,40.1396361 -0.000163043478,38.6860285 -0.000163043478,36.910712 L-0.000163043478,3.55628165 C-0.000163043478,1.78257911 1.46831522,0.329509494 3.26179348,0.329509494 L46.1971196,0.329509494 C47.9889674,0.329509494 49.4569022,1.78257911 49.4569022,3.55628165 L49.4569022,36.910712 C49.4569022,38.6860285 47.9889674,40.1396361 46.1971196,40.1396361" id="Fill-4" fill="#004283" mask="url(#mask-4)"></path>
                            </g>
                        </g>
                        <g id="Group-10">
                            <mask id="mask-6" fill="white">
                                <use xlink:href="#path-5"></use>
                            </mask>
                            <g id="Clip-9"></g>
                            <path d="M46.1971196,0.333254444 L45.28625,0.333254444 L5.87375,40.6221433 L46.1971196,40.6221433 C47.9889674,40.6221433 49.4569022,39.1515989 49.4569022,37.3549322 L49.4569022,3.59937667 C49.4569022,1.80379889 47.9889674,0.333254444 46.1971196,0.333254444" id="Fill-8" fill="#3C4F9A" mask="url(#mask-6)"></path>
                        </g>
                        <g id="Group-21" transform="translate(10.833333, 4.166667)">
                            <path d="M1.54210979,25.6700337 C1.26443783,25.6700337 0.987308201,25.5628528 0.775257937,25.3479415 C0.351699735,24.9186684 0.351699735,24.2228174 0.775257937,23.7935443 L7.54893519,16.9284734 L0.753564815,10.040867 C0.330006614,9.61214362 0.330006614,8.91574291 0.753564815,8.48646986 C1.17712302,8.05719681 1.86371032,8.05719681 2.28726852,8.48646986 L9.84949074,16.1512748 C10.2735913,16.5799982 10.2735913,17.2763989 9.84949074,17.705672 L2.30896164,25.3479415 C2.09691138,25.5628528 1.81978175,25.6700337 1.54210979,25.6700337" id="Fill-11" fill="#FFFFFF"></path>
                            <path d="M24.5391508,25.6700337 L11.7873915,25.6700337 C11.1886614,25.6700337 10.7027354,25.1775514 10.7027354,24.5707429 C10.7027354,23.9639344 11.1886614,23.4714521 11.7873915,23.4714521 L24.5391508,23.4714521 C25.137881,23.4714521 25.6238069,23.9639344 25.6238069,24.5707429 C25.6238069,25.1775514 25.137881,25.6700337 24.5391508,25.6700337" id="Fill-13" fill="#FFFFFF"></path>
                            <path d="M29.3120714,1.44347872 C29.3120714,2.24046454 28.6742937,2.88629787 27.8884603,2.88629787 C27.1020847,2.88629787 26.4648492,2.24046454 26.4648492,1.44347872 C26.4648492,0.646492908 27.1020847,0.000659574468 27.8884603,0.000659574468 C28.6742937,0.000659574468 29.3120714,0.646492908 29.3120714,1.44347872" id="Fill-15" fill="#FFDE8A"></path>
                            <path d="M33.8503267,1.44347872 C33.8503267,2.24046454 33.2130913,2.88629787 32.4267156,2.88629787 C31.6408823,2.88629787 31.0031045,2.24046454 31.0031045,1.44347872 C31.0031045,0.646492908 31.6408823,0.000659574468 32.4267156,0.000659574468 C33.2130913,0.000659574468 33.8503267,0.646492908 33.8503267,1.44347872" id="Fill-17" fill="#FF7E8F"></path>
                            <path d="M24.7732196,1.44347872 C24.7732196,2.24046454 24.1359841,2.88629787 23.3496085,2.88629787 C22.5632328,2.88629787 21.9259974,2.24046454 21.9259974,1.44347872 C21.9259974,0.646492908 22.5632328,0.000659574468 23.3496085,0.000659574468 C24.1359841,0.000659574468 24.7732196,0.646492908 24.7732196,1.44347872" id="Fill-19" fill="#5ECA98"></path>
                        </g>
                    </g>
                </g>
            </g>
        </g>
    </g>
</svg>