<?xml version="1.0" encoding="UTF-8"?>
<svg width="6px" height="22px" viewBox="0 0 6 22" version="1.1" xmlns="http://www.w3.org/2000/svg" xmlns:xlink="http://www.w3.org/1999/xlink">
    <!-- Generator: Sketch 55.2 (78181) - https://sketchapp.com -->
    <title>Navigation/Configuration</title>
    <desc>Created with Sketch.</desc>
    <defs>
        <path d="M11.75,6.5 C13.2691,6.5 14.5,5.2691 14.5,3.75 C14.5,2.2309 13.2691,1 11.75,1 C10.2309,1 9,2.2309 9,3.75 C9,5.2691 10.2309,6.5 11.75,6.5 M11.75,9.25 C10.2309,9.25 9,10.4809 9,12 C9,13.5191 10.2309,14.75 11.75,14.75 C13.2691,14.75 14.5,13.5191 14.5,12 C14.5,10.4809 13.2691,9.25 11.75,9.25 M11.75,17.5 C10.2309,17.5 9,18.7309 9,20.25 C9,21.7691 10.2309,23 11.75,23 C13.2691,23 14.5,21.7691 14.5,20.25 C14.5,18.7309 13.2691,17.5 11.75,17.5" id="path-1"></path>
    </defs>
    <g id="Producto" stroke="none" stroke-width="1" fill="none" fill-rule="evenodd">
        <g id="02_D2_Actividad" transform="translate(-1213.000000, -516.000000)">
            <g id="Group-3" transform="translate(292.000000, 460.000000)">
                <g id="Navigation/Configuration" transform="translate(912.000000, 55.000000)">
                    <polygon id="Bounding-Box" points="0 0 24 0 24 24 0 24"></polygon>
                    <mask id="mask-2" fill="white">
                        <use xlink:href="#path-1"></use>
                    </mask>
                    <use id="Mask" fill="#FFFFFF" fill-rule="evenodd" xlink:href="#path-1"></use>
                    <g id="Primary/Medium-Blue/Medium-Blue" mask="url(#mask-2)" fill="#1973B8" fill-rule="evenodd">
                        <rect id="Rectangle" x="0" y="0" width="24" height="24"></rect>
                    </g>
                </g>
            </g>
        </g>
    </g>
</svg>