<svg id="Capa_1" data-name="Capa 1" xmlns="http://www.w3.org/2000/svg" viewBox="0 0 21 24"><defs><style>.cls-1{fill:#fff;}</style></defs><title>Mesa de trabajo 1</title><g id="Drafts"><g id="Artboard"><g id="Group-6"><g id="Group-5"><path id="Path" class="cls-1" d="M.6,19a1.28,1.28,0,0,1-.58-.9,1.44,1.44,0,0,1,.25-1.07,1.24,1.24,0,0,1,1.46-.33l3.81,1.67a.73.73,0,0,0,.29.07H9.41a.39.39,0,0,0,.37-.41.41.41,0,0,0-.11-.28.35.35,0,0,0-.26-.11H7.61a1.17,1.17,0,0,1-1.15-.94,1.29,1.29,0,0,1,.22-1,1,1,0,0,1,.85-.44h6.18L16,16.53v6a.09.09,0,0,1,0,.07L9.23,24a1.46,1.46,0,0,1-1-.18Z"/><path id="Shape" class="cls-1" d="M17,17.18v4.91a.86.86,0,0,0,.9.82h2.22a1,1,0,0,0,.63-.24.79.79,0,0,0,.25-.58V17.18a.81.81,0,0,0-.25-.58,1,1,0,0,0-.63-.24H17.9a1,1,0,0,0-.64.24.78.78,0,0,0-.26.58Zm1.93.46a.8.8,0,0,1,.85.73h0a.79.79,0,0,1-.82.77.77.77,0,1,1,0-1.53Z"/></g><g id="API_b" data-name="API b"><path class="cls-1" d="M16.17,0H6.8A1.69,1.69,0,0,0,5.55.53,2,2,0,0,0,5,1.87V9.66a1.84,1.84,0,0,0,1.8,1.87h.71v2a.7.7,0,0,0,.36.6.55.55,0,0,0,.28.06.64.64,0,0,0,.38-.12l3.08-2.55h4.56A1.83,1.83,0,0,0,18,9.66V1.87A2,2,0,0,0,17.44.52,1.68,1.68,0,0,0,16.17,0Zm.54,9.65a.5.5,0,0,1-.51.5H11.38a.64.64,0,0,0-.38.12L8.79,12.09V10.83a.67.67,0,0,0-.64-.68H6.8A.48.48,0,0,1,6.43,10a.6.6,0,0,1-.17-.38V1.9a.56.56,0,0,1,.17-.38.48.48,0,0,1,.37-.13h9.4a.53.53,0,0,1,.51.51Z"/><path class="cls-1" d="M8.61,7.29h0V6.84a4.4,4.4,0,0,0-.05-.73,1.41,1.41,0,0,0-.17-.56.54.54,0,0,0-.05-.11l.07-.12a2,2,0,0,0,.16-.56c0-.23,0-.47,0-.7V3.6h0a.44.44,0,0,0,.3-.24A.91.91,0,0,0,9,2.89a.86.86,0,0,0-.16-.53.42.42,0,0,0-.4-.17.79.79,0,0,0-.67.34,1.46,1.46,0,0,0-.27.91v.85a1,1,0,0,1,0,.25l0,.1a1.74,1.74,0,0,1-.22.18A.78.78,0,0,0,7,5.46a.81.81,0,0,0,.1.45.93.93,0,0,0,.21.23.77.77,0,0,1,.12.13.75.75,0,0,1,0,.16v1a1.66,1.66,0,0,0,.12.64,1.12,1.12,0,0,0,.34.47.84.84,0,0,0,.47.15.43.43,0,0,0,.41-.17A.87.87,0,0,0,9,8a1,1,0,0,0-.07-.49A.51.51,0,0,0,8.61,7.29Z"/><path class="cls-1" d="M9.14,6.71A.57.57,0,0,0,9,7.09a.54.54,0,0,0,.16.41.48.48,0,0,0,.34.14.45.45,0,0,0,.34-.15.56.56,0,0,0,0-.78.42.42,0,0,0-.35-.16A.48.48,0,0,0,9.14,6.71Z"/><path class="cls-1" d="M11.14,6.71a.57.57,0,0,0-.14.38.54.54,0,0,0,.16.41.48.48,0,0,0,.34.14.45.45,0,0,0,.34-.15.56.56,0,0,0,0-.78.42.42,0,0,0-.35-.16A.48.48,0,0,0,11.14,6.71Z"/><path class="cls-1" d="M13.85,6.71a.46.46,0,0,0-.7,0,.54.54,0,0,0-.15.38.54.54,0,0,0,.16.41.51.51,0,0,0,.34.14.47.47,0,0,0,.35-.15.57.57,0,0,0,.15-.4A.54.54,0,0,0,13.85,6.71Z"/><path class="cls-1" d="M15.69,4.77a.69.69,0,0,1-.11-.13.58.58,0,0,1-.05-.14s0-.19,0-1.06a1.66,1.66,0,0,0-.13-.64A1.09,1.09,0,0,0,15,2.34a.84.84,0,0,0-.47-.15.41.41,0,0,0-.41.17.9.9,0,0,0-.16.53,1.06,1.06,0,0,0,.11.48.47.47,0,0,0,.3.23h0v.46a5.15,5.15,0,0,0,0,.56,3.7,3.7,0,0,0,.08.48,1.49,1.49,0,0,0,.17.36.75.75,0,0,0-.07.12,1.61,1.61,0,0,0-.16.54,5.85,5.85,0,0,0,0,.73v.46h0a.5.5,0,0,0-.36.38A1.14,1.14,0,0,0,14,8a.74.74,0,0,0,.17.53.5.5,0,0,0,.4.18.82.82,0,0,0,.67-.35,1.57,1.57,0,0,0,.28-.92V6.72c0-.13,0-.25,0-.37a.13.13,0,0,1,0-.09.77.77,0,0,1,.18-.18A.83.83,0,0,0,16,5.43.9.9,0,0,0,15.89,5,.76.76,0,0,0,15.69,4.77Z"/></g></g></g></g></svg>