<?xml version="1.0" encoding="UTF-8"?>
<svg width="16px" height="22px" viewBox="0 0 16 22" version="1.1" xmlns="http://www.w3.org/2000/svg" xmlns:xlink="http://www.w3.org/1999/xlink">
    <!-- Generator: Sketch 55.2 (78181) - https://sketchapp.com -->
    <title>Navigation/Settings Copy 22</title>
    <desc>Created with Sketch.</desc>
    <defs>
        <path d="M12,1 L12,9.25 L15.6810979,9.25 L17.3333333,7.48293173 L13.6522354,7.48293173 L13.6522354,1 L14.6666667,1 L20,6.5 L20,21.9926891 C20,22.5490115 19.5553691,23 18.9991283,23 L5.00087166,23 C4.4481055,23 4,22.5605417 4,21.9975383 L4,2.00246167 C4,1.44881738 4.44475317,1 5.0034941,1 L12,1 Z" id="path-1"></path>
    </defs>
    <g id="Producto" stroke="none" stroke-width="1" fill="none" fill-rule="evenodd">
        <g id="03_E_Versiones-de-release-2" transform="translate(-330.000000, -949.000000)">
            <g id="Group-43" transform="translate(326.000000, 948.000000)">
                <g id="Documents/Document-Simple" transform="translate(12.000000, 12.000000) rotate(-360.000000) translate(-12.000000, -12.000000) ">
                    <polygon id="Bounding-Box" points="0 0 24 0 24 24 0 24"></polygon>
                    <mask id="mask-2" fill="white">
                        <use xlink:href="#path-1"></use>
                    </mask>
                    <use id="Mask" fill="#FFFFFF" fill-rule="evenodd" xlink:href="#path-1"></use>
                    <g id="Primary/Medium-Blue/Medium-Blue" mask="url(#mask-2)" fill="#FFFFFF" fill-rule="evenodd">
                        <rect id="Rectangle" x="0" y="0" width="24" height="24"></rect>
                    </g>
                </g>
            </g>
        </g>
    </g>
</svg>