<?xml version="1.0" encoding="UTF-8"?>
<svg width="20px" height="20px" viewBox="0 0 20 20" version="1.1" xmlns="http://www.w3.org/2000/svg" xmlns:xlink="http://www.w3.org/1999/xlink">
    <!-- Generator: Sketch 55.2 (78181) - https://sketchapp.com -->
    <title>Validations/calidad ok Copy 2</title>
    <desc>Created with Sketch.</desc>
    <g id="Validations/calidad-ok-Copy-2" stroke="none" stroke-width="1" fill="none" fill-rule="evenodd">
        <g id="quality-funds-copy-6" transform="translate(1.666667, 1.666667)" fill="#FFFFFF" fill-rule="nonzero">
            <path d="M4.79019431,9.12357452 L7.13825403,11.4872085 L11.5836563,6.73986938 L10.6757542,5.90178938 L7.13825403,9.71401372 L5.65111379,8.2483123 L4.79019431,9.12357452 Z M14.9699108,4.66659843 C15.3513233,5.28630118 16.4955608,5.59615256 16.6481258,6.29331816 C16.8006908,6.99048375 15.9615833,7.84257504 15.9615833,8.53974064 C15.9615833,9.31436908 16.8006908,10.1664604 16.6481258,10.7861631 C16.4955608,11.4833287 15.2750408,11.7931801 14.9699108,12.4128828 C14.5884983,13.0325856 14.9699108,14.1945283 14.4359333,14.7367682 C13.9019558,15.2790081 12.7577183,14.8916939 12.1474583,15.2790081 C11.5371983,15.6663223 11.2320683,16.828265 10.5455258,16.9831907 C9.85898332,17.1381163 9.01987583,16.2860251 8.33333333,16.2860251 C7.64679084,16.2860251 6.73140084,17.2155792 6.12114085,17.0606535 C5.43459835,16.9057278 5.12946835,15.6663223 4.51920836,15.3564709 C3.90894836,14.9691567 2.76471087,15.3564709 2.23073337,14.814231 C1.69675587,14.2719911 2.07816837,13.1100484 1.69675587,12.4903457 C1.31534338,11.8706429 0.171105884,11.5607916 0.0185408853,10.863626 C-0.134024114,10.1664604 0.705083381,9.31436908 0.705083381,8.61720348 C0.705083381,7.84257504 -0.134024114,6.99048375 0.0185408853,6.370781 C0.171105884,5.59615256 1.31534338,5.28630118 1.69675587,4.66659843 C2.07816837,4.04689567 1.69675587,2.88495301 2.23073337,2.3427131 C2.76471087,1.80047319 3.90894836,2.18778741 4.51920836,1.80047319 C5.12946835,1.41315897 5.35831585,0.251216307 6.04485835,0.0188277746 C6.73140084,-0.136097914 7.57050834,0.715993373 8.25705083,0.715993373 C8.94359333,0.715993373 9.85898332,-0.136097914 10.5455258,0.0188277746 C11.2320683,0.173753463 11.5371983,1.41315897 12.1474583,1.72301035 C12.7577183,2.11032457 13.9019558,1.72301035 14.4359333,2.26525026 C14.9699108,2.80749017 14.5884983,4.04689567 14.9699108,4.66659843 Z" id="Combined-Shape"></path>
        </g>
    </g>
</svg>