<?xml version="1.0" encoding="UTF-8"?>
<svg width="20px" height="20px" viewBox="0 0 20 20" version="1.1" xmlns="http://www.w3.org/2000/svg" xmlns:xlink="http://www.w3.org/1999/xlink">
    <!-- Generator: Sketch 55.2 (78181) - https://sketchapp.com -->
    <title>Validations/calidad ok</title>
    <desc>Created with Sketch.</desc>
    <g id="Validations/calidad-ok" stroke="none" stroke-width="1" fill="none" fill-rule="evenodd">
        <g id="Group" transform="translate(-1.000000, -1.000000)">
            <polygon id="Bounding-Box" points="0 0 21 0 21 21 0 21"></polygon>
            <g id="quality-funds-copy-6" transform="translate(2.000000, 2.000000)" fill-rule="nonzero">
                <path d="M16.1675037,4.79992981 C16.5794292,5.43733836 17.8152056,5.75604263 17.9799758,6.47312725 C18.144746,7.19021186 17.2385099,8.06664861 17.2385099,8.78373323 C17.2385099,9.58049391 18.144746,10.4569307 17.9799758,11.0943392 C17.8152056,11.8114238 16.4970441,12.1301281 16.1675037,12.7675366 C15.7555782,13.4049452 16.1675037,14.6000862 15.590808,15.1578187 C15.0141123,15.7155512 13.7783358,15.3171708 13.119255,15.7155512 C12.4601742,16.1139315 12.1306338,17.3090725 11.3891679,17.4684247 C10.647702,17.6277768 9.7414659,16.7513401 9,16.7513401 C8.2585341,16.7513401 7.26991291,17.7074529 6.61083211,17.5481007 C5.86936622,17.3887486 5.53982582,16.1139315 4.88074503,15.7952272 C4.22166423,15.3968469 2.98588774,15.7952272 2.40919204,15.2374948 C1.83249634,14.6797623 2.24442184,13.4846213 1.83249634,12.8472127 C1.42057085,12.2098042 0.184794355,11.8910999 0.0200241561,11.1740153 C-0.144746043,10.4569307 0.761490051,9.58049391 0.761490051,8.8634093 C0.761490051,8.06664861 -0.144746043,7.19021186 0.0200241561,6.55280331 C0.184794355,5.75604263 1.42057085,5.43733836 1.83249634,4.79992981 C2.24442184,4.16252126 1.83249634,2.96738024 2.40919204,2.40964776 C2.98588774,1.85191528 4.22166423,2.25029562 4.88074503,1.85191528 C5.53982582,1.45353494 5.78698112,0.258393916 6.52844702,0.0193657111 C7.26991291,-0.139986426 8.17614901,0.736450326 8.9176149,0.736450326 C9.6590808,0.736450326 10.647702,-0.139986426 11.3891679,0.0193657111 C12.1306338,0.178717848 12.4601742,1.45353494 13.119255,1.77223921 C13.7783358,2.17061956 15.0141123,1.77223921 15.590808,2.32997169 C16.1675037,2.88770417 15.7555782,4.16252126 16.1675037,4.79992981 Z M5.17340986,9.38424808 L7.70931435,11.8154144 L12.5103488,6.93243708 L11.5298145,6.07041194 L7.70931435,9.99155697 L6.10320289,8.48397837 L5.17340986,9.38424808 Z" id="Shape" fill="#5CB85C"></path>
                <polygon id="Path-17" fill="#FFFFFF" points="5.17340986 9.38424808 6.10320289 8.48397837 7.70931435 9.99155697 11.5298145 6.07041194 12.5103488 6.93243708 7.70931435 11.8154144"></polygon>
            </g>
        </g>
    </g>
</svg>