<?xml version="1.0" encoding="UTF-8"?>
<svg width="21px" height="23px" viewBox="0 0 21 23" version="1.1" xmlns="http://www.w3.org/2000/svg" xmlns:xlink="http://www.w3.org/1999/xlink">
    <!-- Generator: Sketch 55.2 (78181) - https://sketchapp.com -->
    <title>Group 7</title>
    <desc>Created with Sketch.</desc>
    <defs>
        <polygon id="path-1" points="0.419 5.532 1.636 6.584 4.821 3.801 4.821 10.967 6.647 12.389 6.647 3.801 9.831 6.584 11.049 5.532 5.734 0.885"></polygon>
    </defs>
    <g id="Producto" stroke="none" stroke-width="1" fill="none" fill-rule="evenodd">
        <g id="03_E_Versiones-de-release-2" transform="translate(-29.000000, -244.000000)">
            <g id="Group-7" transform="translate(29.000000, 243.000000)">
                <path d="M20.9082,12.4084 C20.9082,12.4044 20.9092,12.4004 20.9092,12.3964 C20.9012,12.1304 20.6532,11.8954 20.2882,11.8094 L13.7412,10.2604 L13.7412,11.9034 L16.3552,12.4764 L10.7152,14.2094 L5.1482,12.6864 L7.7712,11.9624 L7.7712,10.2424 L1.1792,11.8094 C0.8142,11.8964 0.5662,12.1304 0.5582,12.3954 C0.5582,12.4004 0.5592,12.4044 0.5592,12.4084 L0.5582,12.4084 L0.5582,20.7184 C0.5582,20.9794 0.7902,21.2134 1.1422,21.3084 L10.3782,23.8034 C10.4052,23.8104 10.4322,23.8144 10.4602,23.8194 C10.4862,23.8244 10.5112,23.8314 10.5372,23.8344 C10.5952,23.8424 10.6552,23.8464 10.7142,23.8464 C10.7742,23.8464 10.8342,23.8434 10.8932,23.8344 C10.9252,23.8304 10.9542,23.8224 10.9852,23.8164 C11.0102,23.8104 11.0352,23.8074 11.0592,23.8014 L11.0712,23.7974 C11.0722,23.7974 11.0732,23.7974 11.0742,23.7974 L20.3342,21.2174 C20.6812,21.1204 20.9092,20.8884 20.9092,20.6304 L20.9092,12.4084 L20.9082,12.4084 Z" id="Fill-1" fill="#0074BC"></path>
                <g id="Group-6" transform="translate(5.000000, 0.847100)">
                    <mask id="mask-2" fill="white">
                        <use xlink:href="#path-1"></use>
                    </mask>
                    <g id="Clip-4"></g>
                    <polygon id="Fill-3" fill="#FFFFFF" mask="url(#mask-2)" points="-4.55 16.579 16.019 16.579 16.019 -3.305 -4.55 -3.305"></polygon>
                    <polygon id="Fill-5" fill="#1C73B7" mask="url(#mask-2)" points="-7 17.103 17.847 17.103 17.847 -3.847 -7 -3.847"></polygon>
                </g>
            </g>
        </g>
    </g>
</svg>