<?xml version="1.0" encoding="UTF-8"?>
<svg width="22px" height="17px" viewBox="0 0 22 17" version="1.1" xmlns="http://www.w3.org/2000/svg" xmlns:xlink="http://www.w3.org/1999/xlink">
    <!-- Generator: Sketch 55.2 (78181) - https://sketchapp.com -->
    <title>Actions/Go</title>
    <desc>Created with Sketch.</desc>
    <defs>
        <path d="M1,12.25 C1,12.25 3.75,4 12,4 C20.25,4 23,12.25 23,12.25 C23,12.25 20.25,20.5 12,20.5 C3.75,20.5 1,12.25 1,12.25 Z M12,17.75 C15.0375556,17.75 17.5,15.2875013 17.5,12.25 C17.5,9.21238635 15.0375556,6.75 12,6.75 C8.96244444,6.75 6.5,9.21238635 6.5,12.25 C6.5,15.2875013 8.96244444,17.75 12,17.75 Z M12,12.2502545 L14.5713112,9.63682399 C15.2472555,10.3019521 15.6666667,11.2267945 15.6666667,12.25 C15.6666667,14.2750333 14.0250333,15.9166667 12,15.9166667 C9.97496674,15.9166667 8.33333333,14.2750333 8.33333333,12.25 C8.33333333,10.2249667 9.97496674,8.58333333 12.0091619,8.58358783 L12,12.2502545 Z" id="path-1"></path>
    </defs>
    <g id="Iniciativas" stroke="none" stroke-width="1" fill="none" fill-rule="evenodd">
        <g id="04_A_Product_Servicios" transform="translate(-1136.000000, -630.000000)">
            <g id="Actions/Show" transform="translate(1135.000000, 626.000000)">
                <polygon id="Bounding-Box" points="0 0 24 0 24 24 0 24"></polygon>
                <mask id="mask-2" fill="white">
                    <use xlink:href="#path-1"></use>
                </mask>
                <use id="Mask" fill="#FFFFFF" fill-rule="evenodd" xlink:href="#path-1"></use>
                <g id="Primary/Medium-Blue/Medium-Blue" mask="url(#mask-2)" fill="#FFFFFF" fill-rule="evenodd">
                    <rect id="Rectangle" x="0" y="0" width="24" height="24"></rect>
                </g>
            </g>
        </g>
    </g>
</svg>