<?xml version="1.0" encoding="UTF-8"?>
<svg width="22px" height="22px" viewBox="0 0 22 22" version="1.1" xmlns="http://www.w3.org/2000/svg" xmlns:xlink="http://www.w3.org/1999/xlink">
    <!-- Generator: Sketch 55.2 (78181) - https://sketchapp.com -->
    <title>Group 6</title>
    <desc>Created with Sketch.</desc>
    <defs>
        <polygon id="path-1" points="0.0003 0.7743 21.226 0.7743 21.226 21.9993 0.0003 21.9993"></polygon>
    </defs>
    <g id="Symbols" stroke="none" stroke-width="1" fill="none" fill-rule="evenodd">
        <g id="Actions/renew-licence" transform="translate(-1.000000, -2.000000)">
            <g id="Group-6" transform="translate(1.000000, 1.000000)">
                <path d="M11.4846,11.4767 C11.4846,12.0987 10.9756,12.6077 10.3536,12.6077 C9.7306,12.6077 9.2216,12.0987 9.2216,11.4767 C9.2216,10.8547 9.7306,10.3447 10.3536,10.3447 C10.9756,10.3447 11.4846,10.8547 11.4846,11.4767 M7.5196,12.6077 C7.5196,14.7967 9.2956,16.5677 11.4846,16.5677 C11.9426,16.5677 12.3836,16.4887 12.7966,16.3467 L18.4936,22.0267 C18.7596,22.2917 19.1896,22.2917 19.4556,22.0267 L20.8976,20.5837 C21.1636,20.3187 21.1636,19.8887 20.8976,19.6227 L20.7056,19.4357 L19.4606,19.7917 L18.7026,19.0397 L19.5056,18.2427 L18.7026,17.4447 L17.4976,17.8457 L16.6946,17.0487 L17.4976,16.2507 L16.6946,15.4537 L15.4896,15.8547 L14.6926,14.9557 C15.1676,14.2987 15.4496,13.4967 15.4496,12.6247 C15.4496,10.4357 13.6736,8.6647 11.4846,8.6647 C9.2956,8.6647 7.5196,10.4187 7.5196,12.6077" id="Fill-1" fill="#0073AE"></path>
                <g id="Group-5" transform="translate(0.000000, 0.226100)">
                    <mask id="mask-2" fill="white">
                        <use xlink:href="#path-1"></use>
                    </mask>
                    <g id="Clip-4"></g>
                    <path d="M21.2263,11.3873 C21.2263,11.3953 21.2263,11.4023 21.2263,11.4093 C20.4223,10.7273 19.4753,10.2103 18.4353,9.9113 C17.7443,6.2203 14.5053,3.4273 10.6133,3.4273 C6.2173,3.4273 2.6533,6.9913 2.6533,11.3873 C2.6533,14.1153 4.0263,16.5223 6.1193,17.9563 L7.9593,15.8093 L9.7283,21.9993 L2.6533,21.9993 L4.3853,19.9793 C1.7283,18.0503 0.0003,14.9213 0.0003,11.3873 C0.0003,5.5253 4.7513,0.7743 10.6133,0.7743 C16.4743,0.7743 21.2263,5.5253 21.2263,11.3873" id="Fill-3" fill="#0073AE" mask="url(#mask-2)"></path>
                </g>
            </g>
        </g>
    </g>
</svg>