<?xml version="1.0" encoding="UTF-8"?>
<svg width="24px" height="24px" viewBox="0 0 24 24" version="1.1" xmlns="http://www.w3.org/2000/svg" xmlns:xlink="http://www.w3.org/1999/xlink">
    <!-- Generator: Sketch 55.2 (78181) - https://sketchapp.com -->
    <title>noun_jenkins_2289644</title>
    <desc>Created with Sketch.</desc>
    <g id="Producto" stroke="none" stroke-width="1" fill="none" fill-rule="evenodd">
        <g id="03_D_Versiones-de-release" transform="translate(-915.000000, -524.000000)" fill="#FFFFFF" fill-rule="nonzero">
            <g id="Group-2-Copy" transform="translate(295.000000, 519.000000)">
                <g id="Group-31" transform="translate(620.000000, 5.000000)">
                    <g id="Group-30">
                        <g id="noun_jenkins_2289644">
                            <path d="M23.8418419,19.5250162 L20.1346791,16.8977044 C21.5951051,15.1157906 22.5114233,12.5717925 22.5114233,9.75039187 C22.5114233,4.374495 19.1881247,0.000860625 15.1031293,0.000860625 C14.7026044,0.0014024584 14.3032387,0.0442464636 13.9115758,0.128690625 C13.8808862,0.11493099 13.8484726,0.105468221 13.8152372,0.100565625 C9.64522419,-0.45375 7.72265674,1.4412 7.29493395,1.94123813 C5.48987163,2.4043125 4.92669023,3.84380063 4.86164651,4.69448813 C4.77949023,4.71743438 4.71101767,4.7375175 4.66082605,4.75269188 C2.33488372,5.5515 3.37635163,9.26501062 3.49081302,9.64821562 C3.14634894,10.2488275 2.9682123,10.9316316 2.97500651,11.6253206 C2.97500651,13.3828594 4.04085581,14.8126612 5.35110884,14.8126612 C5.39453209,14.8126612 5.43764837,14.8095487 5.48075349,14.8064737 C5.72038212,15.5965221 6.05875946,16.3526403 6.48773767,17.0566219 L0.448094884,20.8712419 C0.192296544,21.0356208 0.109546166,21.3734045 0.26003907,21.6388781 L1.54284465,23.8161731 C1.60991259,23.9301436 1.73170044,23.9999968 1.86317953,23.9999968 L5.58022698,23.9997244 C5.71890106,23.9995818 5.845993,23.92174 5.90998541,23.7977524 C5.97397782,23.6737649 5.96425392,23.5242021 5.88475535,23.40969 L3.4286307,19.8739012 L5.02347163,18.8666381 C6.45106121,21.0492957 8.87671091,22.3567086 11.4705898,22.3416019 C11.5405507,22.3416019 11.6111733,22.3407475 11.6824577,22.3390387 C11.6958671,22.3380941 11.7092145,22.336404 11.7224391,22.3339762 L11.7198847,23.256255 C11.7188554,23.5129863 11.8509211,23.751624 12.0681991,23.8856456 C12.2893597,24.0249123 12.5665865,24.0378222 12.7995479,23.9197031 L14.7592819,22.9349531 C14.9947085,23.1452701 15.2937827,23.2691793 15.6079144,23.2865494 C15.6348037,23.2880138 15.6613302,23.2887469 15.6880372,23.2887469 C16.0278884,23.2895201 16.3562514,23.1648177 16.6110809,22.9382025 C16.6423981,22.9104169 16.6717972,22.8810731 16.7001972,22.851015 L18.8269116,23.9195963 C19.0598427,24.0378122 19.3371046,24.0249355 19.5582605,23.8856306 C19.7755452,23.7516141 19.9076162,23.5129744 19.906586,23.25624 L19.9033953,22.1036775 C21.0994874,21.641541 22.0191476,20.6520034 22.398547,19.41894 L23.1773674,19.97094 L21.8513209,23.4917025 C21.8080599,23.6069539 21.823691,23.7362649 21.8931425,23.8376778 C21.9625939,23.9390908 22.0770166,23.9996843 22.1992837,23.9999968 C22.3493674,23.9999968 24.0000074,23.9999968 24.0000074,23.9999968 L24.0000074,19.9698487 C24.0000074,19.7234569 23.9810233,19.6235269 23.8418419,19.5250162 Z M11.7244967,21.5927344 C11.7045695,21.5897454 11.6844147,21.5885812 11.6642791,21.5892562 C11.5997829,21.5909037 11.5358257,21.5916975 11.4724074,21.5916375 C9.13405447,21.6075794 6.94570065,20.4329277 5.65396837,18.46845 L6.90589953,17.6777625 C7.86673488,18.9828694 9.37774884,20.23974 11.6886363,20.43612 C11.699174,20.4369431 11.709894,20.4374025 11.7202493,20.4374025 C11.7227814,20.4374025 11.7251665,20.4367387 11.7276912,20.4366806 L11.7244967,21.5927344 Z M16.3312595,21.9385069 C16.3220893,22.1070104 16.24559,22.2645859 16.1192093,22.3752938 C15.9900255,22.4898647 15.8210989,22.5482511 15.6493358,22.5376969 C15.3017216,22.5272528 15.0279395,22.2354748 15.0369965,21.8851081 C15.0460536,21.5347414 15.3345392,21.2577261 15.6822214,21.2655375 C15.6945767,21.2655375 15.7069302,21.2659125 15.7194791,21.2666363 C15.8913875,21.2753402 16.052881,21.3522965 16.1686419,21.480675 C16.282079,21.6047893 16.3407527,21.7699434 16.3312614,21.938415 L16.3312595,21.9385069 Z M19.4860502,19.579605 C19.2741366,19.4725143 19.0242731,19.4735936 18.8132781,19.5825113 L16.4897581,20.773125 C16.0471141,20.458616 15.4640756,20.4299709 14.9931758,20.6995969 L12.8131702,19.5825169 C12.512383,19.4268524 12.1453262,19.494504 11.9186735,19.74738 C11.8684014,19.7143674 11.8108893,19.6942294 11.7511367,19.6887169 C7.8116614,19.3540294 6.48547721,15.6289669 6.19482605,14.6084044 C6.35950939,14.5247275 6.51312774,14.4205625 6.65208372,14.2983488 C6.75291975,14.2107167 6.79961113,14.0754642 6.77452159,13.9436788 C6.74943205,13.8118933 6.65638571,13.7036616 6.53052806,13.6598649 C6.4046704,13.6160682 6.26518459,13.643382 6.16475721,13.7314894 C5.94246089,13.9378249 5.65323859,14.0555537 5.35110884,14.0626875 C4.46658233,14.0626875 3.71925023,12.9465337 3.71925023,11.6253131 C3.71925023,10.3040925 4.46658233,9.1879275 5.35110884,9.1879275 C5.77304706,9.20897378 6.16176396,9.42499063 6.40460465,9.77337375 C6.53252661,9.93468282 6.76577672,9.96141047 6.92636614,9.83316134 C7.08695557,9.70491221 7.11444621,9.46995307 6.98786047,9.30757687 C6.60571414,8.77746265 6.00102226,8.45618741 5.35110698,8.43796312 C4.8830127,8.44544303 4.43306084,8.6216592 4.08277953,8.9346825 C3.87655442,7.95999 3.60923721,5.9061525 4.8875814,5.4668475 C6.09280744,5.10395625 7.99902326,4.83004125 8.46508093,5.356995 C8.47136,5.36412 8.47882047,5.3694 8.48550884,5.3759325 C7.95743486,6.77272556 7.68940428,8.25566668 7.69485581,9.75040313 C7.69265951,10.8097422 7.82430088,11.8650527 8.08660465,12.89088 L7.2544186,12.89088 C7.04892655,12.89088 6.88234233,13.0587657 6.88234233,13.2658631 C6.88234233,13.4729606 7.04892655,13.6408463 7.2544186,13.6408463 L8.55048744,13.6408463 C8.65035228,13.6408296 8.74602222,13.6003729 8.81599807,13.5285676 C8.88597391,13.4567624 8.92438619,13.3596315 8.92260279,13.2590025 L8.92078512,13.1595769 C8.92009149,13.1258739 8.9149614,13.0924129 8.9055293,13.0600706 C8.59306354,11.9851671 8.43597529,10.8704826 8.4391107,9.750405 C8.4391107,4.78803 11.4286288,0.75084 15.1031498,0.75084 C17.3769395,0.75084 19.387466,2.29772625 20.590614,4.65213 C19.9355816,4.40734906 19.20716,4.4629347 18.5961674,4.80432562 C18.4220752,4.91287373 18.3676873,5.14276272 18.4744515,5.3187991 C18.5812158,5.49483548 18.8090255,5.55088985 18.9842716,5.44424438 C19.0277172,5.41735125 20.0561972,4.80474938 21.117414,5.87715188 C21.5521795,7.12129139 21.7719624,8.43137272 21.7672776,9.750405 C21.7672776,14.7127913 18.7776837,18.7499813 15.1031516,18.7499813 C13.7918318,18.730791 12.5309197,18.237812 11.549827,17.3607375 C11.3930578,17.2272339 11.1586364,17.2468467 11.0258568,17.4045753 C10.8930771,17.5623039 10.9120724,17.7985951 11.0683144,17.932725 C12.1834871,18.9254871 13.6153242,19.4816449 15.1031535,19.4999475 C16.8078233,19.4999475 18.3786121,18.7363406 19.6318493,17.4580931 L20.4873526,18.0644363 C20.4841284,18.0736369 20.4796763,18.0820838 20.477133,18.09165 C20.2906142,18.6709244 19.9473795,19.1862402 19.4860558,19.579605 L19.4860502,19.579605 Z M19.9011349,21.2908519 L19.8982158,20.2390031 C19.8981823,20.2307287 19.8968651,20.2227187 19.8965693,20.2144781 C20.4423504,19.762342 20.863801,19.1765502 21.1205544,18.51321 L21.7551163,18.9629625 C21.517054,19.9809786 20.8358258,20.8363424 19.9011405,21.2908519 L19.9011349,21.2908519 Z" id="Shape"></path>
                            <path d="M15.0689842,12.9784931 C15.0563021,13.3769014 15.2446451,13.7546863 15.5693935,13.9822312 C15.8867669,14.1744065 16.2536357,14.2672267 16.6234419,14.2489125 C17.2367482,14.2272104 17.8429052,14.1089 18.419907,13.8982762 C19.3155163,13.612185 19.8117358,13.1907919 19.8947777,12.6458925 C20.020867,11.8170206 19.1130958,11.14908 19.0091609,11.0755688 C18.996963,11.0669964 18.9842845,11.0591402 18.9711888,11.0520394 C17.5940874,10.3088494 17.1227498,7.83218625 17.1182065,7.80720375 C17.0805112,7.60387699 16.8865919,7.46969308 16.6847675,7.50728241 C16.482943,7.54487174 16.3494177,7.74004145 16.3863181,7.94351625 C16.4073935,8.0591475 16.921974,10.7755631 18.5979833,11.7012038 C18.8031181,11.8518994 19.2026791,12.246195 19.1590642,12.5321025 C19.1241805,12.76143 18.7727777,12.9988163 18.1793433,13.1887763 C17.5640967,13.4156325 16.424653,13.6639125 15.9893005,13.36299 C15.8635647,13.2717761 15.7962918,13.1194056 15.8132353,12.9642094 C15.8090055,12.7573216 15.6393293,12.5929676 15.434039,12.596907 C15.2287486,12.6008465 15.0654036,12.7715912 15.0689916,12.9784913 L15.0689842,12.9784931 Z" id="Path"></path>
                            <path d="M11.5714363,6.01898625 C11.9219312,5.7899325 12.3759981,5.75239688 12.921466,5.90730375 C13.119087,5.96288401 13.3240582,5.84676558 13.3796639,5.64772958 C13.4352696,5.44869359 13.3205251,5.24185345 13.1231609,5.18535375 C12.3627367,4.9697475 11.7044428,5.03841188 11.1666065,5.3896875 C10.2437544,5.99243625 10.0567777,7.20700875 10.0493284,7.2584625 C10.0290026,7.39147498 10.0809596,7.52526499 10.1854729,7.60903599 C10.2899862,7.69280698 10.4310273,7.71371174 10.5550467,7.66381328 C10.6790662,7.61391482 10.7670441,7.50086563 10.7855777,7.3675875 C10.7870307,7.35833438 10.9380223,6.43259813 11.5714363,6.01898625 Z" id="Path"></path>
                            <path d="M13.2083721,8.6528325 C13.0179167,8.57522991 12.8010919,8.66783828 12.7239628,8.85972938 L12.4913823,9.43868625 C12.4515165,9.53788613 12.4556203,9.64952812 12.5026596,9.74548343 C12.5496989,9.84143874 12.6351885,9.91255784 12.7375888,9.94092188 C13.1306541,10.0562131 13.537293,10.1178254 13.9466195,10.1241094 C14.3081771,10.1349178 14.6670106,10.0579277 14.9928465,9.89963438 C15.192941,9.80227789 15.3445643,9.62635322 15.4122121,9.413055 C15.4668549,9.22680301 15.4429326,9.02608921 15.3460781,8.85817687 L14.472826,7.31476875 C14.3710351,7.1348494 14.1437944,7.0721585 13.9652698,7.1747447 C13.7867451,7.2773309 13.7245402,7.50634689 13.8263312,7.68626625 L14.6879553,9.209085 C14.6767704,9.21853906 14.6645117,9.22662184 14.6514363,9.23316375 C14.4677395,9.3287325 14.0701767,9.44949187 13.3444595,9.31371937 L13.413693,9.14115375 C13.4507651,9.04896241 13.4499569,8.94570105 13.4114465,8.85411053 C13.3729361,8.76252002 13.2998818,8.69011196 13.2083721,8.6528325 Z" id="Path"></path>
                            <path d="M18.6613823,9.68522625 C19.0571981,9.84256052 19.4775578,9.92792345 19.9029451,9.93735187 C20.2880212,9.94863571 20.6670868,9.83924124 20.9878716,9.62425312 C21.3551093,9.36606093 21.4932596,8.8842708 21.3192893,8.46845625 C21.3109296,8.44864601 21.3009003,8.4295944 21.2893116,8.41151062 L20.2140149,6.7345275 C20.1021111,6.56152994 19.8724829,6.51227239 19.7003728,6.62434613 C19.5282628,6.73641988 19.4784539,6.96763985 19.5889581,7.14154875 L20.6424651,8.78447437 C20.6673319,8.86808439 20.6357468,8.95830711 20.5643256,9.00768 C20.3490158,9.15809062 19.9559944,9.28066687 19.2708,9.09537562 L19.3264074,8.9400225 C19.3714531,8.8139524 19.3463409,8.67323949 19.2605302,8.57088894 C19.1747195,8.4685384 19.0412471,8.42009971 18.9103907,8.44381925 C18.7795342,8.4675388 18.6711741,8.55981303 18.6261284,8.68588312 L18.440067,9.2064375 C18.3708959,9.40020303 18.4696907,9.61393337 18.6613823,9.68522625 Z" id="Path"></path>
                            <path d="M16.68248,14.7748481 C15.1227628,15.0358481 14.0927126,13.8688875 14.0480093,13.8173437 C13.9137557,13.660593 13.678855,13.6431546 13.52326,13.7783878 C13.3676651,13.9136209 13.350258,14.150349 13.484374,14.3072194 C13.5328837,14.3638912 14.5774884,15.563175 16.2271405,15.563175 C16.4206222,15.5630361 16.6137613,15.5467757 16.8045842,15.51456 C16.9356967,15.4925778 17.0452131,15.4017712 17.0918798,15.2763463 C17.1385465,15.1509214 17.1152735,15.0099331 17.0308277,14.9064904 C16.9463819,14.8030476 16.8135925,14.7528659 16.68248,14.7748481 L16.68248,14.7748481 Z" id="Path"></path>
                            <path d="M19.8111833,14.00475 C19.5844167,14.2688569 18.9722698,14.5024987 18.1738847,14.6297456 C17.9821501,14.6603012 17.8459278,14.8342543 17.8609964,15.0292974 C17.8760651,15.2243405 18.0373624,15.3749472 18.2314791,15.375225 C18.2511314,15.375225 18.2707526,15.3736497 18.2901637,15.3705562 C18.9944353,15.2582213 19.927654,15.0153431 20.3740912,14.4956325 C20.5075455,14.3388732 20.4901396,14.1028783 20.3351552,13.9677266 C20.1801708,13.8325749 19.9459346,13.8491292 19.8111833,14.0047575 L19.8111833,14.00475 Z" id="Path"></path>
                            <path d="M16.6861153,16.6117744 C13.9031963,17.049375 13.018134,15.4601906 12.9796167,15.38823 C12.8839938,15.205858 12.660177,15.1355549 12.4786741,15.2308789 C12.2971712,15.3262028 12.2261324,15.5513618 12.3196763,15.7348256 C12.359466,15.8126381 13.2259944,17.4384506 15.7527256,17.4384506 C16.1038049,17.4371868 16.4542605,17.4085388 16.8009526,17.3527631 C17.0039878,17.320804 17.1428733,17.1290174 17.1111619,16.9243959 C17.0794504,16.7197744 16.8891506,16.579804 16.6861153,16.6117631 L16.6861153,16.6117744 Z" id="Path"></path>
                            <path d="M4.63302884,10.5596925 C4.43828813,10.6212919 4.32913862,10.8294985 4.38839468,11.026341 C4.44765074,11.2231834 4.6531897,11.3351725 4.84906419,11.2773394 C5.0217057,11.2150336 5.21254504,11.2301121 5.37344279,11.3187713 C5.53434055,11.4074306 5.64993453,11.5612055 5.69106605,11.7413062 C5.75476723,11.9381306 5.96464963,12.0457264 6.16000641,11.9817076 C6.35536319,11.9176888 6.46231684,11.7062652 6.39897302,11.5093237 C6.29612801,11.1431109 6.04972175,10.8349082 5.71653718,10.6557392 C5.3833526,10.4765702 4.99213159,10.4418907 4.63302884,10.5596925 Z" id="Path"></path>
                        </g>
                    </g>
                </g>
            </g>
        </g>
    </g>
</svg>