<?xml version="1.0" encoding="UTF-8"?>
<svg width="22px" height="22px" viewBox="0 0 22 22" version="1.1" xmlns="http://www.w3.org/2000/svg" xmlns:xlink="http://www.w3.org/1999/xlink">
    <!-- Generator: Sketch 55.2 (78181) - https://sketchapp.com -->
    <title>Documents/Document-Simple Copy 8</title>
    <desc>Created with Sketch.</desc>
    <defs>
        <path d="M11.0833333,15.6666667 L11.0833333,6.5 L12.9166667,4.66666667 L12.9166667,15.6666667 L16.125,12.4583333 L17.5,13.8333333 L12,19.3333333 L6.5,13.8333333 L7.875,12.4583333 L11.0833333,15.6666667 Z M12,23 C18.0751322,23 23,18.0751322 23,12 C23,5.92486775 18.0751322,1 12,1 C5.92486775,1 1,5.92486775 1,12 C1,18.0751322 5.92486775,23 12,23 Z" id="path-1"></path>
    </defs>
    <g id="Producto" stroke="none" stroke-width="1" fill="none" fill-rule="evenodd">
        <g id="03_E_Versiones-de-release-2" transform="translate(-684.000000, -1134.000000)">
            <g id="Group-4" transform="translate(323.000000, 1053.000000)">
                <g id="Arrows/Arrow-Filled-Down" transform="translate(360.000000, 80.000000)">
                    <polygon id="Bounding-Box" points="0 0 24 0 24 24 0 24"></polygon>
                    <mask id="mask-2" fill="white">
                        <use xlink:href="#path-1"></use>
                    </mask>
                    <use id="Mask" fill="#1973B8" fill-rule="evenodd" xlink:href="#path-1"></use>
                    <g id="Primary/Medium-Blue/Medium-Blue" mask="url(#mask-2)" fill="#1973B8" fill-rule="evenodd">
                        <rect id="Rectangle" x="0" y="0" width="24" height="24"></rect>
                    </g>
                </g>
            </g>
        </g>
    </g>
</svg>