<?xml version="1.0" encoding="UTF-8"?>
<svg width="22px" height="22px" viewBox="0 0 22 22" version="1.1" xmlns="http://www.w3.org/2000/svg" xmlns:xlink="http://www.w3.org/1999/xlink">
    <!-- Generator: Sketch 55.2 (78181) - https://sketchapp.com -->
    <title>Validations/compilado error Copy 2</title>
    <desc>Created with Sketch.</desc>
    <g id="Symbols" stroke="none" stroke-width="1" fill="none" fill-rule="evenodd">
        <g id="Master-CARD-1" transform="translate(-17.000000, -192.000000)">
            <g id="Group-2" transform="translate(15.000000, 191.000000)">
                <g id="Validations/compilado-proceso">
                    <polygon id="Bounding-Box" points="0 0 24 0 24 24 0 24"></polygon>
                    <g id="Group-14" stroke-width="1" fill-rule="evenodd" transform="translate(2.000000, 1.000000)" fill="#F8CD51">
                        <path d="M19.72,5.2908 L17.478,6.7058 C17.901,7.4518 18.495,8.7238 18.434,11.0978 C19.387,11.1768 20.474,11.3068 21.05,11.3278 C21.197,10.5228 20.883,8.2648 20.882,8.2598 C20.655,7.2948 20.353,6.4638 19.72,5.2908" id="Fill-1"></path>
                        <path d="M11.5789,-0.0002 L11.5789,2.6848 C12.8979,2.8448 14.1219,3.3128 15.1609,4.0368 L17.5379,2.5368 C15.9069,1.1298 13.8479,0.2058 11.5789,-0.0002" id="Fill-4"></path>
                        <path d="M20.1526,15.1599 L17.6436,14.2049 C17.0246,15.3809 16.1526,16.3579 15.1056,17.0709 L15.6606,19.8259 C17.5566,18.8029 19.1526,17.2069 20.1526,15.1599" id="Fill-6"></path>
                        <path d="M8.094,0.2693 C6.094,0.7563 4.317,1.8123 2.939,3.2513 L5.088,4.8583 C5.933,4.0403 6.953,3.4033 8.094,3.0223 L8.094,0.2693 Z" id="Fill-8"></path>
                        <path d="M2.7141,11.5428 C2.6751,11.2238 2.6531,10.8978 2.6531,10.5688 C2.6531,9.5838 2.8481,8.6488 3.1751,7.7788 L0.9741,6.1338 C0.3501,7.4818 0.0001,8.9838 0.0001,10.5688 C0.0001,11.3008 0.0901,12.0098 0.2321,12.6998 L2.7141,11.5428 Z" id="Fill-10"></path>
                        <path d="M9.7288,21.1814 L7.9598,14.9914 L6.1198,17.1384 C5.2318,16.5304 4.4858,15.7404 3.9068,14.8314 L1.4898,15.9584 C2.2328,17.2114 3.2108,18.3084 4.3848,19.1604 L2.6528,21.1814 L9.7288,21.1814 Z" id="Fill-12"></path>
                    </g>
                </g>
            </g>
        </g>
    </g>
</svg>