<?xml version="1.0" encoding="UTF-8"?>
<svg width="22px" height="22px" viewBox="0 0 22 22" version="1.1" xmlns="http://www.w3.org/2000/svg" xmlns:xlink="http://www.w3.org/1999/xlink">
    <!-- Generator: Sketch 55.2 (78181) - https://sketchapp.com -->
    <title>Symbols/Plus/Filled</title>
    <desc>Created with Sketch.</desc>
    <defs>
        <path d="M12,1 C18.0751322,1 23,5.92486775 23,12 C23,18.0751322 18.0751322,23 12,23 C5.92486775,23 1,18.0751322 1,12 C1,5.92486775 5.92486775,1 12,1 Z M11.0833333,6.5 L11.0833333,11.0833333 L6.5,11.0833333 L6.5,12.916575 L11.0833333,12.916575 L11.0833333,17.5 L12.9166667,17.5 L12.9166667,12.916575 L16.5832417,12.916575 L18.416575,11.0833333 L12.9166667,11.0833333 L12.9166667,6.5 L11.0833333,6.5 Z" id="path-1"></path>
    </defs>
    <g id="Producto" stroke="none" stroke-width="1" fill="none" fill-rule="evenodd">
        <g id="02_E3_Configuración-" transform="translate(-916.000000, -1426.000000)">
            <g id="Symbols/Plus/Filled" transform="translate(927.000000, 1437.000000) rotate(-315.000000) translate(-927.000000, -1437.000000) translate(915.000000, 1425.000000)">
                <circle id="Oval" fill="#FFFFFF" fill-rule="evenodd" cx="11.5" cy="11.5" r="7.5"></circle>
                <polygon id="Bounding-Box" points="0 0 24 0 24 24 0 24"></polygon>
                <mask id="mask-2" fill="white">
                    <use xlink:href="#path-1"></use>
                </mask>
                <use id="Mask" fill="#FFFFFF" fill-rule="evenodd" xlink:href="#path-1"></use>
                <g id="Primary/Medium-Blue/Medium-Blue" mask="url(#mask-2)" fill="#DA3851" fill-rule="evenodd">
                    <rect id="Rectangle" x="0" y="0" width="24" height="24"></rect>
                </g>
            </g>
        </g>
    </g>
</svg>