<?xml version="1.0" encoding="UTF-8"?>
<svg width="20px" height="22px" viewBox="0 0 20 22" version="1.1" xmlns="http://www.w3.org/2000/svg" xmlns:xlink="http://www.w3.org/1999/xlink">
    <!-- Generator: Sketch 55.2 (78181) - https://sketchapp.com -->
    <title>Currency/Dollar Copy 2</title>
    <desc>Created with Sketch.</desc>
    <defs>
        <path d="M6.09090909,2.81818182 L8.36363636,2.81818182 L8.36363636,1.99365234 C8.36363636,1.44487331 8.81857803,1 9.35962879,1 L14.6403712,1 C15.1904426,1 15.6363636,1.44588956 15.6363636,1.99365234 L15.6363636,2.81818182 L20.1818182,2.81818182 L22,2.81818182 L22,5.54545455 L20.1818182,5.54545455 L20.1818182,21.8263787 C20.1818182,22.3741364 19.7270821,22.8181818 19.1828321,22.8181818 L4.81716788,22.8181818 C4.26544311,22.8181818 3.81818182,22.3628762 3.81818182,21.8263787 L3.81818182,5.54545455 L2,5.54545455 L2,2.81818182 L6.09090909,2.81818182 Z M8.36363636,20.0909091 L8.36363636,11.9090909 L6.54545455,11.9090909 L6.54545455,18.2727273 L8.36363636,20.0909091 Z M12.9090909,20.0909091 L12.9090909,11.9090909 L11.0909091,11.9090909 L11.0909091,18.2727273 L12.9090909,20.0909091 Z M17.4545455,20.0909091 L17.4545455,11.9090909 L15.6363636,11.9090909 L15.6363636,18.2727273 L17.4545455,20.0909091 Z" id="path-1"></path>
    </defs>
    <g id="Producto" stroke="none" stroke-width="1" fill="none" fill-rule="evenodd">
        <g id="04_C_Entornos-estado-despliegue-edit" transform="translate(-1203.000000, -860.000000)">
            <g id="Actions/Trash" transform="translate(1201.000000, 859.000000)">
                <polygon id="Bounding-Box" points="0 0 24 0 24 24 0 24"></polygon>
                <mask id="mask-2" fill="white">
                    <use xlink:href="#path-1"></use>
                </mask>
                <use id="Mask" fill="#FFFFFF" fill-rule="evenodd" xlink:href="#path-1"></use>
                <g id="Primary/Medium-Blue/Medium-Blue" mask="url(#mask-2)" fill="#FFFFFF" fill-rule="evenodd">
                    <rect id="Rectangle" x="0" y="0" width="24" height="24"></rect>
                </g>
            </g>
        </g>
    </g>
</svg>