<svg id="Capa_1" data-name="Capa 1" xmlns="http://www.w3.org/2000/svg" viewBox="0 0 24 24"><defs><style>.cls-1{fill:#1973b8;}</style></defs><title>internet_b</title><path class="cls-1" d="M23.93,12.08A12,12,0,0,0,12.5.12l-.32,0h-.45l-.32,0a12,12,0,0,0,0,23.92H12.5A12,12,0,0,0,23.93,12.08ZM1.78,13H5a19.42,19.42,0,0,0,.66,4.42,13.6,13.6,0,0,0-1.85.82A10.12,10.12,0,0,1,1.78,13Zm2-7a12.94,12.94,0,0,0,1.84.82A19.51,19.51,0,0,0,5,11.2H1.78A10,10,0,0,1,3.78,6ZM22.13,11.2H18.94a20,20,0,0,0-.63-4.33,13.16,13.16,0,0,0,1.91-.79A10.17,10.17,0,0,1,22.13,11.2ZM12.83,2c1.29.35,2.44,1.73,3.24,3.72a19.8,19.8,0,0,1-3.24.39Zm-1.75,4.1a19.23,19.23,0,0,1-3.22-.44c.8-2,1.94-3.31,3.22-3.66Zm0,1.75V11.2H6.72A18.12,18.12,0,0,1,7.3,7.29,20.75,20.75,0,0,0,11.08,7.81Zm0,5.14v3.39a20.75,20.75,0,0,0-3.78.52A18.12,18.12,0,0,1,6.72,13Zm0,5.14V22.2c-1.28-.35-2.42-1.71-3.22-3.67A19.09,19.09,0,0,1,11.08,18.09Zm1.75,0a18.77,18.77,0,0,1,3.24.39c-.8,2-2,3.37-3.24,3.73Zm0-1.75V13h4.36a18.19,18.19,0,0,1-.57,3.85A20.15,20.15,0,0,0,12.83,16.33Zm0-5.13V7.82a20.15,20.15,0,0,0,3.79-.47,18.29,18.29,0,0,1,.57,3.85Zm4.94-6A12.34,12.34,0,0,0,16.65,3,10.36,10.36,0,0,1,19,4.71,11.8,11.8,0,0,1,17.77,5.21ZM6.17,5.12A10.61,10.61,0,0,1,5,4.62,10.25,10.25,0,0,1,7.26,3,12.76,12.76,0,0,0,6.17,5.12ZM6.17,19a12.27,12.27,0,0,0,1.09,2.11A9.93,9.93,0,0,1,5,19.53,12.85,12.85,0,0,1,6.17,19Zm11.6-.1a12,12,0,0,1,1.27.5,10.12,10.12,0,0,1-2.39,1.71A12.34,12.34,0,0,0,17.77,18.94Zm.54-1.66A20,20,0,0,0,18.94,13h3.19a10.17,10.17,0,0,1-1.91,5.13A14.4,14.4,0,0,0,18.31,17.28Z"/></svg>