<?xml version="1.0" encoding="UTF-8"?>
<svg width="20px" height="22px" viewBox="0 0 20 22" version="1.1" xmlns="http://www.w3.org/2000/svg" xmlns:xlink="http://www.w3.org/1999/xlink">
    <!-- Generator: Sketch 55.2 (78181) - https://sketchapp.com -->
    <title>Mask</title>
    <desc>Created with Sketch.</desc>
    <defs>
        <path d="M6.09090909,2.81818182 L8.36363636,2.81818182 L8.36363636,1.99365234 C8.36363636,1.44487331 8.81857803,1 9.35962879,1 L14.6403712,1 C15.1904426,1 15.6363636,1.44588956 15.6363636,1.99365234 L15.6363636,2.81818182 L20.1818182,2.81818182 L22,2.81818182 L22,5.54545455 L20.1818182,5.54545455 L20.1818182,21.8263787 C20.1818182,22.3741364 19.7270821,22.8181818 19.1828321,22.8181818 L4.81716788,22.8181818 C4.26544311,22.8181818 3.81818182,22.3628762 3.81818182,21.8263787 L3.81818182,5.54545455 L2,5.54545455 L2,2.81818182 L6.09090909,2.81818182 Z M8.36363636,20.0909091 L8.36363636,11.9090909 L6.54545455,11.9090909 L6.54545455,18.2727273 L8.36363636,20.0909091 Z M12.9090909,20.0909091 L12.9090909,11.9090909 L11.0909091,11.9090909 L11.0909091,18.2727273 L12.9090909,20.0909091 Z M17.4545455,20.0909091 L17.4545455,11.9090909 L15.6363636,11.9090909 L15.6363636,18.2727273 L17.4545455,20.0909091 Z" id="path-1"></path>
    </defs>
    <g id="Producto" stroke="none" stroke-width="1" fill="none" fill-rule="evenodd">
        <g id="03_A_Versiones-de-release" transform="translate(-1122.000000, -74.000000)">
            <g id="Parts/enlace-icon-Copy-3" transform="translate(1120.000000, 73.000000)">
                <g id="Contact/@">
                    <mask id="mask-2" fill="white">
                        <use xlink:href="#path-1"></use>
                    </mask>
                    <use id="Mask" fill="#1973B8" xlink:href="#path-1"></use>
                </g>
            </g>
        </g>
    </g>
</svg>