<?xml version="1.0" encoding="UTF-8"?>
<svg width="20px" height="20px" viewBox="0 0 20 20" version="1.1" xmlns="http://www.w3.org/2000/svg" xmlns:xlink="http://www.w3.org/1999/xlink">
    <!-- Generator: Sketch 55.2 (78181) - https://sketchapp.com -->
    <title>Validations/seguridad error</title>
    <desc>Created with Sketch.</desc>
    <defs>
        <path d="M11.3022333,11.2452997 L8.91162638,8.94668031 L6.42985542,11.3361854 L5.4741533,10.4161391 L7.95585668,8.026634 L5.56788536,5.72502191 L6.52507423,4.80347928 L8.91115333,7.10053733 L11.3004086,4.80035651 L12.2561108,5.72040281 L9.86685546,8.02058363 L12.259287,10.3237571 L11.3022333,11.2452997 Z M16.6651481,1.44726943 C16.6650758,1.07098485 16.340458,0.757575758 15.9401997,0.757575758 L1.48418733,0.757575758 C1.07713154,0.757575758 0.759311295,1.06635046 0.759166667,1.44726943 L0.757575758,6.2911726 C0.757575758,15.9749671 8.71212121,16.6666667 8.71212121,16.6666667 C8.71212121,16.6666667 16.6666667,15.9749671 16.6666667,6.2911726 L16.6651481,1.44726943 Z" id="path-1"></path>
    </defs>
    <g id="Validations/seguridad-error" stroke="none" stroke-width="1" fill="none" fill-rule="evenodd">
        <polygon id="Bounding-Box" points="0 0 20 0 20 20 0 20"></polygon>
        <g id="Security/Scam-Copy-6" transform="translate(1.666667, 1.666667)">
            <polygon id="Bounding-Box" points="0 0 15.9090909 0 15.9090909 15.9090909 0 15.9090909"></polygon>
            <mask id="mask-2" fill="white">
                <use xlink:href="#path-1"></use>
            </mask>
            <use id="Mask" fill="#FFFFFF" xlink:href="#path-1"></use>
            <g id="🎨-Color-Fill" mask="url(#mask-2)" fill="#D9534F">
                <rect id="Rectangle" x="0" y="0" width="17.4242424" height="17.4242424"></rect>
            </g>
        </g>
        <polygon id="Path" fill="#FFFFFF" points="12.9688999 12.9119664 10.5782931 10.613347 8.09652209 13.002852 7.14081996 12.0828057 9.62252334 9.69330067 7.23455203 7.39168858 8.19174089 6.47014594 10.57782 8.767204 12.9670753 6.46702317 13.9227774 7.38706948 11.5335221 9.6872503 13.9259537 11.9904238"></polygon>
    </g>
</svg>