<?xml version="1.0" encoding="UTF-8"?>
<svg width="21px" height="15px" viewBox="0 0 21 15" version="1.1" xmlns="http://www.w3.org/2000/svg" xmlns:xlink="http://www.w3.org/1999/xlink">
    <!-- Generator: Sketch 55.2 (78181) - https://sketchapp.com -->
    <title>Group 52</title>
    <desc>Created with Sketch.</desc>
    <g id="Producto" stroke="none" stroke-width="1" fill="none" fill-rule="evenodd">
        <g id="Group-52" transform="translate(1.215860, 1.274618)" fill="#D9534F" fill-rule="nonzero" stroke="#DB524B">
            <path d="M18.8841404,12.9087157 L4.60914039,12.9087157 C4.49415268,12.913922 4.38249537,12.8693404 4.30271474,12.7863685 C4.22293411,12.7033967 4.18276379,12.5900776 4.19247372,12.4753823 L4.19247372,4.72538233 C4.18276379,4.6106871 4.22293411,4.49736798 4.30271474,4.41439613 C4.38249537,4.33142427 4.49415268,4.28684265 4.60914039,4.29204899 L18.8841404,4.29204899 C18.9997755,4.28710121 19.1120781,4.33145863 19.1931209,4.41409051 C19.2741637,4.4967224 19.3163324,4.60986505 19.3091404,4.72538233 L19.3091404,12.4753823 C19.3163324,12.5908996 19.2741637,12.7040423 19.1931209,12.7866741 C19.1120781,12.869306 18.9997755,12.9136634 18.8841404,12.9087157 Z M5.02580705,12.0753823 L18.4674737,12.0753823 L18.4674737,5.15871566 L5.02580705,5.15871566 L5.02580705,12.0753823 Z" id="Shape" stroke-width="0.75"></path>
            <path d="M2.93414039,10.3253823 L2.10080705,10.3253823 L2.10080705,2.58371566 C2.09109712,2.46902044 2.13126744,2.35570132 2.21104807,2.27272946 C2.2908287,2.18975761 2.40248602,2.14517598 2.51747372,2.15038233 L16.7841404,2.15038233 L16.7841404,2.98371566 L2.93414039,2.98371566 L2.93414039,10.3253823 Z" id="Path" stroke-width="0.75"></path>
            <path d="M0.834140386,8.17538233 L0.000807052196,8.17538233 L0.000807052196,0.425382327 C-0.0063973093,0.312075288 0.0348886107,0.201044821 0.114371809,0.119971958 C0.193855008,0.0388990958 0.304046246,-0.00457713817 0.417473719,0.00038232717 L14.6841404,0.00038232717 L14.6841404,0.833715661 L0.834140386,0.833715661 L0.834140386,8.17538233 Z" id="Path" stroke-width="0.75"></path>
            <path d="M11.7508071,10.5587157 C10.8769501,10.5790434 10.0777676,10.0682974 9.72917746,9.26672145 C9.38058728,8.46514545 9.55198477,7.53231272 10.1627483,6.90700716 C10.7735119,6.28170159 11.7020541,6.08840557 12.5116093,6.41804127 C13.3211644,6.74767697 13.8505707,7.53462233 13.8508071,8.40871566 C13.8619774,8.97362214 13.6459369,9.5193734 13.2511372,9.92357304 C12.8563376,10.3277727 12.31582,10.5565928 11.7508071,10.5587157 Z M11.7508071,7.11704899 C11.2255556,7.10348963 10.7444338,7.40945169 10.5339636,7.89088205 C10.3234933,8.37231241 10.4256228,8.93325851 10.7922674,9.30961557 C11.158912,9.68597264 11.7169969,9.80272999 12.2037643,9.6049159 C12.6905317,9.4071018 13.0089654,8.93414205 13.0091404,8.40871566 C13.0136264,8.07286694 12.8827646,7.74934353 12.6460476,7.5110589 C12.4093307,7.27277426 12.0866781,7.13977984 11.7508071,7.14204899 L11.7508071,7.11704899 Z" id="Shape" stroke-width="0.25"></path>
            <path d="M17.6258071,7.74204899 L16.7924737,7.74204899 L16.7924737,6.90871566 L15.5258071,6.90871566 L15.5258071,6.07538233 L17.1924737,6.07538233 C17.3059012,6.07042286 17.4160924,6.1138991 17.4955756,6.19497196 C17.5750588,6.27604482 17.6163447,6.38707529 17.6091404,6.50038233 L17.6258071,7.74204899 Z" id="Path" stroke-width="0.25"></path>
            <path d="M6.70914039,7.74204899 L5.87580705,7.74204899 L5.87580705,6.45038233 C5.86837459,6.33554763 5.91075886,6.22307471 5.99212915,6.14170442 C6.07349944,6.06033413 6.18597236,6.01794987 6.30080705,6.02538233 L7.96747372,6.02538233 L7.96747372,6.85871566 L6.70914039,6.85871566 L6.70914039,7.74204899 Z" id="Path" stroke-width="0.25"></path>
            <path d="M17.2091404,11.1837157 L15.5424737,11.1837157 L15.5424737,10.3503823 L16.7841404,10.3503823 L16.7841404,9.51704899 L17.6174737,9.51704899 L17.6174737,10.8087157 C17.6041064,11.0230668 17.4238522,11.1886064 17.2091404,11.1837157 Z" id="Path" stroke-width="0.25"></path>
            <path d="M7.96747372,11.1837157 L6.30080705,11.1837157 C6.18597236,11.1911481 6.07349944,11.1487639 5.99212915,11.0673936 C5.91075886,10.9860233 5.86837459,10.8735504 5.87580705,10.7587157 L5.87580705,9.46704899 L6.70914039,9.46704899 L6.70914039,10.3003823 L7.96747372,10.3003823 L7.96747372,11.1837157 Z" id="Path" stroke-width="0.25"></path>
        </g>
    </g>
</svg>