<?xml version="1.0" encoding="UTF-8"?>
<svg width="25px" height="26px" viewBox="0 0 25 26" version="1.1" xmlns="http://www.w3.org/2000/svg" xmlns:xlink="http://www.w3.org/1999/xlink">
    <!-- Generator: Sketch 55.2 (78181) - https://sketchapp.com -->
    <title>Group 5 Copy</title>
    <desc>Created with Sketch.</desc>
    <defs>
        <polygon id="path-1" points="11.4828197 23.5897753 1.85753534 18.2217825 0 3.82440747 11.4828197 -1.77635684e-14 22.7451417 3.82440747 20.8968641 18.2217825"></polygon>
    </defs>
    <g id="Drafts" stroke="none" stroke-width="1" fill="none" fill-rule="evenodd">
        <g id="Artboard-Copy" transform="translate(-232.000000, -289.000000)">
            <g id="Group-5-Copy" transform="translate(233.000000, 290.000000)">
                <g id="Group-4">
                    <mask id="mask-2" fill="white">
                        <use xlink:href="#path-1"></use>
                    </mask>
                    <use id="Mask" fill="#D8D8D8" xlink:href="#path-1"></use>
                    <g mask="url(#mask-2)">
                        <g transform="translate(-2.969362, -2.175105)">
                            <polygon id="Rectangle" fill="#006EC1" points="0 0 26.7242614 0 26.7242614 6.96033566 16.1031776 6.96033566 0 6.96033566"></polygon>
                            <rect id="Rectangle-Copy" fill="#009EE5" x="0" y="6.96033566" width="26.7242614" height="6.96033566"></rect>
                            <rect id="Rectangle-Copy-2" fill="#51BCEC" x="0" y="13.9206713" width="26.7242614" height="6.96033566"></rect>
                            <rect id="Rectangle-Copy-3" fill="#89D1F3" x="0" y="20.881007" width="26.7242614" height="6.96033566"></rect>
                        </g>
                    </g>
                </g>
                <polygon id="T" fill="#FFFFFF" fill-rule="nonzero" points="12.577048 16.8369231 10.2362637 16.8369231 10.2362637 8.15740541 7.07692308 8.15740541 7.07692308 6.20307692 15.5784216 6.20307692 15.9230769 8.15740541 12.577048 8.15740541"></polygon>
                <polygon id="Path-4-Copy" stroke="#006EC1" points="11.6114842 23.9261538 1.87834894 18.4816161 0 3.87894162 11.6114842 0 23 3.87894162 21.1310125 18.4816161"></polygon>
            </g>
        </g>
    </g>
</svg>