<?xml version="1.0" encoding="UTF-8"?>
<svg width="21px" height="24px" viewBox="0 0 21 24" version="1.1" xmlns="http://www.w3.org/2000/svg" xmlns:xlink="http://www.w3.org/1999/xlink">
    <!-- Generator: Sketch 55.2 (78181) - https://sketchapp.com -->
    <title>Group 6</title>
    <desc>Created with Sketch.</desc>
    <g id="Drafts" stroke="none" stroke-width="1" fill="none" fill-rule="evenodd">
        <g id="Artboard-Copy" transform="translate(-220.000000, -734.000000)" fill="#1973B8" fill-rule="nonzero">
            <g id="Group-6" transform="translate(220.000000, 734.000000)">
                <g id="Group-5" transform="translate(0.000000, 15.272727)">
                    <path d="M0.597158058,3.7496424 C0.294082302,3.5563545 0.0831338436,3.22712863 0.0197733317,2.84852186 C-0.0435871802,2.46991509 0.0469796859,2.07980829 0.267662914,1.78076479 C0.645419083,1.34757213 1.22726075,1.21514393 1.73062135,1.44779285 L5.53958522,3.11265258 C5.63051912,3.15893692 5.72932722,3.1836036 5.82954095,3.18503779 L9.41444812,3.18503779 C9.61826028,3.18503779 9.78348268,3.00355321 9.78348268,2.77968064 C9.78354904,2.67345503 9.74425354,2.57177462 9.67463946,2.49803963 C9.60502537,2.42430464 9.51108891,2.38486622 9.41444812,2.38880052 L7.60881473,2.38880052 C7.07341219,2.40784371 6.59735112,2.01715796 6.46217163,1.44779285 C6.3895671,1.09347173 6.46861773,0.722138341 6.67673077,0.439920096 C6.88484382,0.15770185 7.1991189,-0.0043464586 7.5297359,8.87260365e-05 L13.7110648,8.87260365e-05 L15.9911712,1.25959131 L15.9911712,7.26756341 C16.0029429,7.28995947 16.0029429,7.31755255 15.9911712,7.33994861 L9.22993084,8.70079049 C8.87347546,8.76965264 8.50629692,8.70328378 8.18872618,8.51258895 L0.597158058,3.7496424 Z" id="Path"></path>
                    <path d="M17,1.90744467 L17,6.81982805 C17,7.2707882 17.4022829,7.63636364 17.898524,7.63636364 L20.1158494,7.63636364 C20.3528418,7.63636364 20.5799232,7.54994704 20.7461343,7.39642625 C20.9123453,7.24290545 21.0037662,7.03516652 20.999881,6.81982805 L20.999881,1.90744467 C21.0037662,1.69210621 20.9123453,1.48436727 20.7461343,1.33084648 C20.5799232,1.17732568 20.3528418,1.09090909 20.1158494,1.09090909 L17.898524,1.09090909 C17.6602206,1.09090909 17.4316775,1.17693671 17.2631716,1.33006683 C17.0946656,1.48319696 17,1.69088597 17,1.90744467 L17,1.90744467 Z M18.9274789,2.36839218 C19.3808296,2.36073989 19.7591509,2.68123166 19.7825259,3.09273825 L19.7825259,3.09273825 C19.7904591,3.51451303 19.420667,3.86228464 18.9565425,3.86953571 C18.4924181,3.87678677 18.10969,3.54077185 18.1016649,3.11899852 C18.0936398,2.69722518 18.4633561,2.34938697 18.9274789,2.34205232 L18.9274789,2.36839218 Z" id="Shape"></path>
                </g>
                <g id="API_b" transform="translate(5.000000, 0.000000)">
                    <path d="M11.1691667,0.00157833866 L1.80375,0.00157833866 C1.33824502,-0.0127690843 0.886614998,0.175941996 0.548306235,0.526158505 C0.209997471,0.876375015 0.0127512377,1.35937924 0,1.86881648 L0,9.66379477 C0.0294823691,10.7223466 0.836400409,11.5550146 1.80375,11.5251052 L2.50791667,11.5251052 L2.50791667,13.5227536 C2.51841541,13.7789462 2.6583176,14.007457 2.87083333,14.1155276 C2.95762844,14.1646702 3.0549553,14.1872011 3.1525,14.1807328 C3.28716573,14.1797701 3.4187551,14.1365686 3.53166667,14.0562502 L6.60833333,11.507322 L11.1691667,11.507322 C12.1396781,11.5507895 12.9589708,10.7258163 13,9.66379477 L13,1.86881648 C12.9859202,1.35459643 12.78449,0.867899091 12.4405869,0.517157687 C12.0966838,0.166416283 11.6388783,-0.0192304921 11.1691667,0.00157833866 Z M11.7108333,9.64601155 C11.6962487,9.93843227 11.468991,10.1633205 11.2016667,10.1498695 L6.37541667,10.1498695 C6.24160934,10.1515343 6.11066371,10.1924774 5.99625,10.2684243 L3.79166667,12.0941682 L3.79166667,10.8256318 C3.77992413,10.4463024 3.49389266,10.1464354 3.14708333,10.1498695 L1.80375,10.1498695 C1.66995273,10.1664208 1.53585834,10.1216745 1.43326369,10.026241 C1.33066903,9.93080756 1.26871175,9.79318672 1.26208333,9.64601155 L1.26208333,1.89845518 C1.26871175,1.75128002 1.33066903,1.61365918 1.43326369,1.51822571 C1.53585834,1.42279224 1.66995273,1.37804598 1.80375,1.39459727 L11.19625,1.39459727 C11.4645758,1.38105698 11.6934078,1.60511952 11.7108333,1.89845518 L11.7108333,9.64601155 Z" id="Shape"></path>
                    <path d="M3.61032021,7.29482237 L3.56340672,7.29482237 L3.56340672,7.24984084 C3.55743749,7.11287619 3.55743749,6.97554579 3.56340672,6.83858114 C3.56383025,6.59266561 3.54654496,6.34729241 3.51180188,6.10602479 C3.49044602,5.90328848 3.43238581,5.71109715 3.34291331,5.54696863 C3.3267034,5.51020626 3.3078437,5.4757624 3.28661712,5.4441537 C3.31266087,5.40408999 3.33620046,5.36109915 3.35698735,5.31563504 C3.43915394,5.14735261 3.49358338,4.95658151 3.51649323,4.75657888 C3.53868863,4.52641962 3.55121951,4.29470484 3.55402402,4.06257813 C3.55402402,3.80554082 3.55402402,3.67702216 3.55402402,3.59991097 L3.58686346,3.59991097 C3.70713513,3.57766788 3.81643381,3.49244784 3.89180116,3.36215145 C3.96547744,3.2270111 4.00351607,3.06164052 3.9997022,2.89305835 C4.00472652,2.69319405 3.94597411,2.5002367 3.8387616,2.3644899 C3.73154909,2.2287431 3.58650121,2.16365931 3.44143164,2.18620573 C3.19148256,2.17391845 2.94829673,2.29883154 2.76587735,2.53320611 C2.58996173,2.77236208 2.49331189,3.09984136 2.49847045,3.43926264 C2.49847045,3.86765817 2.49847045,4.15039922 2.49847045,4.28748578 C2.50622248,4.37283591 2.50622248,4.45917298 2.49847045,4.5445231 C2.49330805,4.57978719 2.48204664,4.61284121 2.465631,4.64091209 C2.39686186,4.71114647 2.32297039,4.77144307 2.24513759,4.82083821 C2.08379513,4.95736407 1.99012337,5.20410646 2.00118743,5.4634315 C1.99273673,5.62586655 2.0296256,5.78663808 2.10439711,5.9132468 C2.16477384,6.00168366 2.2343258,6.07746516 2.31081648,6.13815445 C2.35431615,6.17285331 2.39383694,6.2161599 2.42810021,6.26667311 C2.45035216,6.3155021 2.4647463,6.37026944 2.47032235,6.42732143 C2.47473846,6.52575956 2.47473846,6.62447621 2.47032235,6.72291434 C2.47032235,6.9092664 2.47032235,7.15345185 2.47032235,7.46189662 C2.4691872,7.68703096 2.51124926,7.90862374 2.59229743,8.10448991 C2.67151003,8.30070296 2.79043872,8.46137293 2.93476592,8.56715708 C3.07960076,8.67027806 3.24067357,8.72322878 3.40390085,8.72137947 C3.55088991,8.7477761 3.69894535,8.68467031 3.80904667,8.54869383 C3.91914799,8.41271735 3.98024868,8.21751276 3.97624545,8.01452685 C3.99585251,7.84339507 3.97094572,7.66826707 3.90587521,7.51973002 C3.83118941,7.39704953 3.72582239,7.3168687 3.61032021,7.29482237 Z" id="Path"></path>
                    <path d="M4.14418094,6.71241191 C4.05137849,6.81244216 3.99942031,6.94957609 4.00017925,7.09247749 C3.99634327,7.24692837 4.05423302,7.39547342 4.15858111,7.4989365 C4.25274274,7.58963938 4.37422739,7.63856272 4.49938509,7.63618241 C4.62561086,7.63981869 4.74805595,7.58861202 4.84018907,7.49365782 C4.94188323,7.3935225 5,7.25050892 5,7.10039552 C5,6.95028212 4.94188323,6.80726854 4.84018907,6.70713323 C4.74891068,6.60291338 4.6227307,6.54446921 4.49115461,6.54546712 C4.35957852,6.54646502 4.23414354,6.60681749 4.14418094,6.71241191 Z" id="Path"></path>
                    <path d="M6.14418094,6.71241191 C6.05137849,6.81244216 5.99942031,6.94957609 6.00017925,7.09247749 C5.99634327,7.24692837 6.05423302,7.39547342 6.15858111,7.4989365 C6.25274274,7.58963938 6.37422739,7.63856272 6.49938509,7.63618241 C6.62561086,7.63981869 6.74805595,7.58861202 6.84018907,7.49365782 C6.94188323,7.3935225 7,7.25050892 7,7.10039552 C7,6.95028212 6.94188323,6.80726854 6.84018907,6.70713323 C6.74891068,6.60291338 6.6227307,6.54446921 6.49115461,6.54546712 C6.35957852,6.54646502 6.23414354,6.60681749 6.14418094,6.71241191 Z" id="Path"></path>
                    <path d="M8.85413234,6.71253134 C8.76239483,6.60594183 8.63416436,6.54545455 8.4999367,6.54545455 C8.36570903,6.54545455 8.23747856,6.60594183 8.14574105,6.71253134 C8.05193444,6.81254866 7.99941404,6.94966486 8.00018119,7.09254779 C7.9963037,7.2469787 8.05481985,7.39550456 8.16029703,7.49895427 C8.25547754,7.58964542 8.37827673,7.63856244 8.50478869,7.63618243 C8.63238029,7.63981825 8.7561503,7.5886182 8.84928035,7.49367626 C8.94987655,7.3895416 9.00463406,7.24351057 8.9996922,7.09254779 C9.00045935,6.94966486 8.94793895,6.81254866 8.85413234,6.71253134 Z" id="Path"></path>
                    <path d="M10.6895272,4.76636896 C10.649718,4.73232729 10.6134278,4.69104049 10.5816395,4.64362695 C10.5558684,4.60141525 10.5395703,4.54979027 10.5347318,4.49504452 C10.5347318,4.49504452 10.5347318,4.30770146 10.5065872,3.44204732 C10.5079008,3.21483993 10.4641065,2.99145765 10.3799364,2.79603676 C10.3003782,2.60240831 10.1813194,2.44517955 10.0375103,2.34382937 C9.89269332,2.24016 9.73164042,2.18692769 9.56843332,2.18878684 C9.42237767,2.15987975 9.27454393,2.22180546 9.16491136,2.35781717 C9.05527878,2.49382887 8.99517357,2.68987511 9.00085022,2.89293834 C8.9969126,3.06546024 9.03671767,3.23448661 9.11342869,3.37098616 C9.18846319,3.49813246 9.29577455,3.58126361 9.41363793,3.60354996 L9.44647331,3.60354996 C9.44647331,3.60354996 9.44647331,3.60354996 9.44647331,3.64231059 C9.44647331,3.68107122 9.44647331,3.8813345 9.44647331,4.06221745 C9.44615763,4.25003658 9.45398953,4.43771395 9.46992716,4.62424664 C9.48528784,4.7852679 9.51360658,4.94343635 9.55436101,5.09583434 C9.59415285,5.22811869 9.64963464,5.35037351 9.71853794,5.45760025 C9.69225591,5.49528288 9.6686916,5.53638959 9.6481764,5.58034226 C9.56697165,5.74308439 9.51254249,5.92827864 9.48869024,6.12299113 C9.46134182,6.36234934 9.44722895,6.60422178 9.44647331,6.84652295 C9.44647331,7.02740591 9.44647331,7.16306812 9.44647331,7.2535096 C9.44647331,7.34395108 9.44647331,7.29227023 9.44647331,7.30519045 L9.41363793,7.30519045 C9.2507619,7.33709107 9.11192501,7.48417223 9.04775791,7.69279678 C9.01563984,7.79465418 8.99964893,7.9047672 9.00085022,8.01580206 C8.99185915,8.22138516 9.05458483,8.42055176 9.16971792,8.55199082 C9.28333851,8.67356678 9.42469745,8.73540595 9.56843332,8.72641367 C9.81835151,8.73876629 10.0615073,8.61318892 10.2439041,8.37756797 C10.4222439,8.13624447 10.5206333,7.80449942 10.5159687,7.46023298 C10.5159687,7.16306812 10.5159687,6.91758411 10.5159687,6.71732084 C10.5174888,6.59397194 10.5253262,6.47092443 10.5394226,6.34909482 C10.5449502,6.31438732 10.558043,6.28283267 10.5769487,6.25865334 C10.6313888,6.18957243 10.691162,6.12891604 10.755198,6.07777039 C10.9165205,5.94051849 11.0101807,5.69246394 10.999118,5.43175983 C11.0038747,5.26607191 10.9656269,5.1034673 10.8912303,4.97309234 C10.8336223,4.88795939 10.7652824,4.81791853 10.6895272,4.76636896 Z" id="Path"></path>
                </g>
            </g>
        </g>
    </g>
</svg>