<?xml version="1.0" encoding="UTF-8"?>
<svg width="21px" height="21px" viewBox="0 0 21 21" version="1.1" xmlns="http://www.w3.org/2000/svg" xmlns:xlink="http://www.w3.org/1999/xlink">
    <!-- Generator: Sketch 55.2 (78181) - https://sketchapp.com -->
    <title>Calidad_menu</title>
    <desc>Created with Sketch.</desc>
    <g id="Producto" stroke="none" stroke-width="1" fill="none" fill-rule="evenodd">
        <g id="03_E_Versiones-de-release-2" transform="translate(-28.000000, -205.000000)">
            <g id="Calidad_menu" transform="translate(26.000000, 202.000000)">
                <polygon id="Bounding-Box" points="0.03 0.97 24.05 0.97 24.05 25 0.03 25"></polygon>
                <g id="quality-funds-copy-6" transform="translate(2.000000, 3.000000)" fill-rule="nonzero">
                    <path d="M18.81,5.75 C19.28,6.48 20.7,6.85 20.88,7.67 C21.06,8.49 20,9.49 20,10.31 C20,11.13 21,12.23 20.84,12.96 C20.68,13.69 19.15,14.14 18.77,14.87 C18.39,15.6 18.77,16.97 18.11,17.6 C17.45,18.23 16.04,17.79 15.28,18.24 C14.52,18.69 14.15,20.07 13.28,20.24 C12.41,20.41 11.4,19.42 10.55,19.42 C9.7,19.42 8.55,20.51 7.82,20.33 C7.09,20.15 6.59,18.69 5.82,18.33 C5.05,17.97 3.65,18.33 2.99,17.7 C2.33,17.07 2.8,15.7 2.33,14.96 C1.86,14.22 0.45,13.87 0.26,13.05 C0.07,12.23 1.1,11.22 1.1,10.4 C1.1,9.58 0.1,8.49 0.26,7.76 C0.45,6.85 1.86,6.48 2.33,5.76 C2.8,5.04 2.33,3.67 2.99,3.03 C3.65,2.39 5.06,2.85 5.82,2.39 C6.58,1.93 6.82,0.57 7.7,0.29 C8.58,0.01 9.59,1.12 10.44,1.12 C11.29,1.12 12.44,0.12 13.26,0.29 C14.08,0.46 14.49,1.94 15.26,2.29 C16.03,2.64 17.43,2.29 18.09,2.93 C18.75,3.57 18.34,5 18.81,5.75 Z M6.23,11 L9.13,13.78 L14.63,8.19 L13.5,7.19 L9.13,11.67 L7.3,10 L6.23,11 Z" id="Shape" fill="#1973B8"></path>
                    <polygon id="Path-17" fill="#FFFFFF" points="6.23 11 7.3 9.97 9.13 11.69 13.51 7.21 14.63 8.19 9.13 13.78"></polygon>
                </g>
            </g>
        </g>
    </g>
</svg>