<?xml version="1.0" encoding="UTF-8"?>
<svg width="22px" height="6px" viewBox="0 0 22 6" version="1.1" xmlns="http://www.w3.org/2000/svg" xmlns:xlink="http://www.w3.org/1999/xlink">
    <!-- Generator: Sketch 55.2 (78181) - https://sketchapp.com -->
    <title>Navigation/More Copy 2</title>
    <desc>Created with Sketch.</desc>
    <defs>
        <path d="M3.75,14.5 C2.23121694,14.5 1,13.2687831 1,11.75 C1,10.2312169 2.23121694,9 3.75,9 C5.26878306,9 6.5,10.2312169 6.5,11.75 C6.5,13.2687831 5.26878306,14.5 3.75,14.5 Z M12,14.5 C10.4812169,14.5 9.25,13.2687831 9.25,11.75 C9.25,10.2312169 10.4812169,9 12,9 C13.5187831,9 14.75,10.2312169 14.75,11.75 C14.75,13.2687831 13.5187831,14.5 12,14.5 Z M20.25,14.5 C18.7312169,14.5 17.5,13.2687831 17.5,11.75 C17.5,10.2312169 18.7312169,9 20.25,9 C21.7687831,9 23,10.2312169 23,11.75 C23,13.2687831 21.7687831,14.5 20.25,14.5 Z" id="path-1"></path>
    </defs>
    <g id="Symbols" stroke="none" stroke-width="1" fill="none" fill-rule="evenodd">
        <g id="Produccion" transform="translate(-962.000000, -28.000000)">
            <g id="Group-2">
                <g id="Navigation/More" transform="translate(961.000000, 19.000000)">
                    <polygon id="Bounding-Box" points="0 0 24 0 24 24 0 24"></polygon>
                    <mask id="mask-2" fill="white">
                        <use xlink:href="#path-1"></use>
                    </mask>
                    <use id="Mask" fill="#FFFFFF" fill-rule="evenodd" xlink:href="#path-1"></use>
                    <g id="Primary/Medium-Blue/Medium-Blue" mask="url(#mask-2)" fill="#FFFFFF" fill-rule="evenodd">
                        <rect id="Rectangle" x="0" y="0" width="24" height="24"></rect>
                    </g>
                </g>
            </g>
        </g>
    </g>
</svg>