<?xml version="1.0" encoding="UTF-8"?>
<svg width="20px" height="20px" viewBox="0 0 20 20" version="1.1" xmlns="http://www.w3.org/2000/svg" xmlns:xlink="http://www.w3.org/1999/xlink">
    <!-- Generator: Sketch 55.2 (78181) - https://sketchapp.com -->
    <title>Validations/calidad error</title>
    <desc>Created with Sketch.</desc>
    <g id="Validations/calidad-error" stroke="none" stroke-width="1" fill="none" fill-rule="evenodd">
        <g id="Group" transform="translate(-1.000000, -1.000000)">
            <polygon id="Bounding-Box" points="0 0 21 0 21 21 0 21"></polygon>
            <g id="quality-funds-copy-7" transform="translate(1.750000, 1.750000)" fill="#D9534F" fill-rule="nonzero">
                <path d="M15.7184063,4.95689086 C16.1188895,5.59190392 17.3203388,5.90941044 17.4805321,6.62380013 C17.6407253,7.33818982 16.7596624,8.21133278 16.7596624,8.92572247 C16.7596624,9.71948879 17.6407253,10.5926317 17.4805321,11.2276448 C17.3203388,11.9420345 16.0387928,12.259541 15.7184063,12.8945541 C15.3179232,13.5295671 15.7184063,14.7202166 15.15773,15.275853 C14.5970536,15.8314895 13.3956042,15.4346063 12.7548312,15.8314895 C12.1140582,16.2283726 11.7936717,17.4190221 11.0728021,17.5777754 C10.3519325,17.7365286 9.47086962,16.8633857 8.75,16.8633857 C8.02913038,16.8633857 7.06797089,17.8159053 6.42719789,17.657152 C5.70632827,17.4983987 5.38594177,16.2283726 4.74516878,15.9108661 C4.10439578,15.5139829 2.90294641,15.9108661 2.34227004,15.3552297 C1.78159367,14.7995932 2.18207679,13.6089438 1.78159367,12.9739307 C1.38111055,12.3389176 0.179661179,12.0214111 0.0194679296,11.3070214 C-0.140725319,10.5926317 0.74033755,9.71948879 0.74033755,9.0050991 C0.74033755,8.21133278 -0.140725319,7.33818982 0.0194679296,6.70317677 C0.179661179,5.90941044 1.38111055,5.59190392 1.78159367,4.95689086 C2.18207679,4.3218778 1.78159367,3.13122832 2.34227004,2.5755919 C2.90294641,2.01995547 4.10439578,2.41683863 4.74516878,2.01995547 C5.38594177,1.62307231 5.62623164,0.432422828 6.34710127,0.194292931 C7.06797089,0.0355396672 7.94903376,0.908682621 8.66990338,0.908682621 C9.390773,0.908682621 10.3519325,0.0355396672 11.0728021,0.194292931 C11.7936717,0.353046196 12.1140582,1.62307231 12.7548312,1.94057884 C13.3956042,2.337462 14.5970536,1.94057884 15.15773,2.49621526 C15.7184063,3.05185169 15.3179232,4.3218778 15.7184063,4.95689086 Z M11.2813901,12.1775424 L12.2761194,11.2340959 L9.78950687,8.87617923 L12.2728182,6.5213263 L11.2794936,5.57941176 L8.79618236,7.9342647 L6.31617232,5.58260876 L5.32130254,6.52605518 L7.80327928,8.88237341 L5.2238806,11.3286737 L6.21720511,12.2705882 L8.79667403,9.82428794 L11.2813901,12.1775424 Z" id="Shape"></path>
            </g>
            <polygon id="Path" fill="#FFFFFF" fill-rule="nonzero" points="13.0313901 13.9275424 10.546674 11.5742879 7.96720511 14.0205882 6.9738806 13.0786737 9.55327928 10.6323734 7.07130254 8.27605518 8.06617232 7.33260876 10.5461824 9.6842647 13.0294936 7.32941176 14.0228182 8.2713263 11.5395069 10.6261792 14.0261194 12.9840959"></polygon>
        </g>
    </g>
</svg>