<?xml version="1.0" encoding="UTF-8"?>
<svg width="24px" height="24px" viewBox="0 0 24 24" version="1.1" xmlns="http://www.w3.org/2000/svg" xmlns:xlink="http://www.w3.org/1999/xlink">
    <!-- Generator: Sketch 55.2 (78181) - https://sketchapp.com -->
    <title>gitlab-icon-1-color-white-rgb</title>
    <desc>Created with Sketch.</desc>
    <g id="Producto" stroke="none" stroke-width="1" fill="none" fill-rule="evenodd">
        <g id="03_G_nuevas-versiones-de-release" transform="translate(-1008.000000, -916.000000)" fill="#ffffff" fill-rule="nonzero">
            <g id="Group-29" transform="translate(1008.000000, 916.000000)">
                <g id="gitlab-icon-1-color-white-rgb">
                    <path d="M23.8927059,13.4361905 L22.6376471,9.27390476 C22.630994,9.23557775 22.6208263,9.19805983 22.6072941,9.16190476 L20.0894118,0.796190476 C19.9518203,0.353463441 19.5662729,0.056259909 19.1336471,0.0594034787 C18.7019333,0.0566030654 18.3189328,0.357845495 18.1891765,0.802285714 L15.7891765,8.77409524 L8.21435294,8.77409524 L5.81082353,0.802285714 C5.68153139,0.359462737 5.30074073,0.058609258 4.87058824,0.0594034787 L4.86494118,0.0594034787 C4.43194815,0.0594034787 4.04780512,0.359272427 3.912,0.803047619 L1.392,9.17866667 C1.392,9.18628571 1.38635294,9.19238095 1.38423529,9.2 L0.106588235,13.4369524 C-0.0860213108,14.0744571 0.124095331,14.7732982 0.626823529,15.1672381 L11.6654118,23.8247619 C11.8647768,23.980525 12.1346437,23.9789838 12.3324706,23.8209524 L12.3324706,23.8209524 L23.3731765,15.1672381 C23.8761409,14.7731358 24.0860416,14.0737565 23.8927059,13.4361905 Z M7.39270588,9.99771429 L10.4696471,20.2194286 L3.08329412,9.99771429 L7.39270588,9.99771429 Z M13.5338824,20.2217143 L16.4844706,10.4220952 L16.6115294,9.99771429 L20.9244706,9.99771429 L14.2418824,19.2380952 L13.5338824,20.2217143 Z M19.1435294,1.58704762 L21.3056471,8.77409524 L16.9778824,8.77409524 L19.1435294,1.58704762 Z M15.4228235,9.99314286 L13.2790588,17.1139048 L12,21.3546667 L8.58211765,9.99314286 L15.4228235,9.99314286 Z M4.86,1.58704762 L7.02635294,8.77409524 L2.70141176,8.77409524 L4.86,1.58704762 Z M1.29105882,14.1813333 C1.18423104,14.0974761 1.1397409,13.9487954 1.18094118,13.8133333 L2.12964706,10.6666667 L9.08752941,20.2948571 L1.29105882,14.1813333 Z M22.7096471,14.1813333 L14.9124706,20.2925714 L14.9385882,20.256 L21.8703529,10.6666667 L22.8190588,13.8118095 C22.8607517,13.9473325 22.8165224,14.0964032 22.7096471,14.1805714 L22.7096471,14.1813333 Z" id="Shape"></path>
                </g>
            </g>
        </g>
    </g>
</svg>