<?xml version="1.0" encoding="UTF-8"?>
<svg width="20px" height="20px" viewBox="0 0 20 20" version="1.1" xmlns="http://www.w3.org/2000/svg" xmlns:xlink="http://www.w3.org/1999/xlink">
    <!-- Generator: Sketch 55.2 (78181) - https://sketchapp.com -->
    <title>Actions/Edit Copy</title>
    <desc>Created with Sketch.</desc>
    <defs>
        <path d="M12.8599095,6.54440417 L14.6696833,8.36285871 L17.3851584,8.36285871 L14.2173756,5.1807678 L17.1161086,2.26885871 C17.4704072,1.91294962 18.0406335,1.9087678 18.3962896,2.26604053 L21.6438914,5.52840417 C21.9965611,5.8827678 22.0024434,6.45140417 21.641086,6.81440417 L6.52497738,21.9992224 L2,21.9992224 L2,17.4536769 L12.8599095,6.54440417 Z M11.0909091,20.1818182 L22,20.1818182 L22,22 L9.27272727,22 L11.0909091,20.1818182 Z" id="path-1"></path>
    </defs>
    <g id="Producto" stroke="none" stroke-width="1" fill="none" fill-rule="evenodd">
        <g id="04_E_Entornos_calidad" transform="translate(-1228.000000, -777.000000)">
            <g id="Actions/Edit" transform="translate(1226.000000, 775.000000)">
                <polygon id="Bounding-Box" points="0 0 24 0 24 24 0 24"></polygon>
                <mask id="mask-2" fill="white">
                    <use xlink:href="#path-1"></use>
                </mask>
                <use id="Mask" fill="#FFFFFF" fill-rule="evenodd" xlink:href="#path-1"></use>
                <g id="Primary/Medium-Blue/Medium-Blue" mask="url(#mask-2)" fill="#FFFFFF" fill-rule="evenodd">
                    <rect id="Rectangle" x="0" y="0" width="24" height="22"></rect>
                </g>
            </g>
        </g>
    </g>
</svg>