<?xml version="1.0" encoding="UTF-8"?>
<svg width="50px" height="50px" viewBox="0 0 50 50" version="1.1" xmlns="http://www.w3.org/2000/svg" xmlns:xlink="http://www.w3.org/1999/xlink">
    <!-- Generator: Sketch 55.2 (78181) - https://sketchapp.com -->
    <title>Group 40</title>
    <desc>Created with Sketch.</desc>
    <defs>
        <polygon id="path-1" points="0.199032922 0.160288066 49.2156996 0.160288066 49.2156996 49.1768519 0.199032922 49.1768519"></polygon>
        <polygon id="path-3" points="0.199197531 0.160288066 41.7506379 0.160288066 41.7506379 42.0097531 0.199197531 42.0097531"></polygon>
        <polygon id="path-5" points="0.195211803 0.154876107 36.2648148 0.154876107 36.2648148 16.1293973 0.195211803 16.1293973"></polygon>
        <path d="M0.133127572,7.26893004 C0.133127572,11.1786008 3.37798354,14.4004115 7.37921811,14.4004115 L7.37921811,14.4004115 C11.3804527,14.4004115 14.6253086,11.1786008 14.6253086,7.26893004 L14.6253086,7.26893004 C14.6253086,3.22860082 11.3804527,0.00555555556 7.37921811,0.00555555556 L7.37921811,0.00555555556 C3.37798354,0.00555555556 0.133127572,3.22860082 0.133127572,7.26893004" id="path-7"></path>
        <path d="M8.75658436,0.1218107 C3.98786008,0.1218107 0.0882716049,4.43847737 0.0882716049,9.20514403 L0.0882716049,9.20514403 L0.0882716049,11.2814815 L20.0199588,11.2814815 L20.0199588,9.20514403 C20.0199588,4.43847737 16.1183128,0.1218107 11.3510288,0.1218107 L11.3510288,0.1218107" id="path-9"></path>
        <path d="M0.133127572,7.26893004 C0.133127572,11.1786008 3.37777778,14.4004115 7.37901235,14.4004115 L7.37901235,14.4004115 C11.3812757,14.4004115 14.6251029,11.1786008 14.6251029,7.26893004 L14.6251029,7.26893004 C14.6251029,3.22860082 11.3812757,0.00555555556 7.37901235,0.00555555556 L7.37901235,0.00555555556 C3.37777778,0.00555555556 0.133127572,3.22860082 0.133127572,7.26893004" id="path-11"></path>
        <path d="M8.7563786,0.1218107 C3.98765432,0.1218107 0.0880658436,4.43847737 0.0880658436,9.20514403 L0.0880658436,9.20514403 L0.0880658436,11.2814815 L20.0197531,11.2814815 L20.0197531,9.20514403 C20.0197531,4.43847737 16.11893,0.1218107 11.350823,0.1218107 L11.350823,0.1218107" id="path-13"></path>
        <polygon id="path-15" points="0 0.0938322288 34.9228064 0.0938322288 34.9228064 15.3971935 0 15.3971935"></polygon>
    </defs>
    <g id="Producto" stroke="none" stroke-width="1" fill="none" fill-rule="evenodd">
        <g id="00_A_home-(1)" transform="translate(-1060.000000, -508.000000)">
            <g id="Group-27-Copy" transform="translate(591.000000, 419.000000)">
                <g id="Group-24" transform="translate(469.000000, 89.000000)">
                    <g id="Group-40" transform="translate(0.000000, -0.000000)">
                        <g id="Group-12" transform="translate(0.000000, 0.045473)">
                            <g id="Group-3">
                                <mask id="mask-2" fill="white">
                                    <use xlink:href="#path-1"></use>
                                </mask>
                                <g id="Clip-2"></g>
                                <path d="M49.2156996,24.6686214 C49.2156996,38.2042181 38.2430658,49.1768519 24.7074691,49.1768519 C11.1716667,49.1768519 0.199032922,38.2042181 0.199032922,24.6686214 C0.199032922,11.1330247 11.1716667,0.160185185 24.7074691,0.160185185 C38.2430658,0.160185185 49.2156996,11.1330247 49.2156996,24.6686214" id="Fill-1" fill="#C8DDF5" mask="url(#mask-2)"></path>
                            </g>
                            <g id="Group-6">
                                <mask id="mask-4" fill="white">
                                    <use xlink:href="#path-3"></use>
                                </mask>
                                <g id="Clip-5"></g>
                                <path d="M7.38849794,42.0097531 C2.94693416,37.5737449 0.199197531,31.4420576 0.199197531,24.6686008 C0.199197531,11.1330041 11.1718313,0.160164609 24.707428,0.160164609 C31.3304733,0.160164609 37.3399383,2.7873251 41.7506379,7.05646091 L7.38849794,42.0097531 Z" id="Fill-4" fill="#C6E8FE" mask="url(#mask-4)"></path>
                            </g>
                            <g id="Group-9" transform="translate(13.580247, 6.172840)">
                                <mask id="mask-6" fill="white">
                                    <use xlink:href="#path-5"></use>
                                </mask>
                                <g id="Clip-8"></g>
                                <path d="M28.1273868,11.543107 C27.9658642,11.588786 27.7854115,11.5412551 27.667716,11.40607 C27.50393,11.2194444 27.5234774,10.9359053 27.7092798,10.7725309 C35.967716,3.54207819 35.471214,1.72664609 35.2884979,1.4367284 C35.1551646,1.22520576 34.585823,0.783847737 32.1942593,1.26965021 C30.3292387,1.64783951 27.7948765,2.50174897 24.6619547,3.8058642 C18.3664815,6.42685185 9.91709877,10.7813786 0.872037037,16.0677984 C0.658045267,16.193107 0.382325103,16.1212963 0.2568107,15.9062757 C0.131502058,15.6924897 0.203312757,15.4165638 0.418333333,15.2910494 C9.4977572,9.98487654 17.9843827,5.61121399 24.316893,2.97623457 C27.503107,1.64927984 30.0940535,0.779526749 32.0154527,0.389197531 C34.2068107,-0.0550411523 35.525535,0.13117284 36.0481687,0.958127572 C37.0615432,2.56532922 34.5282099,5.99722222 28.3004321,11.4492798 C28.2494033,11.4937243 28.1899383,11.5256173 28.1273868,11.543107" id="Fill-7" fill="#3EC3FF" mask="url(#mask-6)"></path>
                            </g>
                            <path d="M29.6014609,25.5116667 C33.6026955,25.5116667 36.8475514,22.289856 36.8475514,18.3801852 C36.8475514,14.339856 33.6026955,11.1166049 29.6014609,11.1166049 C25.6002263,11.1166049 22.3553704,14.339856 22.3553704,18.3801852 C22.3553704,22.289856 25.6002263,25.5116667 29.6014609,25.5116667" id="Fill-10" fill="#A17FEA"></path>
                        </g>
                        <g id="Group-15" transform="translate(22.222222, 11.156584)">
                            <mask id="mask-8" fill="white">
                                <use xlink:href="#path-7"></use>
                            </mask>
                            <g id="Clip-14"></g>
                            <path d="M12.8102263,2.44921811 L2.62133745,12.6379012 C3.89438272,13.7333745 5.55858025,14.4004527 7.37915638,14.4004527 C11.3805967,14.4004527 14.6252469,11.178642 14.6252469,7.26897119 C14.6252469,5.41176955 13.9396502,3.72740741 12.8102263,2.44921811" id="Fill-13" fill="#8B6DCC" mask="url(#mask-8)"></path>
                        </g>
                        <g id="Group-20" transform="translate(19.547325, 26.177160)">
                            <path d="M0.0881893004,11.2814815 L0.0881893004,9.20514403 C0.0881893004,4.43847737 3.98777778,0.1218107 8.75650206,0.1218107 L11.3509465,0.1218107 C16.1184362,0.1218107 20.0198765,4.43847737 20.0198765,9.20514403 L20.0198765,11.2814815 L0.0881893004,11.2814815" id="Fill-16" fill="#0CBDFE"></path>
                            <path d="M0.0881893004,11.2814815 L0.0881893004,9.20514403 C0.0881893004,4.43847737 3.98777778,0.1218107 8.75650206,0.1218107 L11.3509465,0.1218107 C16.1184362,0.1218107 20.0198765,4.43847737 20.0198765,9.20514403 L20.0198765,11.2814815 L0.0881893004,11.2814815" id="Fill-18" fill="#A17FEA"></path>
                        </g>
                        <g id="Group-23" transform="translate(19.547325, 26.177160)">
                            <mask id="mask-10" fill="white">
                                <use xlink:href="#path-9"></use>
                            </mask>
                            <g id="Clip-22"></g>
                            <path d="M16.0724691,1.65530864 L7.8800823,9.84769547 L7.8800823,11.2814403 L6.44633745,11.2814403 L20.02,11.2814403 L20.02,9.20510288 C20.02,6.17609053 18.4442798,3.32876543 16.0724691,1.65530864" id="Fill-21" fill="#8B6DCC" mask="url(#mask-10)"></path>
                        </g>
                        <path d="M17.461358,25.5571399 C21.4634156,25.5571399 24.7074486,22.3353292 24.7074486,18.4256584 C24.7074486,14.3853292 21.4634156,11.1620782 17.461358,11.1620782 C13.4601235,11.1620782 10.2152675,14.3853292 10.2152675,18.4256584 C10.2152675,22.3353292 13.4601235,25.5571399 17.461358,25.5571399" id="Fill-24" fill="#A17FEA"></path>
                        <g id="Group-28" transform="translate(10.082305, 11.156584)">
                            <mask id="mask-12" fill="white">
                                <use xlink:href="#path-11"></use>
                            </mask>
                            <g id="Clip-27"></g>
                            <path d="M12.8102263,2.44901235 L2.62113169,12.6379012 C3.89417695,13.7333745 5.55837449,14.4004527 7.37895062,14.4004527 C11.381214,14.4004527 14.6250412,11.178642 14.6250412,7.26897119 C14.6250412,5.79407407 14.1929424,4.42823045 13.4491152,3.288107 C13.2565226,2.99263374 13.0427366,2.71218107 12.8102263,2.44901235" id="Fill-26" fill="#8B6DCC" mask="url(#mask-12)"></path>
                        </g>
                        <path d="M7.49559671,37.458642 L7.49559671,35.3823045 C7.49559671,30.6156379 11.3949794,26.2989712 16.1637037,26.2989712 L18.7583539,26.2989712 C23.5262551,26.2989712 27.427284,30.6156379 27.427284,35.3823045 L27.427284,37.458642 L7.49559671,37.458642" id="Fill-29" fill="#A17FEA"></path>
                        <g id="Group-33" transform="translate(7.407407, 26.177160)">
                            <mask id="mask-14" fill="white">
                                <use xlink:href="#path-13"></use>
                            </mask>
                            <g id="Clip-32"></g>
                            <path d="M16.0728601,1.6555144 L6.44693416,11.2814403 L20.0199794,11.2814403 L20.0199794,9.84769547 L20.0199794,9.20510288 C20.0199794,6.19769547 18.4673045,3.36971193 16.1236831,1.69152263 C16.1068107,1.67958848 16.0897325,1.66744856 16.0728601,1.6555144" id="Fill-31" fill="#8B6DCC" mask="url(#mask-14)"></path>
                        </g>
                        <g id="Group-39" transform="translate(0.000000, 29.263580)">
                            <g id="Group-36">
                                <mask id="mask-16" fill="white">
                                    <use xlink:href="#path-15"></use>
                                </mask>
                                <g id="Clip-35"></g>
                                <path d="M11.4665432,11.8064403 C8.37580247,13.0864815 5.87600823,13.9218724 4.03588477,14.2905967 C1.6799177,14.7611728 1.11777778,14.3241358 0.984855967,14.113642 C0.876213992,13.941214 0.377654321,12.6609671 5.09411523,7.97845679 C5.2490535,7.82495885 5.27106996,7.58072016 5.14185185,7.40520576 C5.14,7.40335391 5.13773663,7.40006173 5.13588477,7.39820988 C4.97683128,7.18277778 4.66345679,7.15520576 4.47374486,7.34347737 C3.96037037,7.85109053 3.4873251,8.33853909 3.06242798,8.7986214 C0.432798354,11.6510905 -0.469465021,13.4922428 0.225390947,14.5934774 C0.744115226,15.4154938 2.04761317,15.6045885 4.21222222,15.1716667 C4.72888889,15.0681687 5.29308642,14.9301029 5.90502058,14.7574691 C7.54288066,14.2951235 9.5208642,13.5846296 11.8095473,12.636893 C17.8840329,10.1208436 25.9885597,5.97454733 34.6988477,0.932160494 C34.9056379,0.81281893 34.9832099,0.549032922 34.8720988,0.336069959 C34.8702469,0.334218107 34.8692181,0.330720165 34.867572,0.328662551 C34.7498765,0.106440329 34.4671605,0.0278395062 34.2498765,0.154176955 C25.5725103,5.17598765 17.5052263,9.30417695 11.4665432,11.8064403" id="Fill-34" fill="#3EC3FF" mask="url(#mask-16)"></path>
                            </g>
                            <path d="M13.1152469,9.0963786 C14.4068107,8.73176955 15.7496091,9.48320988 16.1140123,10.7747737 C16.4788272,12.0665432 15.7271811,13.40893 14.4356173,13.7735391 C13.1442593,14.1381481 11.8014609,13.3869136 11.4368519,12.095144 C11.0722428,10.8035802 11.8236831,9.46098765 13.1152469,9.0963786" id="Fill-37" fill="#006DCA"></path>
                        </g>
                    </g>
                </g>
            </g>
        </g>
    </g>
</svg>