<svg id="Capa_1" data-name="Capa 1" xmlns="http://www.w3.org/2000/svg" viewBox="0 0 21 24"><defs><style>.cls-1,.cls-3{fill:#fff;}.cls-2{fill:none;}.cls-3{fill-rule:evenodd;}</style></defs><title>Mesa de trabajo 1</title><path id="Path" class="cls-1" d="M.6,19A1.22,1.22,0,0,1,0,18.09a1.32,1.32,0,0,1,.25-1,1.27,1.27,0,0,1,1.46-.32l3.81,1.59a.59.59,0,0,0,.29.07H9.41A.37.37,0,0,0,9.78,18a.39.39,0,0,0-.11-.27.31.31,0,0,0-.26-.1H7.61a1.16,1.16,0,0,1-1.15-.9,1.2,1.2,0,0,1,.22-1,1.06,1.06,0,0,1,.85-.42h6.18L16,16.57v5.75a.06.06,0,0,1,0,.06L9.23,23.69a1.57,1.57,0,0,1-1-.18Z"/><path id="Shape" class="cls-1" d="M17,17.19v4.7a.85.85,0,0,0,.9.78h2.22a1,1,0,0,0,.63-.23.76.76,0,0,0,.25-.55v-4.7a.73.73,0,0,0-.25-.55,1,1,0,0,0-.63-.23H17.9a1,1,0,0,0-.64.23.71.71,0,0,0-.26.55Zm1.93.44a.79.79,0,0,1,.85.69h0a.79.79,0,0,1-.82.75.81.81,0,0,1-.86-.72.79.79,0,0,1,.83-.75Z"/><polygon id="Bounding-Box" class="cls-2" points="3.54 0.29 16.46 0.29 16.46 14.13 3.54 14.13 3.54 0.29"/><path class="cls-3" d="M13.63,6.07h0a1,1,0,0,1,1,1v6a1,1,0,0,1-1,1H6.33a1,1,0,0,1-1-1v-6a1,1,0,0,1,1-1h0V4a3.63,3.63,0,0,1,7.26,0Zm-1,0v-2a2.59,2.59,0,1,0-5.18,0v2ZM7.93,9.5v1.15H11l1-1.15Z"/><path id="path-1" class="cls-3" d="M13.63,6.07h0a1,1,0,0,1,1,1v6a1,1,0,0,1-1,1H6.33a1,1,0,0,1-1-1v-6a1,1,0,0,1,1-1h0V4a3.63,3.63,0,0,1,7.26,0Zm-1,0v-2a2.59,2.59,0,1,0-5.18,0v2ZM7.93,9.5v1.15H11l1-1.15Z"/></svg>