<svg id="Capa_1" data-name="Capa 1" xmlns="http://www.w3.org/2000/svg" viewBox="0 0 24 24"><defs><style>.cls-1{fill:#1973b8;}</style></defs><title>daemon_b</title><path class="cls-1" d="M22.88,8.35A11.38,11.38,0,0,0,10,1.4a1.17,1.17,0,0,0-.76.52A1.22,1.22,0,0,0,9,2.83a1.24,1.24,0,0,0,.53.77,1.17,1.17,0,0,0,.91.17,9,9,0,0,1,8.46,14.85L19,18a1.21,1.21,0,0,0-2.4-.36l-.52,3.51a1.2,1.2,0,0,0,.22.9,1.25,1.25,0,0,0,.8.48l3.52.52h.17A1.21,1.21,0,0,0,21,20.61l-.54-.08A11.38,11.38,0,0,0,22.88,8.35Z"/><path class="cls-1" d="M15,21.53a1.18,1.18,0,0,0-.91-.17A9,9,0,0,1,6,6.15l-.14.9a1.25,1.25,0,0,0,.23.9,1.17,1.17,0,0,0,.79.47,1.21,1.21,0,0,0,1.38-1l.53-3.51A1.24,1.24,0,0,0,8.55,3a1.22,1.22,0,0,0-.8-.48L4.24,2A1.21,1.21,0,0,0,2.86,3a1.17,1.17,0,0,0,.23.9,1.2,1.2,0,0,0,.79.48l.37.06a11.4,11.4,0,0,0,8,19.52,11.57,11.57,0,0,0,2.35-.24,1.22,1.22,0,0,0,.77-.52,1.18,1.18,0,0,0,.17-.91A1.16,1.16,0,0,0,15,21.53Z"/><path class="cls-1" d="M17.46,11.25,16,11c-.05-.15-.11-.29-.17-.44l.84-1.15a.37.37,0,0,0,0-.48L15.52,7.83a.38.38,0,0,0-.49,0l-1.09.82a4.51,4.51,0,0,0-.49-.21l-.18-1.33a.38.38,0,0,0-.37-.33H11.27a.38.38,0,0,0-.37.33L10.72,8.4a3.26,3.26,0,0,0-.5.2L9.14,7.79a.38.38,0,0,0-.49,0L7.51,9a.37.37,0,0,0,0,.48l.84,1.15c-.06.15-.12.29-.17.44l-1.43.21a.38.38,0,0,0-.32.37v1.63a.38.38,0,0,0,.33.37l1.45.21c.05.13.1.25.16.37l-.89,1.21a.38.38,0,0,0,0,.49L8.62,17a.39.39,0,0,0,.49,0l1.26-.93.29.12.24,1.54a.38.38,0,0,0,.37.31H12.9a.38.38,0,0,0,.37-.31l.24-1.56.29-.12,1.23.94a.38.38,0,0,0,.49,0l1.14-1.14a.38.38,0,0,0,0-.49l-.89-1.22c.06-.12.11-.24.16-.36l1.48-.21a.38.38,0,0,0,.33-.37V11.62A.38.38,0,0,0,17.46,11.25Zm-2.29,4.32-1.07-.81a.37.37,0,0,0-.39,0l-.16.08a5.19,5.19,0,0,1-.78.33l-.19,0a.38.38,0,0,0-.27.31l-.2,1.33h0l-.19-1.33a.38.38,0,0,0-.27-.31l-.2,0a3,3,0,0,1-.75-.31l-.09-.05a.38.38,0,0,0-.43,0l-1.07.81,0,0,.79-1.07a.39.39,0,0,0,0-.43l-.11-.16a2.61,2.61,0,0,1-.36-.84l-.06-.16a.37.37,0,0,0-.3-.25l-1.28-.2L9,12.26a.36.36,0,0,0,.32-.32l0-.18a2.59,2.59,0,0,1,.34-.9l.09-.16a.37.37,0,0,0,0-.39L9,9.35l0,0,.93.7a.38.38,0,0,0,.44,0l.14-.09a3,3,0,0,1,.9-.39l.19,0a.36.36,0,0,0,.31-.32l.15-1.14.2,1.15a.36.36,0,0,0,.31.31l.17,0a2.57,2.57,0,0,1,.9.38l.16.11a.38.38,0,0,0,.44,0l.93-.7,0,0-.73,1a.37.37,0,0,0,.06.51l.11.09a3.31,3.31,0,0,1,.3.82l0,.19a.36.36,0,0,0,.32.31l1.22.18-1.28.22a.37.37,0,0,0-.3.25l-.06.19a2.5,2.5,0,0,1-.36.81L14.4,14a.39.39,0,0,0,0,.43l.79,1.07Z"/><circle class="cls-1" cx="12.24" cy="12.35" r="1.29"/></svg>