<?xml version="1.0" encoding="UTF-8"?>
<svg width="24px" height="11px" viewBox="0 0 24 11" version="1.1" xmlns="http://www.w3.org/2000/svg" xmlns:xlink="http://www.w3.org/1999/xlink">
    <!-- Generator: Sketch 55.2 (78181) - https://sketchapp.com -->
    <title>Group 8</title>
    <desc>Created with Sketch.</desc>
    <g id="Drafts" stroke="none" stroke-width="1" fill="none" fill-rule="evenodd">
        <g id="Artboard-Copy" transform="translate(-234.000000, -1155.000000)" fill="#FFFFFF">
            <g id="Group-8" transform="translate(234.000000, 1155.000000)">
                <g id="Group-4">
                    <polygon id="Fill-1" points="9.230769 11 11.230769 11 11.230769 0 9.230769 0"></polygon>
                    <polygon id="Fill-2" points="21.3291449 0 18.0000463 3.92531823 14.6709477 0 12.3733473 0 16.8511998 5.27989837 12 11 14.2975078 11 18.0000463 6.63438441 21.7023996 11 24 11 19.1488928 5.27989837 23.6267453 0"></polygon>
                    <polygon id="Fill-3" points="0 0 0 1.96046252 0 4.4653456 0 6.42571355 0 11 2.2558996 11 2.2558996 6.42571355 8.30769231 6.42571355 8.30769231 4.4653456 2.2558996 4.4653456 2.2558996 1.96046252 8.30769231 1.96046252 8.30769231 0"></polygon>
                </g>
            </g>
        </g>
    </g>
</svg>