<?xml version="1.0" encoding="UTF-8"?>
<svg width="50px" height="50px" viewBox="0 0 50 50" version="1.1" xmlns="http://www.w3.org/2000/svg" xmlns:xlink="http://www.w3.org/1999/xlink">
    <!-- Generator: Sketch 55.2 (78181) - https://sketchapp.com -->
    <title>Group 74</title>
    <desc>Created with Sketch.</desc>
    <defs>
        <polygon id="path-1" points="0 0.362704918 49.6384426 0.362704918 49.6384426 49.999959 0 49.999959"></polygon>
        <path d="M2.575,0.131557377 C1.22254098,0.131557377 0.117213115,1.23893443 0.117213115,2.59139344 L0.117213115,2.59139344 L0.117213115,23.0897541 C0.117213115,24.442623 1.22254098,25.5479508 2.575,25.5479508 L2.575,25.5479508 L28.927459,25.5479508 C30.279918,25.5479508 31.3856557,24.442623 31.3856557,23.0897541 L31.3856557,23.0897541 L31.3856557,2.59139344 C31.3856557,1.23893443 30.279918,0.131557377 28.927459,0.131557377 L28.927459,0.131557377 L2.575,0.131557377 Z" id="path-3"></path>
        <path d="M0.0893442623,4.85532787 C0.0893442623,7.35942623 2.11803279,9.38852459 4.62213115,9.38852459 L4.62213115,9.38852459 C7.12581967,9.38852459 9.15655738,7.35942623 9.15655738,4.85532787 L9.15655738,4.85532787 C9.15655738,2.35163934 7.12581967,0.322540984 4.62213115,0.322540984 L4.62213115,0.322540984 C2.11803279,0.322540984 0.0893442623,2.35163934 0.0893442623,4.85532787 L0.0893442623,4.85532787 Z" id="path-5"></path>
        <path d="M0.0893442623,4.85532787 C0.0893442623,7.35942623 2.11803279,9.38852459 4.62213115,9.38852459 L4.62213115,9.38852459 C7.12581967,9.38852459 9.15655738,7.35942623 9.15655738,4.85532787 L9.15655738,4.85532787 C9.15655738,2.35163934 7.12581967,0.322540984 4.62213115,0.322540984 L4.62213115,0.322540984 C2.11803279,0.322540984 0.0893442623,2.35163934 0.0893442623,4.85532787 L0.0893442623,4.85532787 Z" id="path-7"></path>
        <path d="M2.575,0.131557377 C1.22254098,0.131557377 0.117213115,1.23893443 0.117213115,2.59139344 L0.117213115,2.59139344 L0.117213115,23.0897541 C0.117213115,24.442623 1.22254098,25.5479508 2.575,25.5479508 L2.575,25.5479508 L28.927459,25.5479508 C30.279918,25.5479508 31.3856557,24.442623 31.3856557,23.0897541 L31.3856557,23.0897541 L31.3856557,2.59139344 C31.3856557,1.23893443 30.279918,0.131557377 28.927459,0.131557377 L28.927459,0.131557377 L2.575,0.131557377 Z" id="path-9"></path>
        <path d="M0.290163934,0.131557377 L0.290163934,20.2741803 C0.290163934,21.6270492 1.39713115,22.7340164 2.75,22.7340164 L2.75,22.7340164 L23.1889344,22.7340164 L23.1889344,2.59139344 C23.1889344,1.23893443 22.0831967,0.131557377 20.7307377,0.131557377 L20.7307377,0.131557377" id="path-11"></path>
        <path d="M2.51598361,0.119672131 C1.16188525,0.119672131 0.056147541,1.225 0.056147541,2.57786885 L0.056147541,2.57786885 L0.056147541,23.077459 C0.056147541,24.4286885 1.16188525,25.5360656 2.51598361,25.5360656 L2.51598361,25.5360656 L28.8668033,25.5360656 C30.2192623,25.5360656 31.3245902,24.4286885 31.3245902,23.077459 L31.3245902,23.077459 L31.3245902,2.57786885 C31.3245902,1.225 30.2192623,0.119672131 28.8668033,0.119672131 L28.8668033,0.119672131 L2.51598361,0.119672131 Z" id="path-13"></path>
        <path d="M0.0282786885,4.84303279 C0.0282786885,7.34590164 2.05696721,9.37622951 4.56106557,9.37622951 L4.56106557,9.37622951 C7.06557377,9.37622951 9.0942623,7.34590164 9.0942623,4.84303279 L9.0942623,4.84303279 C9.0942623,2.33893443 7.06557377,0.309016393 4.56106557,0.309016393 L4.56106557,0.309016393 C2.05696721,0.309016393 0.0282786885,2.33893443 0.0282786885,4.84303279 L0.0282786885,4.84303279 Z" id="path-15"></path>
        <path d="M0.0282786885,4.84303279 C0.0282786885,7.34590164 2.05696721,9.37622951 4.56106557,9.37622951 L4.56106557,9.37622951 C7.06557377,9.37622951 9.0942623,7.34590164 9.0942623,4.84303279 L9.0942623,4.84303279 C9.0942623,2.33893443 7.06557377,0.309016393 4.56106557,0.309016393 L4.56106557,0.309016393 C2.05696721,0.309016393 0.0282786885,2.33893443 0.0282786885,4.84303279 L0.0282786885,4.84303279 Z" id="path-17"></path>
    </defs>
    <g id="Producto" stroke="none" stroke-width="1" fill="none" fill-rule="evenodd">
        <g id="00_A_home-(1)" transform="translate(-616.000000, -507.000000)">
            <g id="Group-27-Copy" transform="translate(591.000000, 419.000000)">
                <g id="Group-25" transform="translate(25.000000, 88.000000)">
                    <g id="Group-74" transform="translate(0.000000, -0.000000)">
                        <g id="Group-6" transform="translate(0.000000, 0.047131)">
                            <g id="Group-3">
                                <mask id="mask-2" fill="white">
                                    <use xlink:href="#path-1"></use>
                                </mask>
                                <g id="Clip-2"></g>
                                <path d="M49.6384426,25.1806967 C49.6384426,38.8884836 38.5261475,49.999959 24.8191803,49.999959 C11.112623,49.999959 -8.19672131e-05,38.8884836 -8.19672131e-05,25.1806967 C-8.19672131e-05,11.4741393 11.112623,0.362663934 24.8191803,0.362663934 C38.5261475,0.362663934 49.6384426,11.4741393 49.6384426,25.1806967" id="Fill-1" fill="#004283" mask="url(#mask-2)"></path>
                            </g>
                            <path d="M33.8453689,39.892377 L7.49331967,39.892377 C6.14045082,39.892377 5.03512295,38.7866393 5.03512295,37.4337705 L5.03512295,16.9358197 C5.03512295,15.5829508 6.14045082,14.4759836 7.49331967,14.4759836 L33.8453689,14.4759836 C35.1982377,14.4759836 36.3035656,15.5829508 36.3035656,16.9358197 L36.3035656,37.4337705 C36.3035656,38.7866393 35.1982377,39.892377 33.8453689,39.892377" id="Fill-4" fill="#FFFFFF"></path>
                        </g>
                        <g id="Group-10" transform="translate(4.918033, 14.391393)">
                            <mask id="mask-4" fill="white">
                                <use xlink:href="#path-3"></use>
                            </mask>
                            <g id="Clip-8"></g>
                            <polygon id="Fill-7" fill="#0385CB" mask="url(#mask-4)" points="-3.71311475 8.75901639 36.9627049 8.75901639 36.9627049 -0.492213115 -3.71311475 -0.492213115"></polygon>
                            <path d="M12.0251639,17.970123 C12.0251639,20.4742213 9.99483607,22.5033197 7.49114754,22.5033197 C4.98663934,22.5033197 2.95795082,20.4742213 2.95795082,17.970123 C2.95795082,15.4660246 4.98663934,13.4369262 7.49114754,13.4369262 C9.99483607,13.4369262 12.0251639,15.4660246 12.0251639,17.970123" id="Fill-9" fill="#0385CB" mask="url(#mask-4)"></path>
                        </g>
                        <g id="Group-17" transform="translate(7.786885, 27.506148)">
                            <g id="Group-13">
                                <mask id="mask-6" fill="white">
                                    <use xlink:href="#path-5"></use>
                                </mask>
                                <g id="Clip-12"></g>
                                <polygon id="Fill-11" fill="#0CBDFE" mask="url(#mask-6)" points="4.34954918 -1.15909836 4.34954918 5.13434426 9.22372951 0.26057377"></polygon>
                            </g>
                            <g id="Group-16">
                                <mask id="mask-8" fill="white">
                                    <use xlink:href="#path-7"></use>
                                </mask>
                                <g id="Clip-15"></g>
                                <polygon id="Fill-14" fill="#004283" mask="url(#mask-8)" points="4.65295082 5.13454918 8.65336066 0.993565574 10.1603279 4.21651639"></polygon>
                            </g>
                        </g>
                        <g id="Group-34" transform="translate(4.918033, 14.391393)">
                            <mask id="mask-10" fill="white">
                                <use xlink:href="#path-9"></use>
                            </mask>
                            <g id="Clip-19"></g>
                            <polygon id="Fill-18" fill="#0CBDFE" mask="url(#mask-10)" points="19.0155738 22.3586066 20.1254098 22.3586066 20.1254098 20.8045082 19.0155738 20.8045082"></polygon>
                            <polygon id="Fill-20" fill="#0385CB" mask="url(#mask-10)" points="21.0135246 22.3586066 22.1233607 22.3586066 22.1233607 19.0290984 21.0135246 19.0290984"></polygon>
                            <polygon id="Fill-21" fill="#004283" mask="url(#mask-10)" points="23.0118852 22.3586066 24.1217213 22.3586066 24.1217213 17.475 23.0118852 17.475"></polygon>
                            <polygon id="Fill-22" fill="#071B46" mask="url(#mask-10)" points="25.0102459 22.3586066 26.1196721 22.3586066 26.1196721 15.2545082 25.0102459 15.2545082"></polygon>
                            <path d="M17.1677459,19.5496311 L19.2636475,17.2561885 L20.3320902,18.4963525 L27.9960246,10.9303689 C28.1566803,10.7721721 28.1595492,10.5115164 28.000123,10.3504508 C27.8415164,10.1897951 27.5812705,10.1881557 27.4202049,10.3463525 L20.3804508,17.2963525 L19.2812705,16.0217623 L16.562418,18.9967623 C16.4095492,19.1631557 16.4218443,19.4234016 16.5894672,19.575041 C16.7558607,19.7283197 17.014877,19.7172541 17.1677459,19.5496311" id="Fill-23" fill="#0385CB" mask="url(#mask-10)"></path>
                            <path d="M31.3855328,8.75901639 L8.4867623,8.75901639 L8.4867623,13.5467213 C9.34045082,13.7381148 10.1031557,14.170082 10.699877,14.767623 C10.7314344,14.7991803 10.762582,14.8307377 10.7929098,14.8631148 C11.4564344,15.5680328 11.8970082,16.4856557 12.0015164,17.502459 C12.0170902,17.6561475 12.0252869,17.8122951 12.0252869,17.970082 C12.0252869,19.822541 10.9146311,21.4143443 9.32282787,22.1180328 C9.75684426,22.5008197 10.3256967,22.7340164 10.9465984,22.7340164 L31.3855328,22.7340164 L31.3855328,8.75901639 L31.3855328,8.75901639 Z M20.3802049,17.2967213 L27.419959,10.3467213 C27.5002869,10.2680328 27.6039754,10.2286885 27.7084836,10.2286885 C27.8142213,10.2286885 27.919959,10.2696721 27.999877,10.3504098 C28.1597131,10.5114754 28.1568443,10.7721311 27.9957787,10.9303279 L20.3318443,18.4963115 L19.2638115,17.2561475 L17.1679098,19.5495902 C17.0867623,19.6381148 16.9765164,19.6831967 16.8658607,19.6831967 C16.7670902,19.6831967 16.6679098,19.6471311 16.5892213,19.5754098 C16.4215984,19.4233607 16.4097131,19.1631148 16.562582,18.9967213 L19.2814344,16.0217213 L20.3802049,17.2967213 L20.3802049,17.2967213 Z M25.010123,22.3581967 L26.1195492,22.3581967 L26.1195492,15.2540984 L25.010123,15.2540984 L25.010123,22.3581967 Z M23.0117623,22.3586066 L24.1215984,22.3586066 L24.1215984,17.475 L23.0117623,17.475 L23.0117623,22.3586066 Z M21.0134016,22.3586066 L22.1232377,22.3586066 L22.1232377,19.0290984 L21.0134016,19.0290984 L21.0134016,22.3586066 Z M19.0154508,22.3586066 L20.1252869,22.3586066 L20.1252869,20.8045082 L19.0154508,20.8045082 L19.0154508,22.3586066 Z" id="Fill-24" fill="#A7A7A7" mask="url(#mask-10)"></path>
                            <polygon id="Fill-25" fill="#397492" mask="url(#mask-10)" points="8.4867623 0.131680328 8.4867623 0.131680328 8.4867623 8.75913934 31.3855328 8.75913934 31.3855328 5.94356557 8.4867623 5.94356557"></polygon>
                            <path d="M10.7,14.7677049 L8.48688525,16.9812295 L8.48688525,17.2504918 L10.7930328,14.8631967 C10.7622951,14.8308197 10.7315574,14.7992623 10.7,14.7677049 M12.0016393,17.502541 L8.48688525,18.0886066 L8.48688525,20.2742623 C8.48688525,21.0066393 8.81106557,21.6664754 9.32295082,22.1181148 C10.9143443,21.4144262 12.025,19.8222131 12.025,17.9701639 C12.025,17.812377 12.0172131,17.6562295 12.0016393,17.502541" id="Fill-26" fill="#397492" mask="url(#mask-10)"></path>
                            <path d="M8.4867623,13.5468033 L8.4867623,16.9812295 L10.699877,14.7677049 C10.1031557,14.1701639 9.34045082,13.7381967 8.4867623,13.5468033" id="Fill-27" fill="#3B8CA7" mask="url(#mask-10)"></path>
                            <path d="M10.7928689,14.8631557 L10.7928689,14.8631557 L8.48672131,17.2504508 L8.48672131,18.0885656 L12.0014754,17.5025 C11.8969672,16.4852869 11.4563934,15.5680738 10.7928689,14.8631557" id="Fill-28" fill="#3A5672" mask="url(#mask-10)"></path>
                            <polygon id="Fill-29" fill="#3B8CA7" mask="url(#mask-10)" points="19.0155738 22.3586066 20.1254098 22.3586066 20.1254098 20.8045082 19.0155738 20.8045082"></polygon>
                            <polygon id="Fill-30" fill="#397492" mask="url(#mask-10)" points="21.0135246 22.3586066 22.1233607 22.3586066 22.1233607 19.0290984 21.0135246 19.0290984"></polygon>
                            <polygon id="Fill-31" fill="#3A5672" mask="url(#mask-10)" points="23.0118852 22.3586066 24.1217213 22.3586066 24.1217213 17.475 23.0118852 17.475"></polygon>
                            <polygon id="Fill-32" fill="#394558" mask="url(#mask-10)" points="25.0102459 22.3581967 26.1196721 22.3581967 26.1196721 15.2540984 25.0102459 15.2540984"></polygon>
                            <path d="M27.7086066,10.2288934 C27.6040984,10.2288934 27.5,10.2682377 27.420082,10.3465164 L20.3803279,17.2965164 L19.2815574,16.0215164 L16.5627049,18.9969262 C16.4098361,19.1633197 16.4217213,19.4235656 16.5893443,19.5752049 C16.6680328,19.6473361 16.7672131,19.6829918 16.8659836,19.6829918 C16.9762295,19.6829918 17.0868852,19.6383197 17.167623,19.5497951 L19.2639344,17.2563525 L20.3319672,18.4961066 L27.9959016,10.930123 C28.1569672,10.7719262 28.1598361,10.5116803 28,10.3506148 C27.920082,10.2694672 27.8143443,10.2288934 27.7086066,10.2288934" id="Fill-33" fill="#397492" mask="url(#mask-10)"></path>
                        </g>
                        <g id="Group-37" transform="translate(13.114754, 14.391393)">
                            <mask id="mask-12" fill="white">
                                <use xlink:href="#path-11"></use>
                            </mask>
                            <g id="Clip-36"></g>
                            <path d="M20.7306148,0.131680328 L0.290040984,0.131680328 L0.290040984,5.94356557 L23.1888115,5.94356557 L23.1888115,2.59151639 C23.1888115,1.23864754 22.0834836,0.131680328 20.7306148,0.131680328" id="Fill-35" fill="#397492" mask="url(#mask-12)"></path>
                        </g>
                        <g id="Group-48" transform="translate(7.786885, 9.473361)">
                            <path d="M1.28340164,8.07663934 C1.28340164,8.91557377 1.97971311,9.60778689 2.83872951,9.60778689 C3.69815574,9.60778689 4.39446721,8.91557377 4.39446721,8.07663934 C4.39446721,7.20901639 3.69815574,6.51721311 2.83872951,6.51721311 C1.97971311,6.51721311 1.28340164,7.20901639 1.28340164,8.07663934 L1.28340164,8.07663934 Z M2.83872951,10.0897541 C2.24487705,10.0922131 2.05881148,9.95655738 1.79241803,9.83442623 C-0.130942623,10.3733607 0.0993852459,12.754918 0.0952868852,12.754918 L5.61086066,12.754918 C5.60061475,12.754918 5.86495902,10.345082 3.91372951,9.80614754 C3.91372951,9.80614754 3.43258197,10.0868852 2.83872951,10.0897541 L2.83872951,10.0897541 Z M2.86741803,11.0536885 L4.27971311,11.0536885 L4.27971311,11.082377 L3.76127049,11.607377 L2.86741803,11.607377 L2.86741803,11.0536885 Z" id="Fill-38" fill="#FFFFFF"></path>
                            <path d="M18.5381148,9.25913934 C18.5381148,9.96651639 17.9647541,10.539877 17.2569672,10.539877 C16.5491803,10.539877 15.9758197,9.96651639 15.9758197,9.25913934 C15.9758197,8.5517623 16.5491803,7.97840164 17.2569672,7.97840164 C17.9647541,7.97840164 18.5381148,8.5517623 18.5381148,9.25913934" id="Fill-40" fill="#B9E6CE"></path>
                            <path d="M21.0483607,10.540041 C20.3409836,10.540041 19.767623,9.96668033 19.767623,9.25930328 C19.767623,8.55151639 20.3409836,7.97815574 21.0483607,7.97815574 C21.7561475,7.97815574 22.3295082,8.55151639 22.3295082,9.25930328 C22.3295082,9.96668033 21.7561475,10.540041 21.0483607,10.540041" id="Fill-42" fill="#FEDD88"></path>
                            <path d="M24.8397541,10.540041 C24.132377,10.540041 23.5590164,9.96668033 23.5590164,9.25930328 C23.5590164,8.55151639 24.132377,7.97815574 24.8397541,7.97815574 C25.547541,7.97815574 26.1209016,8.55151639 26.1209016,9.25930328 C26.1209016,9.96668033 25.547541,10.540041 24.8397541,10.540041" id="Fill-44" fill="#FE7E8E"></path>
                            <path d="M37.4730328,25.5359016 L11.1218033,25.5359016 C9.76893443,25.5359016 8.66278689,24.4293443 8.66278689,23.0768852 L8.66278689,2.57811475 C8.66278689,1.22565574 9.76893443,0.119098361 11.1218033,0.119098361 L37.4730328,0.119098361 C38.8254918,0.119098361 39.9320492,1.22565574 39.9320492,2.57811475 L39.9320492,23.0768852 C39.9320492,24.4293443 38.8254918,25.5359016 37.4730328,25.5359016" id="Fill-46" fill="#FFFFFF"></path>
                        </g>
                        <g id="Group-51" transform="translate(16.393443, 9.473361)">
                            <mask id="mask-14" fill="white">
                                <use xlink:href="#path-13"></use>
                            </mask>
                            <g id="Clip-50"></g>
                            <polygon id="Fill-49" fill="#0385CB" mask="url(#mask-14)" points="-3.77377049 8.74631148 36.902459 8.74631148 36.902459 -0.504508197 -3.77377049 -0.504508197"></polygon>
                        </g>
                        <g id="Group-56" transform="translate(19.262295, 10.702869)">
                            <path d="M1.22254098,1.91631148 C1.22254098,2.75565574 1.91885246,3.44745902 2.77786885,3.44745902 C3.63729508,3.44745902 4.33360656,2.75565574 4.33360656,1.91631148 C4.33360656,1.04868852 3.63729508,0.356885246 2.77786885,0.356885246 C1.91885246,0.356885246 1.22254098,1.04868852 1.22254098,1.91631148 L1.22254098,1.91631148 Z M2.77786885,3.92942623 C2.18401639,3.93188525 1.99836066,3.79622951 1.73155738,3.67409836 C-0.191803279,4.21303279 0.0385245902,6.595 0.0348360656,6.595 L5.55,6.595 C5.54016393,6.595 5.8045082,4.1847541 3.85286885,3.64581967 C3.85286885,3.64581967 3.37213115,3.92655738 2.77786885,3.92942623 L2.77786885,3.92942623 Z M2.80655738,4.89336066 L4.21885246,4.89336066 L4.21885246,4.92204918 L3.70040984,5.44745902 L2.80655738,5.44745902 L2.80655738,4.89336066 Z" id="Fill-52" fill="#FFFFFF"></path>
                            <path d="M9.09508197,16.7280328 C9.09508197,19.2317213 7.06516393,21.2612295 4.56106557,21.2612295 C2.05737705,21.2612295 0.0278688525,19.2317213 0.0278688525,16.7280328 C0.0278688525,14.2243443 2.05737705,12.1944262 4.56106557,12.1944262 C7.06516393,12.1944262 9.09508197,14.2243443 9.09508197,16.7280328" id="Fill-54" fill="#0385CB"></path>
                        </g>
                        <g id="Group-63" transform="translate(19.262295, 22.588115)">
                            <g id="Group-59">
                                <mask id="mask-16" fill="white">
                                    <use xlink:href="#path-15"></use>
                                </mask>
                                <g id="Clip-58"></g>
                                <polygon id="Fill-57" fill="#0CBDFE" mask="url(#mask-16)" points="4.28913934 -1.1725 4.28913934 5.12135246 9.1625 0.247991803"></polygon>
                            </g>
                            <g id="Group-62">
                                <mask id="mask-18" fill="white">
                                    <use xlink:href="#path-17"></use>
                                </mask>
                                <g id="Clip-61"></g>
                                <polygon id="Fill-60" fill="#004283" mask="url(#mask-18)" points="4.59290984 5.12155738 8.59209016 0.980983607 10.1002869 4.20393443"></polygon>
                            </g>
                        </g>
                        <g id="Group-73" transform="translate(32.786885, 12.342213)">
                            <polygon id="Fill-64" fill="#0CBDFE" points="2.56188525 19.4770492 3.67172131 19.4770492 3.67172131 17.9229508 2.56188525 17.9229508"></polygon>
                            <polygon id="Fill-66" fill="#0385CB" points="4.55983607 19.4770492 5.66967213 19.4770492 5.66967213 16.1471311 4.55983607 16.1471311"></polygon>
                            <polygon id="Fill-67" fill="#004283" points="6.55778689 19.4770492 7.66762295 19.4770492 7.66762295 14.5930328 6.55778689 14.5930328"></polygon>
                            <polygon id="Fill-68" fill="#071B46" points="8.5557377 19.4770492 9.66557377 19.4770492 9.66557377 12.3733607 8.5557377 12.3733607"></polygon>
                            <path d="M0.714262295,16.6681967 L2.80934426,14.3747541 L3.87819672,15.614918 L11.542541,8.04893443 C11.7031967,7.88991803 11.7052459,7.6304918 11.5462295,7.46942623 C11.3872131,7.30836066 11.1277869,7.30672131 10.9671311,7.46532787 L3.92655738,14.4153279 L2.82737705,13.139918 L0.108934426,16.1153279 C-0.0439344262,16.282541 -0.0320491803,16.5415574 0.135163934,16.6944262 C0.302377049,16.8472951 0.561393443,16.8354098 0.714262295,16.6681967" id="Fill-69" fill="#0385CB"></path>
                            <path d="M4.95270492,1.45963115 C4.95270492,2.1670082 4.37934426,2.74036885 3.67155738,2.74036885 C2.96418033,2.74036885 2.39081967,2.1670082 2.39081967,1.45963115 C2.39081967,0.751844262 2.96418033,0.178483607 3.67155738,0.178483607 C4.37934426,0.178483607 4.95270492,0.751844262 4.95270492,1.45963115" id="Fill-70" fill="#B9E6CE"></path>
                            <path d="M7.46336066,2.74057377 C6.75557377,2.74057377 6.18221311,2.16721311 6.18221311,1.45983607 C6.18221311,0.75204918 6.75557377,0.178688525 7.46336066,0.178688525 C8.1707377,0.178688525 8.74409836,0.75204918 8.74409836,1.45983607 C8.74409836,2.16721311 8.1707377,2.74057377 7.46336066,2.74057377" id="Fill-71" fill="#FEDD88"></path>
                            <path d="M11.2547541,2.74057377 C10.5469672,2.74057377 9.97360656,2.16721311 9.97360656,1.45983607 C9.97360656,0.75204918 10.5469672,0.178688525 11.2547541,0.178688525 C11.9621311,0.178688525 12.5354918,0.75204918 12.5354918,1.45983607 C12.5354918,2.16721311 11.9621311,2.74057377 11.2547541,2.74057377" id="Fill-72" fill="#FE7E8E"></path>
                        </g>
                    </g>
                </g>
            </g>
        </g>
    </g>
</svg>