<?xml version="1.0" encoding="UTF-8"?>
<svg width="22px" height="16px" viewBox="0 0 22 16" version="1.1" xmlns="http://www.w3.org/2000/svg" xmlns:xlink="http://www.w3.org/1999/xlink">
    <!-- Generator: Sketch 55.2 (78181) - https://sketchapp.com -->
    <title>Navigation/List-View</title>
    <desc>Created with Sketch.</desc>
    <defs>
        <path d="M1,7 L1,4 L3.86956522,4 L3.86956522,7 L1,7 Z M1,13.513 L1,10.453 L3.91547826,10.453 L3.91547826,13.513 L1,13.513 Z M1,20 L1,17 L3.86956522,17 L3.86956522,20 L1,20 Z M6.73913043,4 L23,4 L20.1241756,7 L6.73913043,7 L6.73913043,4 Z M17.2608696,13.5 L6.77452174,13.5 L6.77452174,10.5 L20.1304348,10.5 L17.2608696,13.5 Z M6.73913043,17 L23,17 L20.1241756,20 L6.73913043,20 L6.73913043,17 Z" id="path-1"></path>
    </defs>
    <g id="Producto" stroke="none" stroke-width="1" fill="none" fill-rule="evenodd">
        <g id="00_B_home" transform="translate(-954.000000, -126.000000)">
            <g id="Navigation/List-View" transform="translate(953.000000, 122.000000)">
                <polygon id="Bounding-Box" points="0 0 24 0 24 24 0 24"></polygon>
                <mask id="mask-2" fill="white">
                    <use xlink:href="#path-1"></use>
                </mask>
                <use id="Mask" fill="#FFFFFF" fill-rule="evenodd" xlink:href="#path-1"></use>
                <g id="Primary/Medium-Blue/Medium-Blue" mask="url(#mask-2)" fill="#1973B8" fill-rule="evenodd">
                    <rect id="Rectangle" x="0" y="0" width="24" height="24"></rect>
                </g>
            </g>
        </g>
    </g>
</svg>